JosefinSlab-Thin_ik.ufo
<glyph name="numbersign" format="1">
  <advance width="573"/>
  <unicode hex="0023"/>
  <outline>
    <contour>
      <point x="323" y="0" type="line"/>
      <point x="349" y="225" type="line"/>
      <point x="179" y="225" type="line"/>
      <point x="153" y="0" type="line"/>
      <point x="139" y="0" type="line"/>
      <point x="165" y="225" type="line"/>
      <point x="48" y="225" type="line"/>
      <point x="48" y="229"/>
      <point x="49" y="235"/>
      <point x="49" y="239" type="qcurve"/>
      <point x="167" y="239" type="line"/>
      <point x="187" y="407" type="line"/>
      <point x="71" y="407" type="line"/>
      <point x="71" y="411"/>
      <point x="72" y="417"/>
      <point x="72" y="421" type="qcurve"/>
      <point x="189" y="421" type="line"/>
      <point x="216" y="643" type="line"/>
      <point x="230" y="643" type="line"/>
      <point x="203" y="421" type="line"/>
      <point x="373" y="421" type="line"/>
      <point x="400" y="643" type="line"/>
      <point x="414" y="643" type="line"/>
      <point x="387" y="421" type="line"/>
      <point x="523" y="421" type="line"/>
      <point x="523" y="417"/>
      <point x="522" y="411"/>
      <point x="522" y="407" type="qcurve"/>
      <point x="385" y="407" type="line"/>
      <point x="365" y="239" type="line"/>
      <point x="500" y="239" type="line"/>
      <point x="500" y="235"/>
      <point x="499" y="229"/>
      <point x="499" y="225" type="qcurve"/>
      <point x="363" y="225" type="line"/>
      <point x="337" y="0" type="line"/>
    </contour>
    <contour>
      <point x="201" y="407" type="line"/>
      <point x="181" y="239" type="line"/>
      <point x="351" y="239" type="line"/>
      <point x="371" y="407" type="line"/>
    </contour>
  </outline>
</glyph>
<glyph name="percent" format="1">
  <advance width="630"/>
  <unicode hex="0025"/>
  <outline>
    <contour>
      <point x="469" y="4" type="qcurve"/>
      <point x="446" y="4"/>
      <point x="406" y="21"/>
      <point x="376" y="50"/>
      <point x="359" y="90"/>
      <point x="359" y="113" type="qcurve"/>
      <point x="359" y="135"/>
      <point x="376" y="175"/>
      <point x="406" y="204"/>
      <point x="446" y="221"/>
      <point x="469" y="221" type="qcurve"/>
      <point x="491" y="221"/>
      <point x="531" y="204"/>
      <point x="561" y="175"/>
      <point x="579" y="135"/>
      <point x="579" y="113" type="qcurve"/>
      <point x="579" y="90"/>
      <point x="561" y="50"/>
      <point x="531" y="21"/>
      <point x="491" y="4"/>
    </contour>
    <contour>
      <point x="165" y="280" type="qcurve"/>
      <point x="142" y="280"/>
      <point x="102" y="297"/>
      <point x="72" y="326"/>
      <point x="55" y="366"/>
      <point x="55" y="389" type="qcurve"/>
      <point x="55" y="411"/>
      <point x="72" y="451"/>
      <point x="102" y="480"/>
      <point x="142" y="497"/>
      <point x="165" y="497" type="qcurve"/>
      <point x="187" y="497"/>
      <point x="227" y="480"/>
      <point x="257" y="451"/>
      <point x="275" y="411"/>
      <point x="275" y="389" type="qcurve"/>
      <point x="275" y="366"/>
      <point x="257" y="326"/>
      <point x="227" y="297"/>
      <point x="187" y="280"/>
    </contour>
    <contour>
      <point x="373" y="112" type="qcurve"/>
      <point x="373" y="92"/>
      <point x="388" y="58"/>
      <point x="414" y="33"/>
      <point x="449" y="18"/>
      <point x="469" y="18" type="qcurve"/>
      <point x="489" y="18"/>
      <point x="524" y="33"/>
      <point x="550" y="58"/>
      <point x="565" y="92"/>
      <point x="565" y="112" type="qcurve"/>
      <point x="565" y="131"/>
      <point x="550" y="166"/>
      <point x="524" y="192"/>
      <point x="489" y="207"/>
      <point x="469" y="207" type="qcurve"/>
      <point x="449" y="207"/>
      <point x="414" y="192"/>
      <point x="388" y="166"/>
      <point x="373" y="131"/>
    </contour>
    <contour>
      <point x="69" y="388" type="qcurve"/>
      <point x="69" y="368"/>
      <point x="84" y="334"/>
      <point x="110" y="309"/>
      <point x="145" y="294"/>
      <point x="165" y="294" type="qcurve"/>
      <point x="185" y="294"/>
      <point x="220" y="309"/>
      <point x="246" y="334"/>
      <point x="261" y="368"/>
      <point x="261" y="388" type="qcurve"/>
      <point x="261" y="407"/>
      <point x="246" y="442"/>
      <point x="220" y="468"/>
      <point x="185" y="483"/>
      <point x="165" y="483" type="qcurve"/>
      <point x="145" y="483"/>
      <point x="110" y="468"/>
      <point x="84" y="442"/>
      <point x="69" y="407"/>
    </contour>
    <contour>
      <point x="155" y="0" type="line"/>
      <point x="453" y="500" type="line"/>
      <point x="469" y="500" type="line"/>
      <point x="171" y="0" type="line"/>
    </contour>
  </outline>
</glyph>
<glyph name="quotesingle" format="1">
  <advance width="179"/>
  <unicode hex="0027"/>
  <outline>
    <contour>
      <point x="82" y="472" type="line"/>
      <point x="82" y="720" type="line"/>
      <point x="100" y="720" type="line"/>
      <point x="96" y="472" type="line"/>
    </contour>
  </outline>
</glyph>
<glyph name="parenleft" format="1">
  <advance width="252"/>
  <unicode hex="0028"/>
  <outline>
    <contour>
      <point x="53" y="292" type="qcurve"/>
      <point x="53" y="367"/>
      <point x="81" y="503"/>
      <point x="127" y="619"/>
      <point x="186" y="714"/>
      <point x="218" y="747" type="qcurve"/>
      <point x="221" y="724" type="line"/>
      <point x="192" y="691"/>
      <point x="137" y="601"/>
      <point x="93" y="491"/>
      <point x="67" y="363"/>
      <point x="67" y="292" type="qcurve"/>
      <point x="67" y="221"/>
      <point x="93" y="93"/>
      <point x="137" y="-17"/>
      <point x="192" y="-107"/>
      <point x="221" y="-140" type="qcurve"/>
      <point x="218" y="-163" type="line"/>
      <point x="186" y="-130"/>
      <point x="127" y="-35"/>
      <point x="81" y="81"/>
      <point x="53" y="217"/>
    </contour>
  </outline>
</glyph>
<glyph name="comma" format="1">
  <advance width="230"/>
  <unicode hex="002C"/>
  <outline>
    <contour>
      <point x="145" y="86" type="line"/>
      <point x="134" y="60"/>
      <point x="120" y="29"/>
      <point x="108" y="1"/>
      <point x="95" y="-30"/>
      <point x="84" y="-56" type="qcurve"/>
      <point x="70" y="-56" type="line"/>
      <point x="80" y="-30"/>
      <point x="91" y="1"/>
      <point x="101" y="29"/>
      <point x="112" y="60"/>
      <point x="122" y="86" type="qcurve"/>
    </contour>
  </outline>
</glyph>
<glyph name="hyphen" format="1">
  <advance width="328"/>
  <unicode hex="002D"/>
  <outline>
    <contour>
      <point x="72" y="184" type="line"/>
      <point x="72" y="198" type="line"/>
      <point x="256" y="198" type="line"/>
      <point x="256" y="184" type="line"/>
    </contour>
  </outline>
</glyph>
<glyph name="zero" format="1">
  <advance width="671"/>
  <unicode hex="0030"/>
  <outline>
    <contour>
      <point x="67" y="327" type="qcurve"/>
      <point x="67" y="375"/>
      <point x="96" y="490"/>
      <point x="160" y="591"/>
      <point x="264" y="658"/>
      <point x="339" y="658" type="qcurve"/>
      <point x="413" y="658"/>
      <point x="515" y="589"/>
      <point x="577" y="488"/>
      <point x="604" y="372"/>
      <point x="604" y="324" type="qcurve"/>
      <point x="604" y="255"/>
      <point x="560" y="134"/>
      <point x="486" y="44"/>
      <point x="387" y="-7"/>
      <point x="332" y="-7" type="qcurve"/>
      <point x="277" y="-7"/>
      <point x="180" y="46"/>
      <point x="108" y="136"/>
      <point x="67" y="257"/>
    </contour>
    <contour>
      <point x="82" y="328" type="qcurve"/>
      <point x="82" y="255"/>
      <point x="124" y="137"/>
      <point x="194" y="53"/>
      <point x="286" y="7"/>
      <point x="334" y="7" type="qcurve"/>
      <point x="382" y="7"/>
      <point x="474" y="51"/>
      <point x="546" y="133"/>
      <point x="590" y="251"/>
      <point x="590" y="323" type="qcurve"/>
      <point x="590" y="396"/>
      <point x="552" y="515"/>
      <point x="484" y="598"/>
      <point x="392" y="644"/>
      <point x="338" y="644" type="qcurve"/>
      <point x="284" y="644"/>
      <point x="191" y="601"/>
      <point x="122" y="518"/>
      <point x="82" y="401"/>
    </contour>
  </outline>
</glyph>
<glyph name="five" format="1">
  <advance width="476"/>
  <unicode hex="0035"/>
  <outline>
    <contour>
      <point x="368" y="574" type="line"/>
      <point x="368" y="636" type="line"/>
      <point x="109" y="636" type="line"/>
      <point x="109" y="372" type="line"/>
      <point x="132" y="383"/>
      <point x="181" y="395"/>
      <point x="207" y="395" type="qcurve"/>
      <point x="249" y="395"/>
      <point x="324" y="364"/>
      <point x="379" y="310"/>
      <point x="412" y="237"/>
      <point x="412" y="195" type="qcurve"/>
      <point x="412" y="153"/>
      <point x="379" y="79"/>
      <point x="324" y="24"/>
      <point x="249" y="-8"/>
      <point x="207" y="-8" type="qcurve"/>
      <point x="166" y="-8"/>
      <point x="95" y="22"/>
      <point x="67" y="48" type="qcurve"/>
      <point x="78" y="58" type="line"/>
      <point x="102" y="33"/>
      <point x="167" y="6"/>
      <point x="205" y="6" type="qcurve"/>
      <point x="245" y="6"/>
      <point x="315" y="36"/>
      <point x="367" y="88"/>
      <point x="398" y="157"/>
      <point x="398" y="195" type="qcurve"/>
      <point x="398" y="234"/>
      <point x="367" y="301"/>
      <point x="315" y="352"/>
      <point x="245" y="381"/>
      <point x="205" y="381" type="qcurve"/>
      <point x="170" y="381"/>
      <point x="112" y="358"/>
      <point x="95" y="341" type="qcurve"/>
      <point x="95" y="650" type="line"/>
      <point x="382" y="650" type="line"/>
      <point x="382" y="574" type="line"/>
    </contour>
  </outline>
</glyph>
<glyph name="six" format="1">
  <advance width="530"/>
  <unicode hex="0036"/>
  <outline>
    <contour>
      <point x="63" y="193" type="qcurve"/>
      <point x="63" y="266"/>
      <point x="125" y="391"/>
      <point x="221" y="499"/>
      <point x="339" y="592"/>
      <point x="395" y="633" type="qcurve"/>
      <point x="405" y="620" type="line"/>
      <point x="338" y="576"/>
      <point x="236" y="490"/>
      <point x="163" y="411"/>
      <point x="116" y="342"/>
      <point x="104" y="314" type="qcurve"/>
      <point x="132" y="351"/>
      <point x="216" y="395"/>
      <point x="267" y="395" type="qcurve"/>
      <point x="309" y="395"/>
      <point x="384" y="363"/>
      <point x="439" y="308"/>
      <point x="471" y="235"/>
      <point x="471" y="193" type="qcurve"/>
      <point x="471" y="151"/>
      <point x="439" y="78"/>
      <point x="384" y="24"/>
      <point x="309" y="-8"/>
      <point x="267" y="-8" type="qcurve"/>
      <point x="225" y="-8"/>
      <point x="150" y="24"/>
      <point x="95" y="78"/>
      <point x="63" y="151"/>
    </contour>
    <contour>
      <point x="76" y="193" type="qcurve"/>
      <point x="76" y="154"/>
      <point x="106" y="86"/>
      <point x="157" y="35"/>
      <point x="227" y="6"/>
      <point x="266" y="6" type="qcurve"/>
      <point x="305" y="6"/>
      <point x="375" y="35"/>
      <point x="427" y="86"/>
      <point x="457" y="154"/>
      <point x="457" y="193" type="qcurve"/>
      <point x="457" y="232"/>
      <point x="427" y="300"/>
      <point x="375" y="351"/>
      <point x="305" y="381"/>
      <point x="266" y="381" type="qcurve"/>
      <point x="227" y="381"/>
      <point x="157" y="351"/>
      <point x="106" y="300"/>
      <point x="76" y="232"/>
    </contour>
  </outline>
</glyph>
<glyph name="eight" format="1">
  <advance width="533"/>
  <unicode hex="0038"/>
  <outline>
    <contour>
      <point x="133" y="511" type="qcurve"/>
      <point x="133" y="486"/>
      <point x="153" y="444"/>
      <point x="189" y="413"/>
      <point x="237" y="396"/>
      <point x="265" y="396" type="qcurve"/>
      <point x="292" y="396"/>
      <point x="339" y="413"/>
      <point x="374" y="444"/>
      <point x="393" y="486"/>
      <point x="393" y="511" type="qcurve"/>
      <point x="393" y="538"/>
      <point x="374" y="586"/>
      <point x="339" y="622"/>
      <point x="292" y="644"/>
      <point x="265" y="644" type="qcurve"/>
      <point x="237" y="644"/>
      <point x="189" y="622"/>
      <point x="153" y="586"/>
      <point x="133" y="538"/>
    </contour>
    <contour>
      <point x="78" y="195" type="qcurve"/>
      <point x="78" y="157"/>
      <point x="107" y="88"/>
      <point x="157" y="36"/>
      <point x="225" y="5"/>
      <point x="264" y="5" type="qcurve"/>
      <point x="304" y="5"/>
      <point x="374" y="36"/>
      <point x="426" y="88"/>
      <point x="457" y="157"/>
      <point x="457" y="195" type="qcurve"/>
      <point x="457" y="234"/>
      <point x="426" y="301"/>
      <point x="374" y="352"/>
      <point x="304" y="381"/>
      <point x="264" y="381" type="qcurve"/>
      <point x="225" y="381"/>
      <point x="157" y="352"/>
      <point x="107" y="301"/>
      <point x="78" y="234"/>
    </contour>
    <contour>
      <point x="64" y="195" type="qcurve"/>
      <point x="64" y="230"/>
      <point x="87" y="293"/>
      <point x="127" y="344"/>
      <point x="182" y="381"/>
      <point x="215" y="389" type="qcurve"/>
      <point x="173" y="403"/>
      <point x="119" y="472"/>
      <point x="119" y="518" type="qcurve"/>
      <point x="119" y="547"/>
      <point x="142" y="598"/>
      <point x="181" y="636"/>
      <point x="233" y="658"/>
      <point x="263" y="658" type="qcurve"/>
      <point x="293" y="658"/>
      <point x="345" y="635"/>
      <point x="384" y="596"/>
      <point x="407" y="544"/>
      <point x="407" y="514" type="qcurve"/>
      <point x="407" y="470"/>
      <point x="356" y="403"/>
      <point x="315" y="389" type="qcurve"/>
      <point x="348" y="381"/>
      <point x="405" y="345"/>
      <point x="447" y="294"/>
      <point x="471" y="231"/>
      <point x="471" y="195" type="qcurve"/>
      <point x="471" y="153"/>
      <point x="438" y="79"/>
      <point x="383" y="24"/>
      <point x="308" y="-8"/>
      <point x="266" y="-8" type="qcurve"/>
      <point x="224" y="-8"/>
      <point x="151" y="24"/>
      <point x="96" y="79"/>
      <point x="64" y="153"/>
    </contour>
  </outline>
</glyph>
<glyph name="nine" format="1">
  <advance width="529"/>
  <unicode hex="0039"/>
  <outline>
    <contour>
      <point x="466" y="432" type="qcurve"/>
      <point x="466" y="359"/>
      <point x="404" y="234"/>
      <point x="308" y="126"/>
      <point x="190" y="33"/>
      <point x="134" y="-8" type="qcurve"/>
      <point x="124" y="5" type="line"/>
      <point x="191" y="49"/>
      <point x="293" y="135"/>
      <point x="366" y="214"/>
      <point x="413" y="283"/>
      <point x="425" y="311" type="qcurve"/>
      <point x="397" y="274"/>
      <point x="313" y="230"/>
      <point x="262" y="230" type="qcurve"/>
      <point x="220" y="230"/>
      <point x="145" y="262"/>
      <point x="90" y="317"/>
      <point x="58" y="390"/>
      <point x="58" y="432" type="qcurve"/>
      <point x="58" y="474"/>
      <point x="90" y="547"/>
      <point x="145" y="601"/>
      <point x="220" y="633"/>
      <point x="262" y="633" type="qcurve"/>
      <point x="304" y="633"/>
      <point x="379" y="601"/>
      <point x="434" y="547"/>
      <point x="466" y="474"/>
    </contour>
    <contour>
      <point x="453" y="432" type="qcurve"/>
      <point x="453" y="471"/>
      <point x="423" y="539"/>
      <point x="372" y="590"/>
      <point x="302" y="619"/>
      <point x="263" y="619" type="qcurve"/>
      <point x="224" y="619"/>
      <point x="154" y="590"/>
      <point x="102" y="539"/>
      <point x="72" y="471"/>
      <point x="72" y="432" type="qcurve"/>
      <point x="72" y="393"/>
      <point x="102" y="324"/>
      <point x="154" y="273"/>
      <point x="224" y="244"/>
      <point x="263" y="244" type="qcurve"/>
      <point x="302" y="244"/>
      <point x="372" y="273"/>
      <point x="423" y="324"/>
      <point x="453" y="393"/>
    </contour>
  </outline>
</glyph>
<glyph name="colon" format="1">
  <advance width="184"/>
  <unicode hex="003A"/>
  <outline>
    <contour>
      <point x="72" y="270" type="qcurve"/>
      <point x="72" y="278"/>
      <point x="84" y="290"/>
      <point x="92" y="290" type="qcurve"/>
      <point x="100" y="290"/>
      <point x="112" y="278"/>
      <point x="112" y="270" type="qcurve"/>
      <point x="112" y="262"/>
      <point x="100" y="250"/>
      <point x="92" y="250" type="qcurve"/>
      <point x="84" y="250"/>
      <point x="72" y="262"/>
    </contour>
    <contour>
      <point x="72" y="20" type="qcurve"/>
      <point x="72" y="28"/>
      <point x="84" y="40"/>
      <point x="92" y="40" type="qcurve"/>
      <point x="100" y="40"/>
      <point x="112" y="28"/>
      <point x="112" y="20" type="qcurve"/>
      <point x="112" y="12"/>
      <point x="100" y="0"/>
      <point x="92" y="0" type="qcurve"/>
      <point x="84" y="0"/>
      <point x="72" y="12"/>
    </contour>
  </outline>
</glyph>
<glyph name="less" format="1">
  <advance width="560"/>
  <unicode hex="003C"/>
  <outline>
    <contour>
      <point x="475" y="1" type="line"/>
      <point x="475" y="-15" type="line"/>
      <point x="37" y="238" type="line"/>
      <point x="475" y="491" type="line"/>
      <point x="475" y="475" type="line"/>
      <point x="63" y="238" type="line"/>
    </contour>
  </outline>
</glyph>
<glyph name="question" format="1">
  <advance width="482"/>
  <unicode hex="003F"/>
  <outline>
    <contour>
      <point x="52" y="596" type="qcurve"/>
      <point x="39" y="599" type="line"/>
      <point x="59" y="657"/>
      <point x="159" y="732"/>
      <point x="224" y="732" type="qcurve"/>
      <point x="265" y="732"/>
      <point x="337" y="701"/>
      <point x="390" y="648"/>
      <point x="420" y="577"/>
      <point x="420" y="537" type="qcurve"/>
      <point x="420" y="483"/>
      <point x="367" y="402"/>
      <point x="322" y="370" type="qcurve"/>
      <point x="302" y="356"/>
      <point x="269" y="337"/>
      <point x="244" y="313"/>
      <point x="230" y="275"/>
      <point x="230" y="242" type="qcurve"/>
      <point x="230" y="164" type="line"/>
      <point x="216" y="164" type="line"/>
      <point x="216" y="261" type="line"/>
      <point x="216" y="292"/>
      <point x="239" y="329"/>
      <point x="276" y="358"/>
      <point x="323" y="387"/>
      <point x="347" y="408" type="qcurve"/>
      <point x="378" y="435"/>
      <point x="406" y="500"/>
      <point x="406" y="537" type="qcurve"/>
      <point x="406" y="576"/>
      <point x="378" y="642"/>
      <point x="329" y="691"/>
      <point x="262" y="718"/>
      <point x="224" y="718" type="qcurve"/>
      <point x="194" y="718"/>
      <point x="140" y="700"/>
      <point x="94" y="668"/>
      <point x="61" y="623"/>
    </contour>
    <contour>
      <point x="223" y="25" type="qcurve"/>
      <point x="216" y="25"/>
      <point x="204" y="37"/>
      <point x="204" y="45" type="qcurve"/>
      <point x="204" y="54"/>
      <point x="216" y="65"/>
      <point x="223" y="65" type="qcurve"/>
      <point x="231" y="65"/>
      <point x="243" y="54"/>
      <point x="243" y="45" type="qcurve"/>
      <point x="243" y="37"/>
      <point x="231" y="25"/>
    </contour>
  </outline>
</glyph>
<glyph name="at" format="1">
  <advance width="921"/>
  <unicode hex="0040"/>
  <outline>
    <contour>
      <point x="244" y="188" type="qcurve"/>
      <point x="244" y="228"/>
      <point x="274" y="300"/>
      <point x="327" y="352"/>
      <point x="397" y="383"/>
      <point x="438" y="383" type="qcurve"/>
      <point x="500" y="383"/>
      <point x="597" y="314"/>
      <point x="619" y="260" type="qcurve"/>
      <point x="619" y="289"/>
      <point x="621" y="346"/>
      <point x="623" y="375" type="qcurve"/>
      <point x="633" y="375" type="line"/>
      <point x="633" y="13" type="line"/>
      <point x="720" y="13" type="line"/>
      <point x="774" y="13"/>
      <point x="835" y="97"/>
      <point x="835" y="188" type="qcurve"/>
      <point x="835" y="267"/>
      <point x="775" y="407"/>
      <point x="671" y="511"/>
      <point x="532" y="571"/>
      <point x="453" y="571" type="qcurve"/>
      <point x="374" y="571"/>
      <point x="235" y="511"/>
      <point x="132" y="407"/>
      <point x="72" y="267"/>
      <point x="72" y="188" type="qcurve"/>
      <point x="72" y="109"/>
      <point x="132" y="-30"/>
      <point x="235" y="-133"/>
      <point x="374" y="-193"/>
      <point x="453" y="-193" type="qcurve"/>
      <point x="515" y="-193"/>
      <point x="625" y="-155"/>
      <point x="672" y="-123" type="qcurve"/>
      <point x="681" y="-134" type="line"/>
      <point x="631" y="-168"/>
      <point x="519" y="-207"/>
      <point x="453" y="-207" type="qcurve"/>
      <point x="371" y="-207"/>
      <point x="227" y="-145"/>
      <point x="120" y="-37"/>
      <point x="58" y="107"/>
      <point x="58" y="189" type="qcurve"/>
      <point x="58" y="271"/>
      <point x="120" y="415"/>
      <point x="227" y="523"/>
      <point x="371" y="585"/>
      <point x="453" y="585" type="qcurve"/>
      <point x="535" y="585"/>
      <point x="679" y="523"/>
      <point x="787" y="415"/>
      <point x="849" y="270"/>
      <point x="849" y="188" type="qcurve"/>
      <point x="849" y="129"/>
      <point x="825" y="55"/>
      <point x="787" y="14"/>
      <point x="738" y="0"/>
      <point x="713" y="0" type="qcurve"/>
      <point x="619" y="0" type="line"/>
      <point x="619" y="54" type="line"/>
      <point x="619" y="70"/>
      <point x="620" y="101"/>
      <point x="620" y="117" type="qcurve"/>
      <point x="609" y="90"/>
      <point x="573" y="45"/>
      <point x="526" y="12"/>
      <point x="469" y="-6"/>
      <point x="438" y="-6" type="qcurve"/>
      <point x="397" y="-6"/>
      <point x="327" y="24"/>
      <point x="274" y="77"/>
      <point x="244" y="147"/>
    </contour>
    <contour>
      <point x="258" y="188" type="qcurve"/>
      <point x="258" y="150"/>
      <point x="286" y="85"/>
      <point x="335" y="36"/>
      <point x="400" y="8"/>
      <point x="438" y="8" type="qcurve"/>
      <point x="475" y="8"/>
      <point x="541" y="36"/>
      <point x="591" y="85"/>
      <point x="619" y="150"/>
      <point x="619" y="188" type="qcurve"/>
      <point x="619" y="225"/>
      <point x="591" y="291"/>
      <point x="541" y="341"/>
      <point x="475" y="369"/>
      <point x="438" y="369" type="qcurve"/>
      <point x="400" y="369"/>
      <point x="335" y="341"/>
      <point x="286" y="291"/>
      <point x="258" y="225"/>
    </contour>
  </outline>
</glyph>
<glyph name="B" format="1">
  <advance width="583"/>
  <unicode hex="0042"/>
  <outline>
    <contour>
      <point x="63" y="0" type="line"/>
      <point x="63" y="14" type="line"/>
      <point x="139" y="14" type="line"/>
      <point x="139" y="686" type="line"/>
      <point x="63" y="686" type="line"/>
      <point x="63" y="700" type="line"/>
      <point x="274" y="700" type="line"/>
      <point x="319" y="700"/>
      <point x="394" y="680"/>
      <point x="448" y="638"/>
      <point x="477" y="570"/>
      <point x="477" y="522" type="qcurve"/>
      <point x="477" y="493"/>
      <point x="465" y="439"/>
      <point x="437" y="394"/>
      <point x="392" y="361"/>
      <point x="360" y="352" type="qcurve"/>
      <point x="390" y="346"/>
      <point x="446" y="318"/>
      <point x="489" y="275"/>
      <point x="514" y="216"/>
      <point x="514" y="179" type="qcurve"/>
      <point x="514" y="135"/>
      <point x="479" y="68"/>
      <point x="420" y="23"/>
      <point x="343" y="0"/>
      <point x="302" y="0" type="qcurve"/>
    </contour>
    <contour>
      <point x="153" y="344" type="line"/>
      <point x="153" y="14" type="line"/>
      <point x="301" y="14" type="line"/>
      <point x="341" y="14"/>
      <point x="414" y="34"/>
      <point x="468" y="75"/>
      <point x="500" y="135"/>
      <point x="500" y="176" type="qcurve"/>
      <point x="500" y="220"/>
      <point x="463" y="283"/>
      <point x="403" y="324"/>
      <point x="324" y="344"/>
      <point x="282" y="344" type="qcurve"/>
    </contour>
    <contour>
      <point x="153" y="686" type="line"/>
      <point x="153" y="358" type="line"/>
      <point x="300" y="358" type="line"/>
      <point x="380" y="358"/>
      <point x="463" y="452"/>
      <point x="463" y="528" type="qcurve"/>
      <point x="463" y="570"/>
      <point x="437" y="630"/>
      <point x="390" y="668"/>
      <point x="325" y="686"/>
      <point x="286" y="686" type="qcurve"/>
    </contour>
  </outline>
</glyph>
<glyph name="D" format="1">
  <advance width="731"/>
  <unicode hex="0044"/>
  <outline>
    <contour>
      <point x="282" y="700" type="line"/>
      <point x="388" y="700"/>
      <point x="535" y="635"/>
      <point x="627" y="533"/>
      <point x="668" y="409"/>
      <point x="668" y="350" type="qcurve"/>
      <point x="668" y="270"/>
      <point x="612" y="140"/>
      <point x="516" y="49"/>
      <point x="388" y="0"/>
      <point x="316" y="0" type="qcurve"/>
      <point x="63" y="0" type="line"/>
      <point x="63" y="14" type="line"/>
      <point x="139" y="14" type="line"/>
      <point x="139" y="686" type="line"/>
      <point x="63" y="686" type="line"/>
      <point x="63" y="700" type="line"/>
    </contour>
    <contour>
      <point x="322" y="14" type="line"/>
      <point x="389" y="14"/>
      <point x="510" y="61"/>
      <point x="602" y="148"/>
      <point x="655" y="273"/>
      <point x="655" y="350" type="qcurve"/>
      <point x="655" y="407"/>
      <point x="616" y="525"/>
      <point x="529" y="623"/>
      <point x="390" y="685"/>
      <point x="291" y="685" type="qcurve"/>
      <point x="153" y="685" type="line"/>
      <point x="153" y="14" type="line"/>
    </contour>
  </outline>
</glyph>
<glyph name="F" format="1">
  <advance width="489"/>
  <unicode hex="0046"/>
  <outline>
    <contour>
      <point x="237" y="14" type="line"/>
      <point x="237" y="0" type="line"/>
      <point x="63" y="0" type="line"/>
      <point x="63" y="14" type="line"/>
      <point x="139" y="14" type="line"/>
      <point x="139" y="686" type="line"/>
      <point x="63" y="686" type="line"/>
      <point x="63" y="700" type="line"/>
      <point x="431" y="700" type="line"/>
      <point x="431" y="701" type="line"/>
      <point x="445" y="701" type="line"/>
      <point x="445" y="612" type="line"/>
      <point x="431" y="612" type="line"/>
      <point x="431" y="686" type="line"/>
      <point x="153" y="686" type="line"/>
      <point x="153" y="360" type="line"/>
      <point x="406" y="360" type="line"/>
      <point x="406" y="346" type="line"/>
      <point x="153" y="346" type="line"/>
      <point x="153" y="14" type="line"/>
    </contour>
  </outline>
</glyph>
<glyph name="H" format="1">
  <advance width="772"/>
  <unicode hex="0048"/>
  <outline>
    <contour>
      <point x="237" y="700" type="line"/>
      <point x="237" y="686" type="line"/>
      <point x="154" y="686" type="line"/>
      <point x="154" y="360" type="line"/>
      <point x="618" y="360" type="line"/>
      <point x="618" y="686" type="line"/>
      <point x="535" y="686" type="line"/>
      <point x="535" y="700" type="line"/>
      <point x="709" y="700" type="line"/>
      <point x="709" y="686" type="line"/>
      <point x="632" y="686" type="line"/>
      <point x="632" y="14" type="line"/>
      <point x="709" y="14" type="line"/>
      <point x="709" y="0" type="line"/>
      <point x="535" y="0" type="line"/>
      <point x="535" y="14" type="line"/>
      <point x="618" y="14" type="line"/>
      <point x="618" y="346" type="line"/>
      <point x="154" y="346" type="line"/>
      <point x="154" y="14" type="line"/>
      <point x="237" y="14" type="line"/>
      <point x="237" y="0" type="line"/>
      <point x="63" y="0" type="line"/>
      <point x="63" y="14" type="line"/>
      <point x="140" y="14" type="line"/>
      <point x="140" y="686" type="line"/>
      <point x="63" y="686" type="line"/>
      <point x="63" y="700" type="line"/>
    </contour>
  </outline>
</glyph>
<glyph name="J" format="1">
  <advance width="294"/>
  <unicode hex="004A"/>
  <outline>
    <contour>
      <point x="175" y="700" type="line"/>
      <point x="175" y="90" type="line"/>
      <point x="175" y="34"/>
      <point x="146" y="-51"/>
      <point x="95" y="-109"/>
      <point x="28" y="-141"/>
      <point x="-10" y="-142" type="qcurve"/>
      <point x="-10" y="-128" type="line"/>
      <point x="27" y="-126"/>
      <point x="89" y="-95"/>
      <point x="135" y="-38"/>
      <point x="161" y="42"/>
      <point x="161" y="93" type="qcurve"/>
      <point x="161" y="686" type="line"/>
      <point x="63" y="686" type="line"/>
      <point x="63" y="700" type="line"/>
    </contour>
  </outline>
</glyph>
<glyph name="M" format="1">
  <advance width="931"/>
  <unicode hex="004D"/>
  <outline>
    <contour>
      <point x="868" y="700" type="line"/>
      <point x="868" y="686" type="line"/>
      <point x="791" y="686" type="line"/>
      <point x="791" y="14" type="line"/>
      <point x="873" y="14" type="line"/>
      <point x="873" y="0" type="line"/>
      <point x="699" y="0" type="line"/>
      <point x="699" y="14" type="line"/>
      <point x="777" y="14" type="line"/>
      <point x="777" y="645" type="line"/>
      <point x="777" y="656"/>
      <point x="778" y="679"/>
      <point x="778" y="690" type="qcurve"/>
      <point x="691" y="568"/>
      <point x="537" y="336"/>
      <point x="465" y="228" type="qcurve"/>
      <point x="442" y="257"/>
      <point x="385" y="338"/>
      <point x="324" y="429"/>
      <point x="262" y="522"/>
      <point x="208" y="605"/>
      <point x="164" y="671"/>
      <point x="152" y="690" type="qcurve"/>
      <point x="152" y="679"/>
      <point x="153" y="656"/>
      <point x="153" y="645" type="qcurve"/>
      <point x="153" y="14" type="line"/>
      <point x="234" y="14" type="line"/>
      <point x="234" y="0" type="line"/>
      <point x="60" y="0" type="line"/>
      <point x="60" y="14" type="line"/>
      <point x="139" y="14" type="line"/>
      <point x="139" y="686" type="line"/>
      <point x="60" y="686" type="line"/>
      <point x="60" y="700" type="line"/>
      <point x="160" y="700" type="line"/>
      <point x="207" y="630"/>
      <point x="282" y="519"/>
      <point x="352" y="418"/>
      <point x="423" y="317"/>
      <point x="465" y="257" type="qcurve"/>
      <point x="487" y="289"/>
      <point x="549" y="384"/>
      <point x="626" y="499"/>
      <point x="717" y="631"/>
      <point x="768" y="700" type="qcurve"/>
    </contour>
  </outline>
</glyph>
<glyph name="P" format="1">
  <advance width="533"/>
  <unicode hex="0050"/>
  <outline>
    <contour>
      <point x="237" y="14" type="line"/>
      <point x="237" y="0" type="line"/>
      <point x="63" y="0" type="line"/>
      <point x="63" y="14" type="line"/>
      <point x="140" y="14" type="line"/>
      <point x="140" y="686" type="line"/>
      <point x="63" y="686" type="line"/>
      <point x="63" y="700" type="line"/>
      <point x="280" y="700" type="line"/>
      <point x="309" y="700"/>
      <point x="379" y="681"/>
      <point x="439" y="638"/>
      <point x="480" y="568"/>
      <point x="480" y="516" type="qcurve"/>
      <point x="480" y="478"/>
      <point x="455" y="408"/>
      <point x="403" y="354"/>
      <point x="322" y="321"/>
      <point x="266" y="321" type="qcurve"/>
      <point x="154" y="321" type="line"/>
      <point x="154" y="14" type="line"/>
    </contour>
    <contour>
      <point x="154" y="335" type="line"/>
      <point x="269" y="335" type="line"/>
      <point x="327" y="335"/>
      <point x="403" y="372"/>
      <point x="448" y="427"/>
      <point x="466" y="491"/>
      <point x="466" y="518" type="qcurve"/>
      <point x="466" y="556"/>
      <point x="436" y="618"/>
      <point x="383" y="662"/>
      <point x="312" y="686"/>
      <point x="270" y="686" type="qcurve"/>
      <point x="154" y="686" type="line"/>
    </contour>
  </outline>
</glyph>
<glyph name="Q" format="1">
  <advance width="840"/>
  <unicode hex="0051"/>
  <outline>
    <contour>
      <point x="61" y="349" type="qcurve"/>
      <point x="61" y="423"/>
      <point x="117" y="554"/>
      <point x="214" y="651"/>
      <point x="344" y="708"/>
      <point x="418" y="708" type="qcurve"/>
      <point x="492" y="708"/>
      <point x="623" y="651"/>
      <point x="720" y="554"/>
      <point x="777" y="423"/>
      <point x="777" y="349" type="qcurve"/>
      <point x="777" y="291"/>
      <point x="742" y="186"/>
      <point x="680" y="99"/>
      <point x="593" y="33"/>
      <point x="542" y="14" type="qcurve"/>
      <point x="799" y="14" type="line"/>
      <point x="799" y="0" type="line"/>
      <point x="492" y="0" type="line"/>
      <point x="454" y="-8"/>
      <point x="418" y="-8" type="qcurve"/>
      <point x="344" y="-8"/>
      <point x="214" y="48"/>
      <point x="117" y="145"/>
      <point x="61" y="275"/>
    </contour>
    <contour>
      <point x="75" y="348" type="qcurve"/>
      <point x="75" y="277"/>
      <point x="129" y="153"/>
      <point x="221" y="60"/>
      <point x="345" y="6"/>
      <point x="415" y="6" type="qcurve"/>
      <point x="486" y="6"/>
      <point x="613" y="60"/>
      <point x="708" y="153"/>
      <point x="763" y="278"/>
      <point x="763" y="349" type="qcurve"/>
      <point x="763" y="420"/>
      <point x="708" y="545"/>
      <point x="614" y="639"/>
      <point x="489" y="694"/>
      <point x="418" y="694" type="qcurve"/>
      <point x="347" y="694"/>
      <point x="222" y="639"/>
      <point x="129" y="545"/>
      <point x="75" y="419"/>
    </contour>
  </outline>
</glyph>
<glyph name="R" format="1">
  <advance width="608"/>
  <unicode hex="0052"/>
  <outline>
    <contour>
      <point x="237" y="14" type="line"/>
      <point x="237" y="0" type="line"/>
      <point x="63" y="0" type="line"/>
      <point x="63" y="14" type="line"/>
      <point x="140" y="14" type="line"/>
      <point x="140" y="686" type="line"/>
      <point x="63" y="686" type="line"/>
      <point x="63" y="700" type="line"/>
      <point x="280" y="700" type="line"/>
      <point x="309" y="700"/>
      <point x="379" y="681"/>
      <point x="439" y="638"/>
      <point x="480" y="568"/>
      <point x="480" y="516" type="qcurve"/>
      <point x="480" y="457"/>
      <point x="419" y="357"/>
      <point x="353" y="334" type="qcurve"/>
      <point x="545" y="14" type="line"/>
      <point x="613" y="14" type="line"/>
      <point x="613" y="0" type="line"/>
      <point x="536" y="0" type="line"/>
      <point x="340" y="330" type="line"/>
      <point x="307" y="321"/>
      <point x="266" y="321" type="qcurve"/>
      <point x="154" y="321" type="line"/>
      <point x="154" y="14" type="line"/>
    </contour>
    <contour>
      <point x="154" y="335" type="line"/>
      <point x="269" y="335" type="line"/>
      <point x="327" y="335"/>
      <point x="403" y="373"/>
      <point x="448" y="430"/>
      <point x="466" y="494"/>
      <point x="466" y="520" type="qcurve"/>
      <point x="466" y="557"/>
      <point x="436" y="618"/>
      <point x="383" y="662"/>
      <point x="312" y="686"/>
      <point x="270" y="686" type="qcurve"/>
      <point x="154" y="686" type="line"/>
    </contour>
  </outline>
</glyph>
<glyph name="T" format="1">
  <advance width="518"/>
  <unicode hex="0054"/>
  <outline>
    <contour>
      <point x="452" y="582" type="line"/>
      <point x="452" y="686" type="line"/>
      <point x="266" y="686" type="line"/>
      <point x="266" y="0" type="line"/>
      <point x="252" y="0" type="line"/>
      <point x="252" y="686" type="line"/>
      <point x="66" y="686" type="line"/>
      <point x="66" y="582" type="line"/>
      <point x="52" y="582" type="line"/>
      <point x="52" y="700" type="line"/>
      <point x="466" y="700" type="line"/>
      <point x="466" y="582" type="line"/>
    </contour>
  </outline>
</glyph>
<glyph name="V" format="1">
  <advance width="702"/>
  <unicode hex="0056"/>
  <outline>
    <contour>
      <point x="695" y="700" type="line"/>
      <point x="695" y="686" type="line"/>
      <point x="636" y="686" type="line"/>
      <point x="351" y="-31" type="line"/>
      <point x="66" y="686" type="line"/>
      <point x="-6" y="686" type="line"/>
      <point x="-6" y="700" type="line"/>
      <point x="168" y="700" type="line"/>
      <point x="168" y="686" type="line"/>
      <point x="81" y="686" type="line"/>
      <point x="342" y="26" type="line"/>
      <point x="343" y="20"/>
      <point x="345" y="16" type="qcurve"/>
      <point x="347" y="12"/>
      <point x="349" y="4"/>
      <point x="351" y="1" type="qcurve"/>
      <point x="352" y="4"/>
      <point x="355" y="12"/>
      <point x="357" y="16" type="qcurve"/>
      <point x="359" y="20"/>
      <point x="360" y="26" type="qcurve"/>
      <point x="621" y="686" type="line"/>
      <point x="536" y="686" type="line"/>
      <point x="536" y="700" type="line"/>
    </contour>
  </outline>
</glyph>
<glyph name="X" format="1">
  <advance width="611"/>
  <unicode hex="0058"/>
  <outline>
    <contour>
      <point x="191" y="700" type="line"/>
      <point x="191" y="686" type="line"/>
      <point x="98" y="686" type="line"/>
      <point x="297" y="381" type="line"/>
      <point x="305" y="368" type="line"/>
      <point x="313" y="381" type="line"/>
      <point x="517" y="700" type="line"/>
      <point x="576" y="700" type="line"/>
      <point x="576" y="686" type="line"/>
      <point x="520" y="686" type="line"/>
      <point x="311" y="359" type="line"/>
      <point x="367" y="272"/>
      <point x="480" y="100"/>
      <point x="536" y="14" type="qcurve"/>
      <point x="615" y="14" type="line"/>
      <point x="615" y="0" type="line"/>
      <point x="441" y="0" type="line"/>
      <point x="441" y="14" type="line"/>
      <point x="519" y="14" type="line"/>
      <point x="345" y="279" type="line"/>
      <point x="334" y="296"/>
      <point x="311" y="335"/>
      <point x="299" y="351" type="qcurve"/>
      <point x="291" y="338" type="line"/>
      <point x="75" y="0" type="line"/>
      <point x="14" y="0" type="line"/>
      <point x="14" y="14" type="line"/>
      <point x="72" y="14" type="line"/>
      <point x="293" y="360" type="line"/>
      <point x="82" y="686" type="line"/>
      <point x="17" y="686" type="line"/>
      <point x="17" y="700" type="line"/>
    </contour>
  </outline>
</glyph>
<glyph name="Z" format="1">
  <advance width="647"/>
  <unicode hex="005A"/>
  <outline>
    <contour>
      <point x="92" y="700" type="qcurve"/>
      <point x="567" y="700" type="line"/>
      <point x="49" y="14" type="line"/>
      <point x="586" y="14" type="line"/>
      <point x="586" y="148" type="line"/>
      <point x="600" y="148" type="line"/>
      <point x="600" y="0" type="line"/>
      <point x="24" y="0" type="line"/>
      <point x="152" y="180"/>
      <point x="411" y="517"/>
      <point x="539" y="686" type="qcurve"/>
      <point x="106" y="686" type="line"/>
      <point x="75" y="686"/>
      <point x="46" y="702"/>
      <point x="46" y="731" type="qcurve"/>
      <point x="46" y="735" type="line"/>
      <point x="62" y="735" type="line"/>
      <point x="62" y="723" type="line"/>
      <point x="62" y="714"/>
      <point x="75" y="700"/>
    </contour>
  </outline>
</glyph>
<glyph name="bracketright" format="1">
  <advance width="295"/>
  <unicode hex="005D"/>
  <outline>
    <contour>
      <point x="192" y="746" type="line"/>
      <point x="192" y="-149" type="line"/>
      <point x="29" y="-149" type="line"/>
      <point x="29" y="-135" type="line"/>
      <point x="176" y="-135" type="line"/>
      <point x="176" y="732" type="line"/>
      <point x="29" y="732" type="line"/>
      <point x="29" y="746" type="line"/>
    </contour>
  </outline>
</glyph>
<glyph name="asciicircum" format="1">
  <advance width="412"/>
  <unicode hex="005E"/>
  <outline>
    <contour>
      <point x="206" y="660" type="line"/>
      <point x="326" y="479" type="line"/>
      <point x="310" y="479" type="line"/>
      <point x="206" y="633" type="line"/>
      <point x="102" y="479" type="line"/>
      <point x="86" y="479" type="line"/>
    </contour>
  </outline>
</glyph>
<glyph name="d" format="1">
  <advance width="530"/>
  <unicode hex="0064"/>
  <outline>
    <contour>
      <point x="434" y="14" type="line"/>
      <point x="514" y="14" type="line"/>
      <point x="514" y="0" type="line"/>
      <point x="420" y="0" type="line"/>
      <point x="420" y="54" type="line"/>
      <point x="420" y="70"/>
      <point x="421" y="101"/>
      <point x="421" y="117" type="qcurve"/>
      <point x="410" y="90"/>
      <point x="374" y="45"/>
      <point x="327" y="12"/>
      <point x="270" y="-6"/>
      <point x="239" y="-6" type="qcurve"/>
      <point x="198" y="-6"/>
      <point x="128" y="24"/>
      <point x="75" y="77"/>
      <point x="45" y="147"/>
      <point x="45" y="188" type="qcurve"/>
      <point x="45" y="228"/>
      <point x="75" y="300"/>
      <point x="128" y="352"/>
      <point x="198" y="383"/>
      <point x="239" y="383" type="qcurve"/>
      <point x="301" y="383"/>
      <point x="398" y="314"/>
      <point x="420" y="260" type="qcurve"/>
      <point x="420" y="736" type="line"/>
      <point x="342" y="736" type="line"/>
      <point x="342" y="750" type="line"/>
      <point x="434" y="750" type="line"/>
    </contour>
    <contour>
      <point x="59" y="188" type="qcurve"/>
      <point x="59" y="150"/>
      <point x="87" y="85"/>
      <point x="136" y="36"/>
      <point x="201" y="8"/>
      <point x="239" y="8" type="qcurve"/>
      <point x="276" y="8"/>
      <point x="342" y="36"/>
      <point x="392" y="85"/>
      <point x="420" y="150"/>
      <point x="420" y="188" type="qcurve"/>
      <point x="420" y="225"/>
      <point x="392" y="291"/>
      <point x="342" y="341"/>
      <point x="276" y="369"/>
      <point x="239" y="369" type="qcurve"/>
      <point x="201" y="369"/>
      <point x="136" y="341"/>
      <point x="87" y="291"/>
      <point x="59" y="225"/>
    </contour>
  </outline>
</glyph>
<glyph name="h" format="1">
  <advance width="480"/>
  <unicode hex="0068"/>
  <outline>
    <contour>
      <point x="110" y="220" type="qcurve"/>
      <point x="110" y="14" type="line"/>
      <point x="191" y="14" type="line"/>
      <point x="191" y="0" type="line"/>
      <point x="16" y="0" type="line"/>
      <point x="16" y="14" type="line"/>
      <point x="96" y="14" type="line"/>
      <point x="96" y="736" type="line"/>
      <point x="17" y="736" type="line"/>
      <point x="17" y="750" type="line"/>
      <point x="107" y="750" type="line"/>
      <point x="107" y="277" type="line"/>
      <point x="127" y="324"/>
      <point x="215" y="382"/>
      <point x="272" y="382" type="qcurve"/>
      <point x="325" y="382"/>
      <point x="386" y="320"/>
      <point x="388" y="270" type="qcurve"/>
      <point x="388" y="14" type="line"/>
      <point x="468" y="14" type="line"/>
      <point x="468" y="0" type="line"/>
      <point x="295" y="0" type="line"/>
      <point x="295" y="14" type="line"/>
      <point x="374" y="14" type="line"/>
      <point x="374" y="277" type="line"/>
      <point x="372" y="313"/>
      <point x="323" y="366"/>
      <point x="279" y="368" type="qcurve"/>
      <point x="245" y="368"/>
      <point x="184" y="346"/>
      <point x="137" y="307"/>
      <point x="110" y="252"/>
    </contour>
  </outline>
</glyph>
<glyph name="i" format="1">
  <advance width="217"/>
  <unicode hex="0069"/>
  <outline>
    <contour>
      <point x="119" y="375" type="line"/>
      <point x="119" y="14" type="line"/>
      <point x="200" y="14" type="line"/>
      <point x="200" y="0" type="line"/>
      <point x="25" y="0" type="line"/>
      <point x="25" y="14" type="line"/>
      <point x="105" y="14" type="line"/>
      <point x="105" y="361" type="line"/>
      <point x="25" y="361" type="line"/>
      <point x="25" y="375" type="line"/>
    </contour>
    <contour>
      <point x="92" y="500" type="qcurve"/>
      <point x="92" y="508"/>
      <point x="104" y="520"/>
      <point x="112" y="520" type="qcurve"/>
      <point x="120" y="520"/>
      <point x="132" y="508"/>
      <point x="132" y="500" type="qcurve"/>
      <point x="132" y="492"/>
      <point x="120" y="480"/>
      <point x="112" y="480" type="qcurve"/>
      <point x="104" y="480"/>
      <point x="92" y="492"/>
    </contour>
  </outline>
</glyph>
<glyph name="k" format="1">
  <advance width="428"/>
  <unicode hex="006B"/>
  <outline>
    <contour>
      <point x="260" y="384" type="line"/>
      <point x="388" y="384" type="line"/>
      <point x="388" y="370" type="line"/>
      <point x="337" y="370" type="line"/>
      <point x="300" y="335"/>
      <point x="233" y="270"/>
      <point x="196" y="235" type="qcurve"/>
      <point x="236" y="179"/>
      <point x="317" y="69"/>
      <point x="358" y="14" type="qcurve"/>
      <point x="418" y="14" type="line"/>
      <point x="418" y="0" type="line"/>
      <point x="350" y="0" type="line"/>
      <point x="184" y="225" type="line"/>
      <point x="110" y="155" type="line"/>
      <point x="110" y="14" type="line"/>
      <point x="191" y="14" type="line"/>
      <point x="191" y="0" type="line"/>
      <point x="16" y="0" type="line"/>
      <point x="16" y="14" type="line"/>
      <point x="96" y="14" type="line"/>
      <point x="96" y="736" type="line"/>
      <point x="16" y="736" type="line"/>
      <point x="16" y="750" type="line"/>
      <point x="110" y="750" type="line"/>
      <point x="110" y="176" type="line"/>
      <point x="318" y="370" type="line"/>
      <point x="260" y="370" type="line"/>
    </contour>
  </outline>
</glyph>
<glyph name="l" format="1">
  <advance width="210"/>
  <unicode hex="006C"/>
  <outline>
    <contour>
      <point x="112" y="750" type="line"/>
      <point x="112" y="14" type="line"/>
      <point x="193" y="14" type="line"/>
      <point x="193" y="0" type="line"/>
      <point x="18" y="0" type="line"/>
      <point x="18" y="14" type="line"/>
      <point x="98" y="14" type="line"/>
      <point x="98" y="736" type="line"/>
      <point x="18" y="736" type="line"/>
      <point x="18" y="750" type="line"/>
    </contour>
  </outline>
</glyph>
<glyph name="n" format="1">
  <advance width="488"/>
  <unicode hex="006E"/>
  <outline>
    <contour>
      <point x="397" y="270" type="qcurve"/>
      <point x="397" y="14" type="line"/>
      <point x="477" y="14" type="line"/>
      <point x="477" y="0" type="line"/>
      <point x="304" y="0" type="line"/>
      <point x="304" y="14" type="line"/>
      <point x="383" y="14" type="line"/>
      <point x="383" y="277" type="line"/>
      <point x="381" y="313"/>
      <point x="332" y="366"/>
      <point x="288" y="368" type="qcurve"/>
      <point x="254" y="368"/>
      <point x="193" y="346"/>
      <point x="146" y="307"/>
      <point x="119" y="252"/>
      <point x="119" y="220" type="qcurve"/>
      <point x="119" y="14" type="line"/>
      <point x="200" y="14" type="line"/>
      <point x="200" y="0" type="line"/>
      <point x="25" y="0" type="line"/>
      <point x="25" y="14" type="line"/>
      <point x="105" y="14" type="line"/>
      <point x="105" y="361" type="line"/>
      <point x="25" y="361" type="line"/>
      <point x="25" y="375" type="line"/>
      <point x="114" y="375" type="line"/>
      <point x="116" y="277" type="line"/>
      <point x="136" y="324"/>
      <point x="224" y="382"/>
      <point x="281" y="382" type="qcurve"/>
      <point x="334" y="382"/>
      <point x="395" y="320"/>
    </contour>
  </outline>
</glyph>
<glyph name="r" format="1">
  <advance width="294"/>
  <unicode hex="0072"/>
  <outline>
    <contour>
      <point x="119" y="220" type="qcurve"/>
      <point x="119" y="14" type="line"/>
      <point x="200" y="14" type="line"/>
      <point x="200" y="0" type="line"/>
      <point x="25" y="0" type="line"/>
      <point x="25" y="14" type="line"/>
      <point x="105" y="14" type="line"/>
      <point x="105" y="361" type="line"/>
      <point x="25" y="361" type="line"/>
      <point x="25" y="375" type="line"/>
      <point x="115" y="375" type="line"/>
      <point x="116" y="277" type="line"/>
      <point x="137" y="325"/>
      <point x="225" y="380"/>
      <point x="282" y="382" type="qcurve"/>
      <point x="282" y="368" type="line"/>
      <point x="249" y="367"/>
      <point x="190" y="344"/>
      <point x="145" y="305"/>
      <point x="119" y="251"/>
    </contour>
  </outline>
</glyph>
<glyph name="v" format="1">
  <advance width="461"/>
  <unicode hex="0076"/>
  <outline>
    <contour>
      <point x="4" y="375" type="line"/>
      <point x="142" y="375" type="line"/>
      <point x="142" y="361" type="line"/>
      <point x="74" y="361" type="line"/>
      <point x="231" y="8" type="line"/>
      <point x="388" y="361" type="line"/>
      <point x="334" y="361" type="line"/>
      <point x="334" y="375" type="line"/>
      <point x="453" y="375" type="line"/>
      <point x="453" y="361" type="line"/>
      <point x="402" y="361" type="line"/>
      <point x="231" y="-23" type="line"/>
      <point x="59" y="361" type="line"/>
      <point x="4" y="361" type="line"/>
    </contour>
  </outline>
</glyph>
<glyph name="y" format="1">
  <advance width="473"/>
  <unicode hex="0079"/>
  <outline>
    <contour>
      <point x="9" y="375" type="line"/>
      <point x="147" y="375" type="line"/>
      <point x="147" y="361" type="line"/>
      <point x="79" y="361" type="line"/>
      <point x="237" y="6" type="line"/>
      <point x="393" y="361" type="line"/>
      <point x="329" y="361" type="line"/>
      <point x="329" y="375" type="line"/>
      <point x="468" y="375" type="line"/>
      <point x="468" y="361" type="line"/>
      <point x="408" y="361" type="line"/>
      <point x="175" y="-166" type="line"/>
      <point x="246" y="-166" type="line"/>
      <point x="246" y="-180" type="line"/>
      <point x="96" y="-180" type="line"/>
      <point x="96" y="-166" type="line"/>
      <point x="162" y="-166" type="line"/>
      <point x="229" y="-10" type="line"/>
      <point x="64" y="361" type="line"/>
      <point x="9" y="361" type="line"/>
    </contour>
  </outline>
</glyph>
<glyph name="braceleft" format="1">
  <advance width="269"/>
  <unicode hex="007B"/>
  <outline>
    <contour>
      <point x="36" y="287" type="qcurve"/>
      <point x="36" y="311" type="line"/>
      <point x="60" y="312"/>
      <point x="91" y="339"/>
      <point x="109" y="379"/>
      <point x="115" y="426"/>
      <point x="115" y="446" type="qcurve"/>
      <point x="115" y="628" type="line"/>
      <point x="115" y="673"/>
      <point x="130" y="722"/>
      <point x="154" y="743"/>
      <point x="185" y="746"/>
      <point x="201" y="746" type="qcurve"/>
      <point x="238" y="746" type="line"/>
      <point x="238" y="732" type="line"/>
      <point x="181" y="732" type="line"/>
      <point x="150" y="732"/>
      <point x="129" y="680"/>
      <point x="129" y="620" type="qcurve"/>
      <point x="129" y="470" type="line"/>
      <point x="129" y="423"/>
      <point x="118" y="363"/>
      <point x="100" y="326"/>
      <point x="76" y="306"/>
      <point x="63" y="299" type="qcurve"/>
      <point x="76" y="291"/>
      <point x="100" y="271"/>
      <point x="118" y="233"/>
      <point x="129" y="174"/>
      <point x="129" y="128" type="qcurve"/>
      <point x="129" y="-22" type="line"/>
      <point x="129" y="-82"/>
      <point x="150" y="-134"/>
      <point x="181" y="-134" type="qcurve"/>
      <point x="238" y="-134" type="line"/>
      <point x="238" y="-148" type="line"/>
      <point x="201" y="-148" type="line"/>
      <point x="181" y="-148"/>
      <point x="149" y="-144"/>
      <point x="127" y="-116"/>
      <point x="115" y="-53"/>
      <point x="115" y="6" type="qcurve"/>
      <point x="115" y="152" type="line"/>
      <point x="115" y="172"/>
      <point x="109" y="219"/>
      <point x="91" y="259"/>
      <point x="60" y="286"/>
    </contour>
  </outline>
</glyph>
<glyph name="exclamdown" format="1">
  <advance width="222"/>
  <unicode hex="00A1"/>
  <outline>
    <contour>
      <point x="104" y="374" type="line"/>
      <point x="118" y="374" type="line"/>
      <point x="118" y="-210" type="line"/>
      <point x="104" y="-210" type="line"/>
    </contour>
    <contour>
      <point x="111" y="504" type="qcurve"/>
      <point x="119" y="504"/>
      <point x="131" y="492"/>
      <point x="131" y="484" type="qcurve"/>
      <point x="131" y="475"/>
      <point x="119" y="464"/>
      <point x="111" y="464" type="qcurve"/>
      <point x="104" y="464"/>
      <point x="92" y="475"/>
      <point x="92" y="484" type="qcurve"/>
      <point x="92" y="492"/>
      <point x="104" y="504"/>
    </contour>
  </outline>
</glyph>
<glyph name="sterling" format="1">
  <advance width="561"/>
  <unicode hex="00A3"/>
  <outline>
    <contour>
      <point x="131" y="14" type="qcurve"/>
      <point x="378" y="14" type="line"/>
      <point x="438" y="14"/>
      <point x="490" y="35"/>
      <point x="490" y="66" type="qcurve"/>
      <point x="490" y="123" type="line"/>
      <point x="504" y="123" type="line"/>
      <point x="504" y="86" type="line"/>
      <point x="504" y="70"/>
      <point x="501" y="39"/>
      <point x="480" y="15"/>
      <point x="432" y="0"/>
      <point x="386" y="0" type="qcurve"/>
      <point x="44" y="0" type="line"/>
      <point x="44" y="14" type="line"/>
      <point x="88" y="14" type="line"/>
      <point x="106" y="14"/>
      <point x="127" y="29"/>
      <point x="137" y="63"/>
      <point x="140" y="121"/>
      <point x="140" y="164" type="qcurve"/>
      <point x="140" y="311" type="line"/>
      <point x="75" y="311" type="line"/>
      <point x="75" y="325" type="line"/>
      <point x="140" y="325" type="line"/>
      <point x="140" y="500" type="line"/>
      <point x="140" y="570"/>
      <point x="227" y="634"/>
      <point x="299" y="634" type="qcurve"/>
      <point x="366" y="634"/>
      <point x="435" y="585"/>
      <point x="455" y="545" type="qcurve"/>
      <point x="445" y="539" type="line"/>
      <point x="432" y="563"/>
      <point x="406" y="594"/>
      <point x="372" y="612"/>
      <point x="329" y="620"/>
      <point x="299" y="620" type="qcurve"/>
      <point x="257" y="620"/>
      <point x="201" y="601"/>
      <point x="168" y="569"/>
      <point x="154" y="527"/>
      <point x="154" y="504" type="qcurve"/>
      <point x="154" y="325" type="line"/>
      <point x="283" y="325" type="line"/>
      <point x="283" y="311" type="line"/>
      <point x="154" y="311" type="line"/>
      <point x="154" y="109" type="line"/>
      <point x="154" y="80"/>
      <point x="145" y="28"/>
    </contour>
  </outline>
</glyph>
<glyph name="currency" format="1">
  <advance width="460"/>
  <unicode hex="00A4"/>
  <outline>
    <contour>
      <point x="98" y="361" type="qcurve"/>
      <point x="98" y="386"/>
      <point x="115" y="430"/>
      <point x="130" y="448" type="qcurve"/>
      <point x="92" y="486" type="line"/>
      <point x="102" y="496" type="line"/>
      <point x="140" y="458" type="line"/>
      <point x="157" y="475"/>
      <point x="204" y="494"/>
      <point x="230" y="494" type="qcurve"/>
      <point x="256" y="494"/>
      <point x="303" y="474"/>
      <point x="320" y="457" type="qcurve"/>
      <point x="358" y="495" type="line"/>
      <point x="368" y="485" type="line"/>
      <point x="330" y="447" type="line"/>
      <point x="345" y="430"/>
      <point x="362" y="386"/>
      <point x="362" y="361" type="qcurve"/>
      <point x="362" y="335"/>
      <point x="343" y="289"/>
      <point x="327" y="271" type="qcurve"/>
      <point x="368" y="230" type="line"/>
      <point x="358" y="220" type="line"/>
      <point x="317" y="261" type="line"/>
      <point x="281" y="228"/>
      <point x="230" y="228" type="qcurve"/>
      <point x="205" y="228"/>
      <point x="160" y="245"/>
      <point x="143" y="260" type="qcurve"/>
      <point x="102" y="219" type="line"/>
      <point x="92" y="229" type="line"/>
      <point x="133" y="270" type="line"/>
      <point x="98" y="308"/>
    </contour>
    <contour>
      <point x="112" y="361" type="qcurve"/>
      <point x="112" y="336"/>
      <point x="131" y="293"/>
      <point x="163" y="261"/>
      <point x="206" y="242"/>
      <point x="230" y="242" type="qcurve"/>
      <point x="254" y="242"/>
      <point x="297" y="261"/>
      <point x="329" y="293"/>
      <point x="348" y="336"/>
      <point x="348" y="361" type="qcurve"/>
      <point x="348" y="386"/>
      <point x="329" y="429"/>
      <point x="297" y="461"/>
      <point x="254" y="480"/>
      <point x="230" y="480" type="qcurve"/>
      <point x="206" y="480"/>
      <point x="163" y="461"/>
      <point x="131" y="429"/>
      <point x="112" y="386"/>
    </contour>
  </outline>
</glyph>
<glyph name="section" format="1">
  <advance width="357"/>
  <unicode hex="00A7"/>
  <outline>
    <contour>
      <point x="170" y="154" type="qcurve"/>
      <point x="83" y="304" type="line"/>
      <point x="71" y="324"/>
      <point x="65" y="369"/>
      <point x="76" y="411"/>
      <point x="102" y="447"/>
      <point x="122" y="459" type="qcurve"/>
      <point x="149" y="474"/>
      <point x="209" y="471"/>
      <point x="235" y="456" type="qcurve"/>
      <point x="218" y="483"/>
      <point x="188" y="538"/>
      <point x="172" y="566" type="qcurve"/>
      <point x="144" y="615"/>
      <point x="138" y="665"/>
      <point x="148" y="681" type="qcurve"/>
      <point x="158" y="697"/>
      <point x="203" y="721"/>
      <point x="220" y="730" type="qcurve"/>
      <point x="227" y="718" type="line"/>
      <point x="177" y="689" type="line"/>
      <point x="151" y="674"/>
      <point x="158" y="618"/>
      <point x="188" y="566" type="qcurve"/>
      <point x="275" y="415" type="line"/>
      <point x="287" y="395"/>
      <point x="292" y="351"/>
      <point x="281" y="309"/>
      <point x="255" y="274"/>
      <point x="235" y="262" type="qcurve"/>
      <point x="208" y="246"/>
      <point x="148" y="248"/>
      <point x="122" y="264" type="qcurve"/>
      <point x="186" y="154" type="line"/>
      <point x="200" y="130"/>
      <point x="214" y="93"/>
      <point x="219" y="66"/>
      <point x="214" y="47"/>
      <point x="210" y="39" type="qcurve"/>
      <point x="200" y="22"/>
      <point x="155" y="-2"/>
      <point x="138" y="-10" type="qcurve"/>
      <point x="131" y="2" type="line"/>
      <point x="181" y="31" type="line"/>
      <point x="207" y="46"/>
      <point x="200" y="102"/>
    </contour>
    <contour>
      <point x="95" y="311" type="qcurve"/>
      <point x="110" y="284"/>
      <point x="163" y="260"/>
      <point x="192" y="262" type="qcurve"/>
      <point x="213" y="264"/>
      <point x="246" y="285"/>
      <point x="268" y="315"/>
      <point x="279" y="353"/>
      <point x="276" y="371" type="qcurve"/>
      <point x="273" y="393"/>
      <point x="252" y="427"/>
      <point x="221" y="450"/>
      <point x="184" y="460"/>
      <point x="166" y="459" type="qcurve"/>
      <point x="137" y="456"/>
      <point x="99" y="425"/>
      <point x="80" y="382"/>
      <point x="83" y="332"/>
    </contour>
  </outline>
</glyph>
<glyph name="guillemotleft" format="1">
  <advance width="457"/>
  <unicode hex="00AB"/>
  <outline>
    <contour>
      <point x="392" y="77" type="line"/>
      <point x="221" y="239" type="line"/>
      <point x="392" y="400" type="line"/>
      <point x="392" y="383" type="line"/>
      <point x="250" y="239" type="line"/>
      <point x="392" y="93" type="line"/>
    </contour>
    <contour>
      <point x="221" y="77" type="line"/>
      <point x="50" y="239" type="line"/>
      <point x="221" y="400" type="line"/>
      <point x="221" y="383" type="line"/>
      <point x="79" y="239" type="line"/>
      <point x="221" y="93" type="line"/>
    </contour>
  </outline>
</glyph>
<glyph name="registered" format="1">
  <advance width="664"/>
  <unicode hex="00AE"/>
  <outline>
    <contour>
      <point x="332" y="118" type="qcurve"/>
      <point x="278" y="118"/>
      <point x="185" y="156"/>
      <point x="116" y="224"/>
      <point x="77" y="317"/>
      <point x="77" y="372" type="qcurve"/>
      <point x="77" y="427"/>
      <point x="116" y="521"/>
      <point x="185" y="589"/>
      <point x="278" y="627"/>
      <point x="332" y="627" type="qcurve"/>
      <point x="386" y="627"/>
      <point x="479" y="589"/>
      <point x="548" y="521"/>
      <point x="587" y="427"/>
      <point x="587" y="372" type="qcurve"/>
      <point x="587" y="317"/>
      <point x="548" y="224"/>
      <point x="479" y="156"/>
      <point x="386" y="118"/>
    </contour>
    <contour>
      <point x="331" y="132" type="qcurve"/>
      <point x="381" y="132"/>
      <point x="469" y="168"/>
      <point x="535" y="233"/>
      <point x="573" y="320"/>
      <point x="573" y="371" type="qcurve"/>
      <point x="573" y="423"/>
      <point x="535" y="512"/>
      <point x="469" y="577"/>
      <point x="381" y="613"/>
      <point x="331" y="613" type="qcurve"/>
      <point x="282" y="613"/>
      <point x="195" y="577"/>
      <point x="129" y="512"/>
      <point x="91" y="423"/>
      <point x="91" y="371" type="qcurve"/>
      <point x="91" y="320"/>
      <point x="129" y="233"/>
      <point x="195" y="168"/>
      <point x="282" y="132"/>
    </contour>
    <contour>
      <point x="290" y="220" type="line"/>
      <point x="290" y="214" type="line"/>
      <point x="211" y="214" type="line"/>
      <point x="211" y="220" type="line"/>
      <point x="246" y="220" type="line"/>
      <point x="246" y="528" type="line"/>
      <point x="211" y="528" type="line"/>
      <point x="211" y="534" type="line"/>
      <point x="310" y="534" type="line"/>
      <point x="323" y="534"/>
      <point x="355" y="525"/>
      <point x="382" y="506"/>
      <point x="401" y="474"/>
      <point x="401" y="450" type="qcurve"/>
      <point x="401" y="423"/>
      <point x="373" y="377"/>
      <point x="343" y="367" type="qcurve"/>
      <point x="431" y="220" type="line"/>
      <point x="462" y="220" type="line"/>
      <point x="462" y="214" type="line"/>
      <point x="427" y="214" type="line"/>
      <point x="337" y="365" type="line"/>
      <point x="329" y="363"/>
      <point x="312" y="361"/>
      <point x="303" y="361" type="qcurve"/>
      <point x="252" y="361" type="line"/>
      <point x="252" y="220" type="line"/>
    </contour>
    <contour>
      <point x="252" y="367" type="line"/>
      <point x="305" y="367" type="line"/>
      <point x="331" y="367"/>
      <point x="366" y="385"/>
      <point x="387" y="410"/>
      <point x="395" y="440"/>
      <point x="395" y="452" type="qcurve"/>
      <point x="395" y="486"/>
      <point x="343" y="528"/>
      <point x="305" y="528" type="qcurve"/>
      <point x="252" y="528" type="line"/>
    </contour>
  </outline>
</glyph>
<glyph name="plusminus" format="1">
  <advance width="566"/>
  <unicode hex="00B1"/>
  <outline>
    <contour>
      <point x="276" y="211" type="line"/>
      <point x="276" y="385" type="line"/>
      <point x="103" y="385" type="line"/>
      <point x="103" y="399" type="line"/>
      <point x="276" y="399" type="line"/>
      <point x="276" y="571" type="line"/>
      <point x="290" y="571" type="line"/>
      <point x="290" y="399" type="line"/>
      <point x="463" y="399" type="line"/>
      <point x="463" y="385" type="line"/>
      <point x="290" y="385" type="line"/>
      <point x="290" y="211" type="line"/>
    </contour>
    <contour>
      <point x="463" y="136" type="line"/>
      <point x="103" y="136" type="line"/>
      <point x="103" y="150" type="line"/>
      <point x="463" y="150" type="line"/>
    </contour>
  </outline>
</glyph>
<glyph name="threesuperior" format="1">
  <advance width="305"/>
  <unicode hex="00B3"/>
  <outline>
    <contour>
      <point x="75" y="663" type="line"/>
      <point x="75" y="700" type="line"/>
      <point x="232" y="700" type="line"/>
      <point x="134" y="576" type="line"/>
      <point x="156" y="577"/>
      <point x="196" y="563"/>
      <point x="226" y="536"/>
      <point x="244" y="498"/>
      <point x="244" y="476" type="qcurve"/>
      <point x="244" y="455"/>
      <point x="228" y="419"/>
      <point x="200" y="392"/>
      <point x="164" y="376"/>
      <point x="143" y="376" type="qcurve"/>
      <point x="121" y="376"/>
      <point x="84" y="394"/>
      <point x="70" y="409" type="qcurve"/>
      <point x="71" y="411"/>
      <point x="75" y="415" type="qcurve"/>
      <point x="87" y="401"/>
      <point x="122" y="383"/>
      <point x="142" y="383" type="qcurve"/>
      <point x="161" y="383"/>
      <point x="196" y="398"/>
      <point x="222" y="423"/>
      <point x="237" y="457"/>
      <point x="237" y="476" type="qcurve"/>
      <point x="237" y="495"/>
      <point x="222" y="529"/>
      <point x="196" y="555"/>
      <point x="161" y="569"/>
      <point x="142" y="569" type="qcurve"/>
      <point x="126" y="569"/>
      <point x="112" y="558" type="qcurve"/>
      <point x="216" y="693" type="line"/>
      <point x="82" y="693" type="line"/>
      <point x="82" y="663" type="line"/>
    </contour>
  </outline>
</glyph>
<glyph name="paragraph" format="1">
  <advance width="505"/>
  <unicode hex="00B6"/>
  <outline>
    <contour>
      <point x="219" y="0" type="line"/>
      <point x="205" y="0" type="line"/>
      <point x="205" y="423" type="line"/>
      <point x="171" y="423"/>
      <point x="111" y="448"/>
      <point x="67" y="492"/>
      <point x="42" y="552"/>
      <point x="42" y="586" type="qcurve"/>
      <point x="42" y="620"/>
      <point x="67" y="680"/>
      <point x="111" y="724"/>
      <point x="171" y="750"/>
      <point x="205" y="750" type="qcurve"/>
      <point x="382" y="750" type="line"/>
      <point x="382" y="0" type="line"/>
      <point x="368" y="0" type="line"/>
      <point x="368" y="736" type="line"/>
      <point x="219" y="736" type="line"/>
    </contour>
  </outline>
</glyph>
<glyph name="cedilla" format="1">
  <advance width="452"/>
  <unicode hex="00B8"/>
  <outline>
    <contour>
      <point x="193" y="0" type="line"/>
      <point x="207" y="0" type="line"/>
      <point x="207" y="-6" type="line"/>
      <point x="207" y="-32"/>
      <point x="235" y="-53"/>
      <point x="248" y="-61" type="qcurve"/>
      <point x="271" y="-76"/>
      <point x="290" y="-113"/>
      <point x="290" y="-127" type="qcurve"/>
      <point x="290" y="-178"/>
      <point x="239" y="-223"/>
      <point x="206" y="-223" type="qcurve"/>
      <point x="180" y="-223"/>
      <point x="135" y="-194"/>
      <point x="125" y="-165" type="qcurve"/>
      <point x="140" y="-161" type="line"/>
      <point x="146" y="-182"/>
      <point x="181" y="-209"/>
      <point x="206" y="-209" type="qcurve"/>
      <point x="237" y="-209"/>
      <point x="276" y="-168"/>
      <point x="276" y="-137" type="qcurve"/>
      <point x="276" y="-109"/>
      <point x="250" y="-79"/>
      <point x="219" y="-58"/>
      <point x="193" y="-36"/>
      <point x="193" y="-16" type="qcurve"/>
    </contour>
  </outline>
</glyph>
<glyph name="ordmasculine" format="1">
  <advance width="401"/>
  <unicode hex="00BA"/>
  <outline>
    <contour>
      <point x="60" y="442" type="qcurve"/>
      <point x="60" y="471"/>
      <point x="82" y="522"/>
      <point x="120" y="561"/>
      <point x="171" y="583"/>
      <point x="200" y="583" type="qcurve"/>
      <point x="229" y="583"/>
      <point x="281" y="561"/>
      <point x="319" y="522"/>
      <point x="341" y="471"/>
      <point x="341" y="442" type="qcurve"/>
      <point x="341" y="413"/>
      <point x="319" y="362"/>
      <point x="281" y="324"/>
      <point x="229" y="302"/>
      <point x="200" y="302" type="qcurve"/>
      <point x="171" y="302"/>
      <point x="120" y="324"/>
      <point x="82" y="362"/>
      <point x="60" y="413"/>
    </contour>
    <contour>
      <point x="70" y="442" type="qcurve"/>
      <point x="70" y="415"/>
      <point x="90" y="367"/>
      <point x="126" y="332"/>
      <point x="173" y="312"/>
      <point x="200" y="312" type="qcurve"/>
      <point x="227" y="312"/>
      <point x="274" y="332"/>
      <point x="310" y="367"/>
      <point x="330" y="415"/>
      <point x="330" y="442" type="qcurve"/>
      <point x="330" y="469"/>
      <point x="310" y="516"/>
      <point x="274" y="552"/>
      <point x="227" y="572"/>
      <point x="200" y="572" type="qcurve"/>
      <point x="173" y="572"/>
      <point x="126" y="552"/>
      <point x="90" y="516"/>
      <point x="70" y="469"/>
    </contour>
  </outline>
</glyph>
<glyph name="onequarter" format="1">
  <advance width="791"/>
  <unicode hex="00BC"/>
  <outline>
    <contour>
      <point x="734" y="10" type="line"/>
      <point x="734" y="0" type="line"/>
      <point x="604" y="0" type="line"/>
      <point x="604" y="10" type="line"/>
      <point x="663" y="10" type="line"/>
      <point x="663" y="136" type="line"/>
      <point x="401" y="136" type="line"/>
      <point x="470" y="225"/>
      <point x="605" y="401"/>
      <point x="673" y="490" type="qcurve"/>
      <point x="673" y="147" type="line"/>
      <point x="745" y="147" type="line"/>
      <point x="745" y="136" type="line"/>
      <point x="673" y="136" type="line"/>
      <point x="673" y="10" type="line"/>
    </contour>
    <contour>
      <point x="663" y="459" type="line"/>
      <point x="603" y="381"/>
      <point x="484" y="225"/>
      <point x="424" y="147" type="qcurve"/>
      <point x="663" y="147" type="line"/>
    </contour>
    <contour>
      <point x="195" y="-19" type="line"/>
      <point x="473" y="735" type="line"/>
      <point x="487" y="735" type="line"/>
      <point x="209" y="-19" type="line"/>
    </contour>
    <contour>
      <point x="38" y="685" type="line"/>
      <point x="38" y="695" type="line"/>
      <point x="128" y="695" type="line"/>
      <point x="128" y="234" type="line"/>
      <point x="118" y="234" type="line"/>
      <point x="118" y="685" type="line"/>
    </contour>
  </outline>
</glyph>
<glyph name="onehalf" format="1">
  <advance width="837"/>
  <unicode hex="00BD"/>
  <outline>
    <contour>
      <point x="532" y="10" type="qcurve"/>
      <point x="776" y="10" type="line"/>
      <point x="776" y="105" type="line"/>
      <point x="786" y="105" type="line"/>
      <point x="786" y="0" type="line"/>
      <point x="506" y="0" type="line"/>
      <point x="552" y="44"/>
      <point x="638" y="129"/>
      <point x="704" y="210"/>
      <point x="744" y="286"/>
      <point x="744" y="319" type="qcurve"/>
      <point x="744" y="359"/>
      <point x="722" y="411"/>
      <point x="688" y="442"/>
      <point x="648" y="455"/>
      <point x="630" y="455" type="qcurve"/>
      <point x="595" y="455"/>
      <point x="550" y="430"/>
      <point x="524" y="393"/>
      <point x="514" y="349"/>
      <point x="514" y="331" type="qcurve"/>
      <point x="514" y="282"/>
      <point x="543" y="251" type="qcurve"/>
      <point x="536" y="245" type="line"/>
      <point x="521" y="262"/>
      <point x="504" y="302"/>
      <point x="504" y="331" type="qcurve"/>
      <point x="504" y="388"/>
      <point x="569" y="465"/>
      <point x="630" y="465" type="qcurve"/>
      <point x="686" y="465"/>
      <point x="754" y="388"/>
      <point x="754" y="328" type="qcurve"/>
      <point x="754" y="287"/>
      <point x="712" y="206"/>
      <point x="647" y="126"/>
      <point x="569" y="48"/>
    </contour>
    <contour>
      <point x="211" y="-19" type="line"/>
      <point x="489" y="735" type="line"/>
      <point x="503" y="735" type="line"/>
      <point x="225" y="-19" type="line"/>
    </contour>
    <contour>
      <point x="37" y="685" type="line"/>
      <point x="37" y="695" type="line"/>
      <point x="127" y="695" type="line"/>
      <point x="127" y="234" type="line"/>
      <point x="117" y="234" type="line"/>
      <point x="117" y="685" type="line"/>
    </contour>
  </outline>
</glyph>
<glyph name="questiondown" format="1">
  <advance width="482"/>
  <unicode hex="00BF"/>
  <outline>
    <contour>
      <point x="430" y="-57" type="qcurve"/>
      <point x="443" y="-60" type="line"/>
      <point x="423" y="-118"/>
      <point x="323" y="-193"/>
      <point x="258" y="-193" type="qcurve"/>
      <point x="217" y="-193"/>
      <point x="145" y="-162"/>
      <point x="92" y="-109"/>
      <point x="62" y="-38"/>
      <point x="62" y="2" type="qcurve"/>
      <point x="62" y="56"/>
      <point x="115" y="137"/>
      <point x="160" y="169" type="qcurve"/>
      <point x="179" y="183"/>
      <point x="213" y="202"/>
      <point x="238" y="226"/>
      <point x="252" y="264"/>
      <point x="252" y="297" type="qcurve"/>
      <point x="252" y="375" type="line"/>
      <point x="266" y="375" type="line"/>
      <point x="266" y="278" type="line"/>
      <point x="266" y="247"/>
      <point x="243" y="210"/>
      <point x="206" y="181"/>
      <point x="159" y="152"/>
      <point x="135" y="131" type="qcurve"/>
      <point x="104" y="104"/>
      <point x="76" y="39"/>
      <point x="76" y="2" type="qcurve"/>
      <point x="76" y="-37"/>
      <point x="104" y="-103"/>
      <point x="153" y="-152"/>
      <point x="220" y="-179"/>
      <point x="258" y="-179" type="qcurve"/>
      <point x="288" y="-179"/>
      <point x="342" y="-161"/>
      <point x="388" y="-129"/>
      <point x="421" y="-84"/>
    </contour>
    <contour>
      <point x="259" y="514" type="qcurve"/>
      <point x="266" y="514"/>
      <point x="278" y="502"/>
      <point x="278" y="494" type="qcurve"/>
      <point x="278" y="485"/>
      <point x="266" y="474"/>
      <point x="259" y="474" type="qcurve"/>
      <point x="251" y="474"/>
      <point x="239" y="485"/>
      <point x="239" y="494" type="qcurve"/>
      <point x="239" y="502"/>
      <point x="251" y="514"/>
    </contour>
  </outline>
</glyph>
<glyph name="Acircumflex" format="1">
  <advance width="718"/>
  <unicode hex="00C2"/>
  <outline>
    <contour>
      <point x="2" y="14" type="line"/>
      <point x="2" y="0" type="line"/>
      <point x="176" y="0" type="line"/>
      <point x="176" y="14" type="line"/>
      <point x="89" y="14" type="line"/>
      <point x="209" y="318" type="line"/>
      <point x="508" y="318" type="line"/>
      <point x="628" y="14" type="line"/>
      <point x="546" y="14" type="line"/>
      <point x="546" y="0" type="line"/>
      <point x="720" y="0" type="line"/>
      <point x="720" y="14" type="line"/>
      <point x="643" y="14" type="line"/>
      <point x="359" y="732" type="line"/>
      <point x="74" y="14" type="line"/>
    </contour>
    <contour>
      <point x="350" y="675" type="line"/>
      <point x="351" y="680"/>
      <point x="353" y="684" type="qcurve"/>
      <point x="355" y="688"/>
      <point x="357" y="697"/>
      <point x="359" y="700" type="qcurve"/>
      <point x="360" y="697"/>
      <point x="363" y="688"/>
      <point x="365" y="684" type="qcurve"/>
      <point x="367" y="680"/>
      <point x="368" y="675" type="qcurve"/>
      <point x="503" y="332" type="line"/>
      <point x="215" y="332" type="line"/>
    </contour>
    <contour>
      <point x="358" y="853" type="line"/>
      <point x="478" y="732" type="line"/>
      <point x="462" y="732" type="line"/>
      <point x="358" y="826" type="line"/>
      <point x="254" y="732" type="line"/>
      <point x="238" y="732" type="line"/>
    </contour>
  </outline>
</glyph>
<glyph name="Atilde" format="1">
  <advance width="718"/>
  <unicode hex="00C3"/>
  <outline>
    <contour>
      <point x="2" y="14" type="line"/>
      <point x="2" y="0" type="line"/>
      <point x="176" y="0" type="line"/>
      <point x="176" y="14" type="line"/>
      <point x="89" y="14" type="line"/>
      <point x="209" y="318" type="line"/>
      <point x="508" y="318" type="line"/>
      <point x="628" y="14" type="line"/>
      <point x="546" y="14" type="line"/>
      <point x="546" y="0" type="line"/>
      <point x="720" y="0" type="line"/>
      <point x="720" y="14" type="line"/>
      <point x="643" y="14" type="line"/>
      <point x="359" y="732" type="line"/>
      <point x="74" y="14" type="line"/>
    </contour>
    <contour>
      <point x="350" y="675" type="line"/>
      <point x="351" y="680"/>
      <point x="353" y="684" type="qcurve"/>
      <point x="355" y="688"/>
      <point x="357" y="697"/>
      <point x="359" y="700" type="qcurve"/>
      <point x="360" y="697"/>
      <point x="363" y="688"/>
      <point x="365" y="684" type="qcurve"/>
      <point x="367" y="680"/>
      <point x="368" y="675" type="qcurve"/>
      <point x="503" y="332" type="line"/>
      <point x="215" y="332" type="line"/>
    </contour>
    <contour>
      <point x="349" y="777" type="qcurve"/>
      <point x="333" y="795"/>
      <point x="309" y="807"/>
      <point x="295" y="807" type="qcurve"/>
      <point x="287" y="807"/>
      <point x="266" y="802"/>
      <point x="246" y="790"/>
      <point x="231" y="769"/>
      <point x="229" y="752" type="qcurve"/>
      <point x="216" y="754" type="line"/>
      <point x="217" y="772"/>
      <point x="233" y="798"/>
      <point x="256" y="814"/>
      <point x="284" y="821"/>
      <point x="298" y="821" type="qcurve"/>
      <point x="318" y="821"/>
      <point x="351" y="800"/>
      <point x="367" y="783" type="qcurve"/>
      <point x="383" y="765"/>
      <point x="407" y="753"/>
      <point x="421" y="753" type="qcurve"/>
      <point x="429" y="753"/>
      <point x="450" y="758"/>
      <point x="470" y="770"/>
      <point x="485" y="791"/>
      <point x="487" y="808" type="qcurve"/>
      <point x="500" y="806" type="line"/>
      <point x="499" y="788"/>
      <point x="483" y="762"/>
      <point x="460" y="746"/>
      <point x="432" y="739"/>
      <point x="418" y="739" type="qcurve"/>
      <point x="398" y="739"/>
      <point x="365" y="760"/>
    </contour>
  </outline>
</glyph>
<glyph name="Adieresis" format="1">
  <advance width="717"/>
  <unicode hex="00C4"/>
  <outline>
    <contour>
      <point x="2" y="14" type="line"/>
      <point x="2" y="0" type="line"/>
      <point x="176" y="0" type="line"/>
      <point x="176" y="14" type="line"/>
      <point x="89" y="14" type="line"/>
      <point x="209" y="318" type="line"/>
      <point x="508" y="318" type="line"/>
      <point x="628" y="14" type="line"/>
      <point x="546" y="14" type="line"/>
      <point x="546" y="0" type="line"/>
      <point x="720" y="0" type="line"/>
      <point x="720" y="14" type="line"/>
      <point x="643" y="14" type="line"/>
      <point x="359" y="732" type="line"/>
      <point x="74" y="14" type="line"/>
    </contour>
    <contour>
      <point x="350" y="675" type="line"/>
      <point x="351" y="680"/>
      <point x="353" y="684" type="qcurve"/>
      <point x="355" y="688"/>
      <point x="357" y="697"/>
      <point x="359" y="700" type="qcurve"/>
      <point x="360" y="697"/>
      <point x="363" y="688"/>
      <point x="365" y="684" type="qcurve"/>
      <point x="367" y="680"/>
      <point x="368" y="675" type="qcurve"/>
      <point x="503" y="332" type="line"/>
      <point x="215" y="332" type="line"/>
    </contour>
    <contour>
      <point x="256" y="790" type="qcurve"/>
      <point x="256" y="798"/>
      <point x="268" y="810"/>
      <point x="276" y="810" type="qcurve"/>
      <point x="284" y="810"/>
      <point x="296" y="798"/>
      <point x="296" y="790" type="qcurve"/>
      <point x="296" y="782"/>
      <point x="284" y="770"/>
      <point x="276" y="770" type="qcurve"/>
      <point x="268" y="770"/>
      <point x="256" y="782"/>
    </contour>
    <contour>
      <point x="421" y="790" type="qcurve"/>
      <point x="421" y="798"/>
      <point x="433" y="810"/>
      <point x="441" y="810" type="qcurve"/>
      <point x="449" y="810"/>
      <point x="461" y="798"/>
      <point x="461" y="790" type="qcurve"/>
      <point x="461" y="782"/>
      <point x="449" y="770"/>
      <point x="441" y="770" type="qcurve"/>
      <point x="433" y="770"/>
      <point x="421" y="782"/>
    </contour>
  </outline>
</glyph>
<glyph name="Icircumflex" format="1">
  <advance width="294"/>
  <unicode hex="00CE"/>
  <outline>
    <contour>
      <point x="237" y="700" type="line"/>
      <point x="237" y="686" type="line"/>
      <point x="154" y="686" type="line"/>
      <point x="154" y="14" type="line"/>
      <point x="237" y="14" type="line"/>
      <point x="237" y="0" type="line"/>
      <point x="63" y="0" type="line"/>
      <point x="63" y="14" type="line"/>
      <point x="140" y="14" type="line"/>
      <point x="140" y="686" type="line"/>
      <point x="63" y="686" type="line"/>
      <point x="63" y="700" type="line"/>
    </contour>
    <contour>
      <point x="147" y="856" type="line"/>
      <point x="267" y="735" type="line"/>
      <point x="251" y="735" type="line"/>
      <point x="147" y="829" type="line"/>
      <point x="43" y="735" type="line"/>
      <point x="27" y="735" type="line"/>
    </contour>
  </outline>
</glyph>
<glyph name="Otilde" format="1">
  <advance width="838"/>
  <unicode hex="00D5"/>
  <outline>
    <contour>
      <point x="61" y="349" type="qcurve"/>
      <point x="61" y="423"/>
      <point x="117" y="554"/>
      <point x="214" y="651"/>
      <point x="344" y="708"/>
      <point x="418" y="708" type="qcurve"/>
      <point x="492" y="708"/>
      <point x="623" y="651"/>
      <point x="720" y="554"/>
      <point x="777" y="423"/>
      <point x="777" y="349" type="qcurve"/>
      <point x="777" y="275"/>
      <point x="720" y="145"/>
      <point x="623" y="48"/>
      <point x="492" y="-8"/>
      <point x="418" y="-8" type="qcurve"/>
      <point x="344" y="-8"/>
      <point x="214" y="48"/>
      <point x="117" y="145"/>
      <point x="61" y="275"/>
    </contour>
    <contour>
      <point x="75" y="348" type="qcurve"/>
      <point x="75" y="277"/>
      <point x="129" y="153"/>
      <point x="221" y="60"/>
      <point x="345" y="6"/>
      <point x="415" y="6" type="qcurve"/>
      <point x="486" y="6"/>
      <point x="613" y="60"/>
      <point x="708" y="153"/>
      <point x="763" y="278"/>
      <point x="763" y="349" type="qcurve"/>
      <point x="763" y="420"/>
      <point x="708" y="545"/>
      <point x="614" y="639"/>
      <point x="489" y="694"/>
      <point x="418" y="694" type="qcurve"/>
      <point x="347" y="694"/>
      <point x="222" y="639"/>
      <point x="129" y="545"/>
      <point x="75" y="419"/>
    </contour>
    <contour>
      <point x="416" y="783" type="qcurve"/>
      <point x="400" y="801"/>
      <point x="376" y="813"/>
      <point x="362" y="813" type="qcurve"/>
      <point x="354" y="813"/>
      <point x="333" y="808"/>
      <point x="313" y="796"/>
      <point x="298" y="775"/>
      <point x="296" y="758" type="qcurve"/>
      <point x="283" y="760" type="line"/>
      <point x="284" y="778"/>
      <point x="300" y="804"/>
      <point x="323" y="820"/>
      <point x="351" y="827"/>
      <point x="365" y="827" type="qcurve"/>
      <point x="385" y="827"/>
      <point x="418" y="806"/>
      <point x="434" y="789" type="qcurve"/>
      <point x="450" y="771"/>
      <point x="474" y="759"/>
      <point x="488" y="759" type="qcurve"/>
      <point x="496" y="759"/>
      <point x="517" y="764"/>
      <point x="537" y="776"/>
      <point x="552" y="797"/>
      <point x="554" y="814" type="qcurve"/>
      <point x="567" y="812" type="line"/>
      <point x="566" y="794"/>
      <point x="550" y="768"/>
      <point x="527" y="752"/>
      <point x="499" y="745"/>
      <point x="485" y="745" type="qcurve"/>
      <point x="465" y="745"/>
      <point x="432" y="766"/>
    </contour>
  </outline>
</glyph>
<glyph name="Odieresis" format="1">
  <advance width="838"/>
  <unicode hex="00D6"/>
  <outline>
    <contour>
      <point x="61" y="349" type="qcurve"/>
      <point x="61" y="423"/>
      <point x="117" y="554"/>
      <point x="214" y="651"/>
      <point x="344" y="708"/>
      <point x="418" y="708" type="qcurve"/>
      <point x="492" y="708"/>
      <point x="623" y="651"/>
      <point x="720" y="554"/>
      <point x="777" y="423"/>
      <point x="777" y="349" type="qcurve"/>
      <point x="777" y="275"/>
      <point x="720" y="145"/>
      <point x="623" y="48"/>
      <point x="492" y="-8"/>
      <point x="418" y="-8" type="qcurve"/>
      <point x="344" y="-8"/>
      <point x="214" y="48"/>
      <point x="117" y="145"/>
      <point x="61" y="275"/>
    </contour>
    <contour>
      <point x="75" y="348" type="qcurve"/>
      <point x="75" y="277"/>
      <point x="129" y="153"/>
      <point x="221" y="60"/>
      <point x="345" y="6"/>
      <point x="415" y="6" type="qcurve"/>
      <point x="486" y="6"/>
      <point x="613" y="60"/>
      <point x="708" y="153"/>
      <point x="763" y="278"/>
      <point x="763" y="349" type="qcurve"/>
      <point x="763" y="420"/>
      <point x="708" y="545"/>
      <point x="614" y="639"/>
      <point x="489" y="694"/>
      <point x="418" y="694" type="qcurve"/>
      <point x="347" y="694"/>
      <point x="222" y="639"/>
      <point x="129" y="545"/>
      <point x="75" y="419"/>
    </contour>
    <contour>
      <point x="483" y="764" type="qcurve"/>
      <point x="483" y="772"/>
      <point x="495" y="784"/>
      <point x="503" y="784" type="qcurve"/>
      <point x="511" y="784"/>
      <point x="523" y="772"/>
      <point x="523" y="764" type="qcurve"/>
      <point x="523" y="756"/>
      <point x="511" y="744"/>
      <point x="503" y="744" type="qcurve"/>
      <point x="495" y="744"/>
      <point x="483" y="756"/>
    </contour>
    <contour>
      <point x="318" y="764" type="qcurve"/>
      <point x="318" y="772"/>
      <point x="330" y="784"/>
      <point x="338" y="784" type="qcurve"/>
      <point x="346" y="784"/>
      <point x="358" y="772"/>
      <point x="358" y="764" type="qcurve"/>
      <point x="358" y="756"/>
      <point x="346" y="744"/>
      <point x="338" y="744" type="qcurve"/>
      <point x="330" y="744"/>
      <point x="318" y="756"/>
    </contour>
  </outline>
</glyph>
<glyph name="Oslash" format="1">
  <advance width="837"/>
  <unicode hex="00D8"/>
  <outline>
    <contour>
      <point x="60" y="349" type="qcurve"/>
      <point x="60" y="423"/>
      <point x="116" y="554"/>
      <point x="213" y="651"/>
      <point x="343" y="708"/>
      <point x="417" y="708" type="qcurve"/>
      <point x="477" y="708"/>
      <point x="584" y="671"/>
      <point x="629" y="638" type="qcurve"/>
      <point x="647" y="659"/>
      <point x="680" y="699"/>
      <point x="694" y="716" type="qcurve"/>
      <point x="702" y="708" type="line"/>
      <point x="638" y="631" type="line"/>
      <point x="701" y="581"/>
      <point x="776" y="435"/>
      <point x="776" y="349" type="qcurve"/>
      <point x="776" y="275"/>
      <point x="719" y="145"/>
      <point x="622" y="48"/>
      <point x="491" y="-8"/>
      <point x="417" y="-8" type="qcurve"/>
      <point x="348" y="-8"/>
      <point x="227" y="40"/>
      <point x="179" y="83" type="qcurve"/>
      <point x="110" y="0" type="line"/>
      <point x="102" y="8" type="line"/>
      <point x="117" y="25"/>
      <point x="151" y="67"/>
      <point x="171" y="90" type="qcurve"/>
      <point x="119" y="139"/>
      <point x="60" y="272"/>
    </contour>
    <contour>
      <point x="187" y="93" type="qcurve"/>
      <point x="233" y="52"/>
      <point x="348" y="6"/>
      <point x="414" y="6" type="qcurve"/>
      <point x="485" y="6"/>
      <point x="612" y="60"/>
      <point x="707" y="153"/>
      <point x="762" y="278"/>
      <point x="762" y="349" type="qcurve"/>
      <point x="762" y="431"/>
      <point x="689" y="572"/>
      <point x="629" y="620" type="qcurve"/>
      <point x="581" y="563"/>
      <point x="467" y="427"/>
      <point x="350" y="287"/>
      <point x="235" y="151"/>
    </contour>
    <contour>
      <point x="74" y="348" type="qcurve"/>
      <point x="74" y="275"/>
      <point x="131" y="148"/>
      <point x="179" y="101" type="qcurve"/>
      <point x="227" y="158"/>
      <point x="341" y="294"/>
      <point x="458" y="434"/>
      <point x="572" y="570"/>
      <point x="620" y="627" type="qcurve"/>
      <point x="577" y="659"/>
      <point x="474" y="694"/>
      <point x="417" y="694" type="qcurve"/>
      <point x="346" y="694"/>
      <point x="221" y="639"/>
      <point x="128" y="545"/>
      <point x="74" y="419"/>
    </contour>
  </outline>
</glyph>
<glyph name="Thorn" format="1">
  <advance width="520"/>
  <unicode hex="00DE"/>
  <outline>
    <contour>
      <point x="153" y="156" type="line"/>
      <point x="153" y="0" type="line"/>
      <point x="63" y="0" type="line"/>
      <point x="63" y="14" type="line"/>
      <point x="139" y="14" type="line"/>
      <point x="139" y="686" type="line"/>
      <point x="63" y="686" type="line"/>
      <point x="63" y="700" type="line"/>
      <point x="153" y="700" type="line"/>
      <point x="153" y="535" type="line"/>
      <point x="279" y="535" type="line"/>
      <point x="308" y="535"/>
      <point x="378" y="516"/>
      <point x="438" y="473"/>
      <point x="479" y="403"/>
      <point x="479" y="351" type="qcurve"/>
      <point x="479" y="313"/>
      <point x="454" y="243"/>
      <point x="402" y="189"/>
      <point x="321" y="156"/>
      <point x="265" y="156" type="qcurve"/>
    </contour>
    <contour>
      <point x="153" y="170" type="line"/>
      <point x="268" y="170" type="line"/>
      <point x="326" y="170"/>
      <point x="402" y="207"/>
      <point x="447" y="262"/>
      <point x="465" y="326"/>
      <point x="465" y="353" type="qcurve"/>
      <point x="465" y="391"/>
      <point x="435" y="453"/>
      <point x="382" y="497"/>
      <point x="311" y="521"/>
      <point x="269" y="521" type="qcurve"/>
      <point x="153" y="521" type="line"/>
    </contour>
  </outline>
</glyph>
<glyph name="germandbls" format="1">
  <advance width="523"/>
  <unicode hex="00DF"/>
  <outline>
    <contour>
      <point x="167" y="22" type="qcurve"/>
      <point x="173" y="33" type="line"/>
      <point x="217" y="5"/>
      <point x="271" y="5" type="qcurve"/>
      <point x="311" y="5"/>
      <point x="381" y="36"/>
      <point x="433" y="88"/>
      <point x="464" y="157"/>
      <point x="464" y="195" type="qcurve"/>
      <point x="464" y="233"/>
      <point x="434" y="300"/>
      <point x="383" y="351"/>
      <point x="313" y="381"/>
      <point x="274" y="381" type="qcurve"/>
      <point x="274" y="396" type="line"/>
      <point x="300" y="396"/>
      <point x="346" y="413"/>
      <point x="380" y="444"/>
      <point x="400" y="488"/>
      <point x="400" y="515" type="qcurve"/>
      <point x="400" y="539"/>
      <point x="383" y="586"/>
      <point x="350" y="622"/>
      <point x="298" y="644"/>
      <point x="264" y="644" type="qcurve"/>
      <point x="184" y="644"/>
      <point x="103" y="527"/>
      <point x="103" y="430" type="qcurve"/>
      <point x="103" y="0" type="line"/>
      <point x="89" y="0" type="line"/>
      <point x="89" y="370" type="line"/>
      <point x="24" y="370" type="line"/>
      <point x="24" y="384" type="line"/>
      <point x="89" y="384" type="line"/>
      <point x="89" y="426" type="line"/>
      <point x="89" y="538"/>
      <point x="178" y="655"/>
      <point x="254" y="658" type="qcurve"/>
      <point x="301" y="657"/>
      <point x="363" y="633"/>
      <point x="399" y="594"/>
      <point x="414" y="545"/>
      <point x="414" y="520" type="qcurve"/>
      <point x="414" y="469"/>
      <point x="364" y="405"/>
      <point x="322" y="389" type="qcurve"/>
      <point x="355" y="381"/>
      <point x="412" y="345"/>
      <point x="454" y="294"/>
      <point x="478" y="231"/>
      <point x="478" y="195" type="qcurve"/>
      <point x="478" y="153"/>
      <point x="445" y="79"/>
      <point x="390" y="24"/>
      <point x="315" y="-8"/>
      <point x="273" y="-8" type="qcurve"/>
      <point x="244" y="-8"/>
      <point x="190" y="8"/>
    </contour>
  </outline>
</glyph>
<glyph name="agrave" format="1">
  <advance width="530"/>
  <unicode hex="00E0"/>
  <outline>
    <contour>
      <point x="434" y="14" type="line"/>
      <point x="514" y="14" type="line"/>
      <point x="514" y="0" type="line"/>
      <point x="420" y="0" type="line"/>
      <point x="420" y="54" type="line"/>
      <point x="420" y="70"/>
      <point x="421" y="101"/>
      <point x="421" y="117" type="qcurve"/>
      <point x="410" y="90"/>
      <point x="374" y="45"/>
      <point x="327" y="12"/>
      <point x="270" y="-6"/>
      <point x="239" y="-6" type="qcurve"/>
      <point x="198" y="-6"/>
      <point x="128" y="24"/>
      <point x="75" y="77"/>
      <point x="45" y="147"/>
      <point x="45" y="188" type="qcurve"/>
      <point x="45" y="228"/>
      <point x="75" y="300"/>
      <point x="128" y="352"/>
      <point x="198" y="383"/>
      <point x="239" y="383" type="qcurve"/>
      <point x="301" y="383"/>
      <point x="398" y="314"/>
      <point x="420" y="260" type="qcurve"/>
      <point x="420" y="289"/>
      <point x="422" y="346"/>
      <point x="424" y="375" type="qcurve"/>
      <point x="434" y="375" type="line"/>
    </contour>
    <contour>
      <point x="58" y="188" type="qcurve"/>
      <point x="58" y="150"/>
      <point x="86" y="85"/>
      <point x="135" y="36"/>
      <point x="200" y="8"/>
      <point x="238" y="8" type="qcurve"/>
      <point x="275" y="8"/>
      <point x="341" y="36"/>
      <point x="391" y="85"/>
      <point x="419" y="150"/>
      <point x="419" y="188" type="qcurve"/>
      <point x="419" y="225"/>
      <point x="391" y="291"/>
      <point x="341" y="341"/>
      <point x="275" y="369"/>
      <point x="238" y="369" type="qcurve"/>
      <point x="200" y="369"/>
      <point x="135" y="341"/>
      <point x="86" y="291"/>
      <point x="58" y="225"/>
    </contour>
    <contour>
      <point x="205" y="612" type="line"/>
      <point x="295" y="479" type="line"/>
      <point x="279" y="479" type="line"/>
      <point x="189" y="612" type="line"/>
    </contour>
  </outline>
</glyph>
<glyph name="atilde" format="1">
  <advance width="530"/>
  <unicode hex="00E3"/>
  <outline>
    <contour>
      <point x="434" y="14" type="line"/>
      <point x="514" y="14" type="line"/>
      <point x="514" y="0" type="line"/>
      <point x="420" y="0" type="line"/>
      <point x="420" y="54" type="line"/>
      <point x="420" y="70"/>
      <point x="421" y="101"/>
      <point x="421" y="117" type="qcurve"/>
      <point x="410" y="90"/>
      <point x="374" y="45"/>
      <point x="327" y="12"/>
      <point x="270" y="-6"/>
      <point x="239" y="-6" type="qcurve"/>
      <point x="198" y="-6"/>
      <point x="128" y="24"/>
      <point x="75" y="77"/>
      <point x="45" y="147"/>
      <point x="45" y="188" type="qcurve"/>
      <point x="45" y="228"/>
      <point x="75" y="300"/>
      <point x="128" y="352"/>
      <point x="198" y="383"/>
      <point x="239" y="383" type="qcurve"/>
      <point x="301" y="383"/>
      <point x="398" y="314"/>
      <point x="420" y="260" type="qcurve"/>
      <point x="420" y="289"/>
      <point x="422" y="346"/>
      <point x="424" y="375" type="qcurve"/>
      <point x="434" y="375" type="line"/>
    </contour>
    <contour>
      <point x="58" y="188" type="qcurve"/>
      <point x="58" y="150"/>
      <point x="86" y="85"/>
      <point x="135" y="36"/>
      <point x="200" y="8"/>
      <point x="238" y="8" type="qcurve"/>
      <point x="275" y="8"/>
      <point x="341" y="36"/>
      <point x="391" y="85"/>
      <point x="419" y="150"/>
      <point x="419" y="188" type="qcurve"/>
      <point x="419" y="225"/>
      <point x="391" y="291"/>
      <point x="341" y="341"/>
      <point x="275" y="369"/>
      <point x="238" y="369" type="qcurve"/>
      <point x="200" y="369"/>
      <point x="135" y="341"/>
      <point x="86" y="291"/>
      <point x="58" y="225"/>
    </contour>
    <contour>
      <point x="268" y="497" type="qcurve"/>
      <point x="252" y="515"/>
      <point x="228" y="527"/>
      <point x="214" y="527" type="qcurve"/>
      <point x="206" y="527"/>
      <point x="185" y="522"/>
      <point x="165" y="510"/>
      <point x="150" y="489"/>
      <point x="148" y="472" type="qcurve"/>
      <point x="135" y="474" type="line"/>
      <point x="136" y="492"/>
      <point x="152" y="518"/>
      <point x="175" y="534"/>
      <point x="203" y="541"/>
      <point x="217" y="541" type="qcurve"/>
      <point x="237" y="541"/>
      <point x="270" y="520"/>
      <point x="286" y="503" type="qcurve"/>
      <point x="302" y="485"/>
      <point x="326" y="473"/>
      <point x="340" y="473" type="qcurve"/>
      <point x="348" y="473"/>
      <point x="369" y="478"/>
      <point x="389" y="490"/>
      <point x="404" y="511"/>
      <point x="406" y="528" type="qcurve"/>
      <point x="419" y="526" type="line"/>
      <point x="418" y="508"/>
      <point x="402" y="482"/>
      <point x="379" y="466"/>
      <point x="351" y="459"/>
      <point x="337" y="459" type="qcurve"/>
      <point x="317" y="459"/>
      <point x="284" y="480"/>
    </contour>
  </outline>
</glyph>
<glyph name="ae" format="1">
  <advance width="621"/>
  <unicode hex="00E6"/>
  <outline>
    <contour>
      <point x="558" y="46" type="line"/>
      <point x="532" y="22"/>
      <point x="463" y="-6"/>
      <point x="424" y="-6" type="qcurve"/>
      <point x="389" y="-6"/>
      <point x="329" y="15"/>
      <point x="304" y="34" type="qcurve"/>
      <point x="285" y="14"/>
      <point x="221" y="-6"/>
      <point x="181" y="-6" type="qcurve"/>
      <point x="111" y="-6"/>
      <point x="43" y="51"/>
      <point x="43" y="96" type="qcurve"/>
      <point x="43" y="123"/>
      <point x="65" y="161"/>
      <point x="100" y="184"/>
      <point x="142" y="195"/>
      <point x="162" y="195" type="qcurve"/>
      <point x="230" y="195" type="line"/>
      <point x="232" y="237"/>
      <point x="265" y="308"/>
      <point x="294" y="334" type="qcurve"/>
      <point x="279" y="350"/>
      <point x="227" y="367"/>
      <point x="185" y="367" type="qcurve"/>
      <point x="136" y="367"/>
      <point x="84" y="347"/>
      <point x="63" y="332" type="qcurve"/>
      <point x="55" y="346" type="line"/>
      <point x="75" y="362"/>
      <point x="142" y="383"/>
      <point x="190" y="383" type="qcurve"/>
      <point x="234" y="383"/>
      <point x="290" y="363"/>
      <point x="306" y="344" type="qcurve"/>
      <point x="331" y="363"/>
      <point x="390" y="384"/>
      <point x="424" y="384" type="qcurve"/>
      <point x="486" y="384"/>
      <point x="571" y="313"/>
      <point x="593" y="259" type="qcurve"/>
      <point x="555" y="244"/>
      <point x="469" y="209"/>
      <point x="381" y="173"/>
      <point x="294" y="138"/>
      <point x="256" y="122" type="qcurve"/>
      <point x="276" y="71"/>
      <point x="366" y="8"/>
      <point x="424" y="8" type="qcurve"/>
      <point x="460" y="8"/>
      <point x="523" y="33"/>
      <point x="547" y="56" type="qcurve"/>
    </contour>
    <contour>
      <point x="574" y="266" type="qcurve"/>
      <point x="553" y="311"/>
      <point x="478" y="369"/>
      <point x="424" y="369" type="qcurve"/>
      <point x="386" y="369"/>
      <point x="321" y="341"/>
      <point x="272" y="291"/>
      <point x="244" y="225"/>
      <point x="244" y="188" type="qcurve"/>
      <point x="244" y="159"/>
      <point x="251" y="135" type="qcurve"/>
      <point x="288" y="150"/>
      <point x="370" y="184"/>
      <point x="454" y="217"/>
      <point x="537" y="251"/>
    </contour>
    <contour>
      <point x="60" y="97" type="qcurve"/>
      <point x="60" y="52"/>
      <point x="132" y="8"/>
      <point x="186" y="8" type="qcurve"/>
      <point x="256" y="8"/>
      <point x="293" y="44" type="qcurve"/>
      <point x="265" y="70"/>
      <point x="232" y="139"/>
      <point x="230" y="181" type="qcurve"/>
      <point x="169" y="181" type="line"/>
      <point x="137" y="181"/>
      <point x="95" y="165"/>
      <point x="70" y="141"/>
      <point x="60" y="111"/>
    </contour>
  </outline>
</glyph>
<glyph name="ccedilla" format="1">
  <advance width="395"/>
  <unicode hex="00E7"/>
  <outline>
    <contour>
      <point x="352" y="47" type="qcurve"/>
      <point x="362" y="37" type="line"/>
      <point x="336" y="17"/>
      <point x="274" y="-6"/>
      <point x="239" y="-6" type="qcurve"/>
      <point x="236" y="-6" type="line"/>
      <point x="236" y="-32"/>
      <point x="264" y="-53"/>
      <point x="277" y="-61" type="qcurve"/>
      <point x="300" y="-76"/>
      <point x="319" y="-113"/>
      <point x="319" y="-127" type="qcurve"/>
      <point x="319" y="-178"/>
      <point x="268" y="-223"/>
      <point x="235" y="-223" type="qcurve"/>
      <point x="209" y="-223"/>
      <point x="164" y="-194"/>
      <point x="154" y="-165" type="qcurve"/>
      <point x="169" y="-161" type="line"/>
      <point x="175" y="-182"/>
      <point x="210" y="-209"/>
      <point x="235" y="-209" type="qcurve"/>
      <point x="266" y="-209"/>
      <point x="305" y="-168"/>
      <point x="305" y="-137" type="qcurve"/>
      <point x="305" y="-109"/>
      <point x="279" y="-79"/>
      <point x="248" y="-58"/>
      <point x="222" y="-36"/>
      <point x="222" y="-16" type="qcurve"/>
      <point x="222" y="-5" type="line"/>
      <point x="184" y="-2"/>
      <point x="120" y="30"/>
      <point x="72" y="82"/>
      <point x="45" y="149"/>
      <point x="45" y="188" type="qcurve"/>
      <point x="45" y="228"/>
      <point x="75" y="300"/>
      <point x="128" y="352"/>
      <point x="198" y="383"/>
      <point x="239" y="383" type="qcurve"/>
      <point x="274" y="383"/>
      <point x="337" y="360"/>
      <point x="362" y="340" type="qcurve"/>
      <point x="352" y="329" type="line"/>
      <point x="329" y="348"/>
      <point x="271" y="369"/>
      <point x="239" y="369" type="qcurve"/>
      <point x="201" y="369"/>
      <point x="136" y="341"/>
      <point x="87" y="291"/>
      <point x="59" y="225"/>
      <point x="59" y="188" type="qcurve"/>
      <point x="59" y="150"/>
      <point x="87" y="85"/>
      <point x="136" y="36"/>
      <point x="201" y="8"/>
      <point x="239" y="8" type="qcurve"/>
      <point x="271" y="8"/>
      <point x="329" y="29"/>
    </contour>
  </outline>
</glyph>
<glyph name="eacute" format="1">
  <advance width="435"/>
  <unicode hex="00E9"/>
  <outline>
    <contour>
      <point x="373" y="46" type="line"/>
      <point x="347" y="22"/>
      <point x="278" y="-6"/>
      <point x="239" y="-6" type="qcurve"/>
      <point x="198" y="-6"/>
      <point x="128" y="24"/>
      <point x="75" y="77"/>
      <point x="45" y="147"/>
      <point x="45" y="188" type="qcurve"/>
      <point x="45" y="228"/>
      <point x="75" y="300"/>
      <point x="128" y="353"/>
      <point x="198" y="384"/>
      <point x="239" y="384" type="qcurve"/>
      <point x="301" y="384"/>
      <point x="386" y="313"/>
      <point x="408" y="259" type="qcurve"/>
      <point x="370" y="244"/>
      <point x="284" y="209"/>
      <point x="196" y="173"/>
      <point x="109" y="138"/>
      <point x="71" y="122" type="qcurve"/>
      <point x="91" y="71"/>
      <point x="181" y="8"/>
      <point x="239" y="8" type="qcurve"/>
      <point x="275" y="8"/>
      <point x="338" y="33"/>
      <point x="362" y="56" type="qcurve"/>
    </contour>
    <contour>
      <point x="389" y="266" type="qcurve"/>
      <point x="368" y="311"/>
      <point x="293" y="369"/>
      <point x="239" y="369" type="qcurve"/>
      <point x="201" y="369"/>
      <point x="136" y="341"/>
      <point x="87" y="291"/>
      <point x="59" y="225"/>
      <point x="59" y="188" type="qcurve"/>
      <point x="59" y="159"/>
      <point x="66" y="135" type="qcurve"/>
      <point x="103" y="150"/>
      <point x="185" y="184"/>
      <point x="269" y="217"/>
      <point x="352" y="251"/>
    </contour>
    <contour>
      <point x="242" y="479" type="line"/>
      <point x="332" y="612" type="line"/>
      <point x="348" y="612" type="line"/>
      <point x="258" y="479" type="line"/>
    </contour>
  </outline>
</glyph>
<glyph name="igrave" format="1">
  <advance width="217"/>
  <unicode hex="00EC"/>
  <outline>
    <contour>
      <point x="119" y="375" type="line"/>
      <point x="119" y="14" type="line"/>
      <point x="200" y="14" type="line"/>
      <point x="200" y="0" type="line"/>
      <point x="25" y="0" type="line"/>
      <point x="25" y="14" type="line"/>
      <point x="105" y="14" type="line"/>
      <point x="105" y="361" type="line"/>
      <point x="25" y="361" type="line"/>
      <point x="25" y="375" type="line"/>
    </contour>
    <contour>
      <point x="64" y="612" type="line"/>
      <point x="154" y="479" type="line"/>
      <point x="138" y="479" type="line"/>
      <point x="48" y="612" type="line"/>
    </contour>
  </outline>
</glyph>
<glyph name="iacute" format="1">
  <advance width="217"/>
  <unicode hex="00ED"/>
  <outline>
    <contour>
      <point x="119" y="375" type="line"/>
      <point x="119" y="14" type="line"/>
      <point x="200" y="14" type="line"/>
      <point x="200" y="0" type="line"/>
      <point x="25" y="0" type="line"/>
      <point x="25" y="14" type="line"/>
      <point x="105" y="14" type="line"/>
      <point x="105" y="361" type="line"/>
      <point x="25" y="361" type="line"/>
      <point x="25" y="375" type="line"/>
    </contour>
    <contour>
      <point x="71" y="479" type="line"/>
      <point x="161" y="612" type="line"/>
      <point x="177" y="612" type="line"/>
      <point x="87" y="479" type="line"/>
    </contour>
  </outline>
</glyph>
<glyph name="divide" format="1">
  <advance width="523"/>
  <unicode hex="00F7"/>
  <outline>
    <contour>
      <point x="442" y="210" type="line"/>
      <point x="82" y="210" type="line"/>
      <point x="82" y="224" type="line"/>
      <point x="442" y="224" type="line"/>
    </contour>
    <contour>
      <point x="245" y="341" type="qcurve"/>
      <point x="245" y="349"/>
      <point x="257" y="361"/>
      <point x="265" y="361" type="qcurve"/>
      <point x="273" y="361"/>
      <point x="285" y="349"/>
      <point x="285" y="341" type="qcurve"/>
      <point x="285" y="333"/>
      <point x="273" y="321"/>
      <point x="265" y="321" type="qcurve"/>
      <point x="257" y="321"/>
      <point x="245" y="333"/>
    </contour>
    <contour>
      <point x="245" y="91" type="qcurve"/>
      <point x="245" y="99"/>
      <point x="257" y="111"/>
      <point x="265" y="111" type="qcurve"/>
      <point x="273" y="111"/>
      <point x="285" y="99"/>
      <point x="285" y="91" type="qcurve"/>
      <point x="285" y="83"/>
      <point x="273" y="71"/>
      <point x="265" y="71" type="qcurve"/>
      <point x="257" y="71"/>
      <point x="245" y="83"/>
    </contour>
  </outline>
</glyph>
<glyph name="oslash" format="1">
  <advance width="478"/>
  <unicode hex="00F8"/>
  <outline>
    <contour>
      <point x="43" y="188" type="qcurve"/>
      <point x="43" y="228"/>
      <point x="73" y="300"/>
      <point x="126" y="353"/>
      <point x="196" y="384"/>
      <point x="237" y="384" type="qcurve"/>
      <point x="269" y="384"/>
      <point x="327" y="364"/>
      <point x="352" y="346" type="qcurve"/>
      <point x="376" y="375" type="line"/>
      <point x="385" y="366" type="line"/>
      <point x="362" y="338" type="line"/>
      <point x="394" y="311"/>
      <point x="433" y="233"/>
      <point x="433" y="188" type="qcurve"/>
      <point x="433" y="147"/>
      <point x="402" y="77"/>
      <point x="349" y="24"/>
      <point x="277" y="-6"/>
      <point x="237" y="-6" type="qcurve"/>
      <point x="200" y="-6"/>
      <point x="137" y="18"/>
      <point x="111" y="40" type="qcurve"/>
      <point x="78" y="0" type="line"/>
      <point x="70" y="10" type="line"/>
      <point x="102" y="48" type="line"/>
      <point x="74" y="74"/>
      <point x="43" y="146"/>
    </contour>
    <contour>
      <point x="120" y="50" type="line"/>
      <point x="143" y="30"/>
      <point x="203" y="8"/>
      <point x="237" y="8" type="qcurve"/>
      <point x="274" y="8"/>
      <point x="340" y="36"/>
      <point x="390" y="85"/>
      <point x="418" y="150"/>
      <point x="418" y="188" type="qcurve"/>
      <point x="418" y="230"/>
      <point x="383" y="302"/>
      <point x="353" y="327" type="qcurve"/>
    </contour>
    <contour>
      <point x="57" y="188" type="qcurve"/>
      <point x="57" y="150"/>
      <point x="86" y="83"/>
      <point x="111" y="58" type="qcurve"/>
      <point x="136" y="88"/>
      <point x="197" y="160"/>
      <point x="259" y="235"/>
      <point x="318" y="306"/>
      <point x="342" y="335" type="qcurve"/>
      <point x="320" y="351"/>
      <point x="266" y="369"/>
      <point x="237" y="369" type="qcurve"/>
      <point x="199" y="369"/>
      <point x="134" y="341"/>
      <point x="85" y="291"/>
      <point x="57" y="225"/>
    </contour>
  </outline>
</glyph>
<glyph name="uacute" format="1">
  <advance width="480"/>
  <unicode hex="00FA"/>
  <outline>
    <contour>
      <point x="373" y="98" type="line"/>
      <point x="353" y="50"/>
      <point x="264" y="-7"/>
      <point x="208" y="-7" type="qcurve"/>
      <point x="155" y="-7"/>
      <point x="94" y="55"/>
      <point x="92" y="105" type="qcurve"/>
      <point x="92" y="361" type="line"/>
      <point x="12" y="361" type="line"/>
      <point x="12" y="375" type="line"/>
      <point x="106" y="375" type="line"/>
      <point x="106" y="98" type="line"/>
      <point x="108" y="62"/>
      <point x="157" y="9"/>
      <point x="201" y="7" type="qcurve"/>
      <point x="235" y="7"/>
      <point x="296" y="29"/>
      <point x="342" y="68"/>
      <point x="370" y="123"/>
      <point x="370" y="155" type="qcurve"/>
      <point x="370" y="361" type="line"/>
      <point x="289" y="361" type="line"/>
      <point x="289" y="375" type="line"/>
      <point x="384" y="375" type="line"/>
      <point x="384" y="14" type="line"/>
      <point x="464" y="14" type="line"/>
      <point x="464" y="0" type="line"/>
      <point x="374" y="0" type="line"/>
    </contour>
    <contour>
      <point x="209" y="479" type="line"/>
      <point x="299" y="612" type="line"/>
      <point x="315" y="612" type="line"/>
      <point x="225" y="479" type="line"/>
    </contour>
  </outline>
</glyph>
<glyph name="udieresis" format="1">
  <advance width="480"/>
  <unicode hex="00FC"/>
  <outline>
    <contour>
      <point x="370" y="155" type="qcurve"/>
      <point x="370" y="361" type="line"/>
      <point x="289" y="361" type="line"/>
      <point x="289" y="375" type="line"/>
      <point x="384" y="375" type="line"/>
      <point x="384" y="14" type="line"/>
      <point x="464" y="14" type="line"/>
      <point x="464" y="0" type="line"/>
      <point x="374" y="0" type="line"/>
      <point x="373" y="98" type="line"/>
      <point x="353" y="50"/>
      <point x="264" y="-7"/>
      <point x="208" y="-7" type="qcurve"/>
      <point x="155" y="-7"/>
      <point x="94" y="55"/>
      <point x="92" y="105" type="qcurve"/>
      <point x="92" y="361" type="line"/>
      <point x="12" y="361" type="line"/>
      <point x="12" y="375" type="line"/>
      <point x="106" y="375" type="line"/>
      <point x="106" y="98" type="line"/>
      <point x="108" y="62"/>
      <point x="157" y="9"/>
      <point x="201" y="7" type="qcurve"/>
      <point x="235" y="7"/>
      <point x="296" y="29"/>
      <point x="342" y="68"/>
      <point x="370" y="123"/>
    </contour>
    <contour>
      <point x="300" y="500" type="qcurve"/>
      <point x="300" y="508"/>
      <point x="312" y="520"/>
      <point x="320" y="520" type="qcurve"/>
      <point x="328" y="520"/>
      <point x="340" y="508"/>
      <point x="340" y="500" type="qcurve"/>
      <point x="340" y="492"/>
      <point x="328" y="480"/>
      <point x="320" y="480" type="qcurve"/>
      <point x="312" y="480"/>
      <point x="300" y="492"/>
    </contour>
    <contour>
      <point x="135" y="500" type="qcurve"/>
      <point x="135" y="508"/>
      <point x="147" y="520"/>
      <point x="155" y="520" type="qcurve"/>
      <point x="163" y="520"/>
      <point x="175" y="508"/>
      <point x="175" y="500" type="qcurve"/>
      <point x="175" y="492"/>
      <point x="163" y="480"/>
      <point x="155" y="480" type="qcurve"/>
      <point x="147" y="480"/>
      <point x="135" y="492"/>
    </contour>
  </outline>
</glyph>
<glyph name="yacute" format="1">
  <advance width="473"/>
  <unicode hex="00FD"/>
  <outline>
    <contour>
      <point x="9" y="375" type="line"/>
      <point x="147" y="375" type="line"/>
      <point x="147" y="361" type="line"/>
      <point x="79" y="361" type="line"/>
      <point x="237" y="6" type="line"/>
      <point x="393" y="361" type="line"/>
      <point x="329" y="361" type="line"/>
      <point x="329" y="375" type="line"/>
      <point x="468" y="375" type="line"/>
      <point x="468" y="361" type="line"/>
      <point x="408" y="361" type="line"/>
      <point x="175" y="-166" type="line"/>
      <point x="246" y="-166" type="line"/>
      <point x="246" y="-180" type="line"/>
      <point x="96" y="-180" type="line"/>
      <point x="96" y="-166" type="line"/>
      <point x="162" y="-166" type="line"/>
      <point x="229" y="-10" type="line"/>
      <point x="64" y="361" type="line"/>
      <point x="9" y="361" type="line"/>
    </contour>
    <contour>
      <point x="219" y="479" type="line"/>
      <point x="309" y="612" type="line"/>
      <point x="325" y="612" type="line"/>
      <point x="235" y="479" type="line"/>
    </contour>
  </outline>
</glyph>
<glyph name="ydieresis" format="1">
  <advance width="473"/>
  <unicode hex="00FF"/>
  <outline>
    <contour>
      <point x="9" y="375" type="line"/>
      <point x="147" y="375" type="line"/>
      <point x="147" y="361" type="line"/>
      <point x="79" y="361" type="line"/>
      <point x="237" y="6" type="line"/>
      <point x="393" y="361" type="line"/>
      <point x="329" y="361" type="line"/>
      <point x="329" y="375" type="line"/>
      <point x="468" y="375" type="line"/>
      <point x="468" y="361" type="line"/>
      <point x="408" y="361" type="line"/>
      <point x="175" y="-166" type="line"/>
      <point x="246" y="-166" type="line"/>
      <point x="246" y="-180" type="line"/>
      <point x="96" y="-180" type="line"/>
      <point x="96" y="-166" type="line"/>
      <point x="162" y="-166" type="line"/>
      <point x="229" y="-10" type="line"/>
      <point x="64" y="361" type="line"/>
      <point x="9" y="361" type="line"/>
    </contour>
    <contour>
      <point x="299" y="500" type="qcurve"/>
      <point x="299" y="508"/>
      <point x="311" y="520"/>
      <point x="319" y="520" type="qcurve"/>
      <point x="327" y="520"/>
      <point x="339" y="508"/>
      <point x="339" y="500" type="qcurve"/>
      <point x="339" y="492"/>
      <point x="327" y="480"/>
      <point x="319" y="480" type="qcurve"/>
      <point x="311" y="480"/>
      <point x="299" y="492"/>
    </contour>
    <contour>
      <point x="134" y="500" type="qcurve"/>
      <point x="134" y="508"/>
      <point x="146" y="520"/>
      <point x="154" y="520" type="qcurve"/>
      <point x="162" y="520"/>
      <point x="174" y="508"/>
      <point x="174" y="500" type="qcurve"/>
      <point x="174" y="492"/>
      <point x="162" y="480"/>
      <point x="154" y="480" type="qcurve"/>
      <point x="146" y="480"/>
      <point x="134" y="492"/>
    </contour>
  </outline>
</glyph>
<glyph name="Abreve" format="1">
  <advance width="718"/>
  <unicode hex="0102"/>
  <outline>
    <contour>
      <point x="2" y="14" type="line"/>
      <point x="2" y="0" type="line"/>
      <point x="176" y="0" type="line"/>
      <point x="176" y="14" type="line"/>
      <point x="89" y="14" type="line"/>
      <point x="209" y="318" type="line"/>
      <point x="508" y="318" type="line"/>
      <point x="628" y="14" type="line"/>
      <point x="546" y="14" type="line"/>
      <point x="546" y="0" type="line"/>
      <point x="720" y="0" type="line"/>
      <point x="720" y="14" type="line"/>
      <point x="643" y="14" type="line"/>
      <point x="359" y="732" type="line"/>
      <point x="74" y="14" type="line"/>
    </contour>
    <contour>
      <point x="350" y="675" type="line"/>
      <point x="351" y="680"/>
      <point x="353" y="684" type="qcurve"/>
      <point x="355" y="688"/>
      <point x="357" y="697"/>
      <point x="359" y="700" type="qcurve"/>
      <point x="360" y="697"/>
      <point x="363" y="688"/>
      <point x="365" y="684" type="qcurve"/>
      <point x="367" y="680"/>
      <point x="368" y="675" type="qcurve"/>
      <point x="503" y="332" type="line"/>
      <point x="215" y="332" type="line"/>
    </contour>
    <contour>
      <point x="360" y="733" type="qcurve"/>
      <point x="327" y="733"/>
      <point x="268" y="757"/>
      <point x="224" y="799"/>
      <point x="198" y="857"/>
      <point x="197" y="890" type="qcurve"/>
      <point x="212" y="890" type="line"/>
      <point x="213" y="861"/>
      <point x="236" y="810"/>
      <point x="275" y="770"/>
      <point x="328" y="747"/>
      <point x="360" y="747" type="qcurve"/>
      <point x="392" y="747"/>
      <point x="445" y="770"/>
      <point x="483" y="810"/>
      <point x="504" y="861"/>
      <point x="505" y="890" type="qcurve"/>
      <point x="521" y="890" type="line"/>
      <point x="521" y="857"/>
      <point x="495" y="799"/>
      <point x="451" y="757"/>
      <point x="393" y="733"/>
    </contour>
  </outline>
</glyph>
<glyph name="Aogonek" format="1">
  <advance width="718"/>
  <unicode hex="0104"/>
  <outline>
    <contour>
      <point x="74" y="14" type="line"/>
      <point x="359" y="732" type="line"/>
      <point x="643" y="14" type="line"/>
      <point x="720" y="14" type="line"/>
      <point x="720" y="0" type="line"/>
      <point x="650" y="0" type="line"/>
      <point x="650" y="-16" type="line"/>
      <point x="650" y="-36"/>
      <point x="624" y="-58"/>
      <point x="593" y="-79"/>
      <point x="567" y="-109"/>
      <point x="567" y="-137" type="qcurve"/>
      <point x="567" y="-168"/>
      <point x="606" y="-209"/>
      <point x="637" y="-209" type="qcurve"/>
      <point x="662" y="-209"/>
      <point x="697" y="-182"/>
      <point x="703" y="-161" type="qcurve"/>
      <point x="718" y="-165" type="line"/>
      <point x="708" y="-194"/>
      <point x="663" y="-223"/>
      <point x="637" y="-223" type="qcurve"/>
      <point x="604" y="-223"/>
      <point x="553" y="-178"/>
      <point x="553" y="-127" type="qcurve"/>
      <point x="553" y="-113"/>
      <point x="572" y="-76"/>
      <point x="595" y="-61" type="qcurve"/>
      <point x="608" y="-53"/>
      <point x="636" y="-32"/>
      <point x="636" y="-6" type="qcurve"/>
      <point x="636" y="0" type="line"/>
      <point x="546" y="0" type="line"/>
      <point x="546" y="14" type="line"/>
      <point x="628" y="14" type="line"/>
      <point x="508" y="318" type="line"/>
      <point x="209" y="318" type="line"/>
      <point x="89" y="14" type="line"/>
      <point x="176" y="14" type="line"/>
      <point x="176" y="0" type="line"/>
      <point x="2" y="0" type="line"/>
      <point x="2" y="14" type="line"/>
    </contour>
    <contour>
      <point x="215" y="332" type="line"/>
      <point x="503" y="332" type="line"/>
      <point x="368" y="675" type="line"/>
      <point x="367" y="680"/>
      <point x="365" y="684" type="qcurve"/>
      <point x="363" y="688"/>
      <point x="360" y="697"/>
      <point x="359" y="700" type="qcurve"/>
      <point x="357" y="697"/>
      <point x="355" y="688"/>
      <point x="353" y="684" type="qcurve"/>
      <point x="351" y="680"/>
      <point x="350" y="675" type="qcurve"/>
    </contour>
  </outline>
</glyph>
<glyph name="Dcroat" format="1">
  <advance width="736"/>
  <unicode hex="0110"/>
  <outline>
    <contour>
      <point x="68" y="400" type="line"/>
      <point x="144" y="400" type="line"/>
      <point x="144" y="686" type="line"/>
      <point x="68" y="686" type="line"/>
      <point x="68" y="700" type="line"/>
      <point x="287" y="700" type="line"/>
      <point x="393" y="700"/>
      <point x="540" y="635"/>
      <point x="632" y="533"/>
      <point x="673" y="409"/>
      <point x="673" y="350" type="qcurve"/>
      <point x="673" y="270"/>
      <point x="617" y="140"/>
      <point x="521" y="49"/>
      <point x="393" y="0"/>
      <point x="321" y="0" type="qcurve"/>
      <point x="68" y="0" type="line"/>
      <point x="68" y="14" type="line"/>
      <point x="144" y="14" type="line"/>
      <point x="144" y="386" type="line"/>
      <point x="68" y="386" type="line"/>
    </contour>
    <contour>
      <point x="327" y="14" type="line"/>
      <point x="394" y="14"/>
      <point x="515" y="61"/>
      <point x="607" y="148"/>
      <point x="660" y="273"/>
      <point x="660" y="350" type="qcurve"/>
      <point x="660" y="407"/>
      <point x="621" y="525"/>
      <point x="534" y="623"/>
      <point x="395" y="685"/>
      <point x="296" y="685" type="qcurve"/>
      <point x="158" y="685" type="line"/>
      <point x="158" y="400" type="line"/>
      <point x="349" y="400" type="line"/>
      <point x="349" y="386" type="line"/>
      <point x="158" y="386" type="line"/>
      <point x="158" y="14" type="line"/>
    </contour>
  </outline>
</glyph>
<glyph name="Emacron" format="1">
  <advance width="626"/>
  <unicode hex="0112"/>
  <outline>
    <contour>
      <point x="540" y="612" type="line"/>
      <point x="540" y="686" type="line"/>
      <point x="153" y="686" type="line"/>
      <point x="153" y="360" type="line"/>
      <point x="515" y="360" type="line"/>
      <point x="515" y="346" type="line"/>
      <point x="153" y="346" type="line"/>
      <point x="153" y="14" type="line"/>
      <point x="554" y="14" type="line"/>
      <point x="554" y="89" type="line"/>
      <point x="568" y="89" type="line"/>
      <point x="568" y="0" type="line"/>
      <point x="63" y="0" type="line"/>
      <point x="63" y="14" type="line"/>
      <point x="139" y="14" type="line"/>
      <point x="139" y="686" type="line"/>
      <point x="63" y="686" type="line"/>
      <point x="63" y="700" type="line"/>
      <point x="540" y="700" type="line"/>
      <point x="540" y="701" type="line"/>
      <point x="554" y="701" type="line"/>
      <point x="554" y="612" type="line"/>
    </contour>
    <contour>
      <point x="232" y="750" type="line"/>
      <point x="232" y="764" type="line"/>
      <point x="462" y="764" type="line"/>
      <point x="462" y="750" type="line"/>
    </contour>
  </outline>
</glyph>
<glyph name="Eogonek" format="1">
  <advance width="625"/>
  <unicode hex="0118"/>
  <outline>
    <contour>
      <point x="539" y="612" type="line"/>
      <point x="539" y="686" type="line"/>
      <point x="152" y="686" type="line"/>
      <point x="152" y="360" type="line"/>
      <point x="514" y="360" type="line"/>
      <point x="514" y="346" type="line"/>
      <point x="152" y="346" type="line"/>
      <point x="152" y="14" type="line"/>
      <point x="553" y="14" type="line"/>
      <point x="553" y="89" type="line"/>
      <point x="567" y="89" type="line"/>
      <point x="567" y="0" type="line"/>
      <point x="62" y="0" type="line"/>
      <point x="62" y="14" type="line"/>
      <point x="138" y="14" type="line"/>
      <point x="138" y="686" type="line"/>
      <point x="62" y="686" type="line"/>
      <point x="62" y="700" type="line"/>
      <point x="539" y="700" type="line"/>
      <point x="539" y="701" type="line"/>
      <point x="553" y="701" type="line"/>
      <point x="553" y="612" type="line"/>
    </contour>
    <contour>
      <point x="567" y="0" type="line"/>
      <point x="553" y="0" type="line"/>
      <point x="553" y="-6" type="line"/>
      <point x="553" y="-32"/>
      <point x="525" y="-53"/>
      <point x="512" y="-61" type="qcurve"/>
      <point x="489" y="-76"/>
      <point x="470" y="-113"/>
      <point x="470" y="-127" type="qcurve"/>
      <point x="470" y="-178"/>
      <point x="521" y="-223"/>
      <point x="554" y="-223" type="qcurve"/>
      <point x="580" y="-223"/>
      <point x="625" y="-194"/>
      <point x="635" y="-165" type="qcurve"/>
      <point x="620" y="-161" type="line"/>
      <point x="614" y="-182"/>
      <point x="579" y="-209"/>
      <point x="554" y="-209" type="qcurve"/>
      <point x="523" y="-209"/>
      <point x="484" y="-168"/>
      <point x="484" y="-137" type="qcurve"/>
      <point x="484" y="-109"/>
      <point x="510" y="-79"/>
      <point x="541" y="-58"/>
      <point x="567" y="-36"/>
      <point x="567" y="-16" type="qcurve"/>
    </contour>
  </outline>
</glyph>
<glyph name="eogonek" format="1">
  <advance width="435"/>
  <unicode hex="0119"/>
  <outline>
    <contour>
      <point x="373" y="46" type="line"/>
      <point x="348" y="23"/>
      <point x="285" y="-4"/>
      <point x="250" y="-6" type="qcurve"/>
      <point x="250" y="-16" type="line"/>
      <point x="250" y="-36"/>
      <point x="224" y="-58"/>
      <point x="193" y="-79"/>
      <point x="167" y="-109"/>
      <point x="167" y="-137" type="qcurve"/>
      <point x="167" y="-168"/>
      <point x="206" y="-209"/>
      <point x="237" y="-209" type="qcurve"/>
      <point x="262" y="-209"/>
      <point x="297" y="-182"/>
      <point x="303" y="-161" type="qcurve"/>
      <point x="318" y="-165" type="line"/>
      <point x="308" y="-194"/>
      <point x="263" y="-223"/>
      <point x="237" y="-223" type="qcurve"/>
      <point x="204" y="-223"/>
      <point x="153" y="-178"/>
      <point x="153" y="-127" type="qcurve"/>
      <point x="153" y="-113"/>
      <point x="172" y="-76"/>
      <point x="195" y="-61" type="qcurve"/>
      <point x="208" y="-53"/>
      <point x="236" y="-32"/>
      <point x="236" y="-6" type="qcurve"/>
      <point x="196" y="-5"/>
      <point x="126" y="25"/>
      <point x="75" y="78"/>
      <point x="45" y="148"/>
      <point x="45" y="188" type="qcurve"/>
      <point x="45" y="228"/>
      <point x="75" y="300"/>
      <point x="128" y="353"/>
      <point x="198" y="384"/>
      <point x="239" y="384" type="qcurve"/>
      <point x="301" y="384"/>
      <point x="386" y="313"/>
      <point x="408" y="259" type="qcurve"/>
      <point x="370" y="244"/>
      <point x="284" y="209"/>
      <point x="196" y="173"/>
      <point x="109" y="138"/>
      <point x="71" y="122" type="qcurve"/>
      <point x="91" y="71"/>
      <point x="181" y="8"/>
      <point x="239" y="8" type="qcurve"/>
      <point x="275" y="8"/>
      <point x="338" y="33"/>
      <point x="362" y="56" type="qcurve"/>
    </contour>
    <contour>
      <point x="389" y="266" type="qcurve"/>
      <point x="368" y="311"/>
      <point x="293" y="369"/>
      <point x="239" y="369" type="qcurve"/>
      <point x="201" y="369"/>
      <point x="136" y="341"/>
      <point x="87" y="291"/>
      <point x="59" y="225"/>
      <point x="59" y="188" type="qcurve"/>
      <point x="59" y="159"/>
      <point x="66" y="135" type="qcurve"/>
      <point x="103" y="150"/>
      <point x="185" y="184"/>
      <point x="269" y="217"/>
      <point x="352" y="251"/>
    </contour>
  </outline>
</glyph>
<glyph name="Gdotaccent" format="1">
  <advance width="681"/>
  <unicode hex="0120"/>
  <outline>
    <contour>
      <point x="587" y="582" type="line"/>
      <point x="587" y="649" type="line"/>
      <point x="549" y="671"/>
      <point x="463" y="694"/>
      <point x="418" y="694" type="qcurve"/>
      <point x="347" y="694"/>
      <point x="222" y="639"/>
      <point x="129" y="545"/>
      <point x="75" y="419"/>
      <point x="75" y="348" type="qcurve"/>
      <point x="75" y="277"/>
      <point x="123" y="153"/>
      <point x="212" y="60"/>
      <point x="337" y="6"/>
      <point x="415" y="6" type="qcurve"/>
      <point x="462" y="6"/>
      <point x="548" y="29"/>
      <point x="586" y="51" type="qcurve"/>
      <point x="586" y="286" type="line"/>
      <point x="414" y="286" type="line"/>
      <point x="414" y="300" type="line"/>
      <point x="600" y="300" type="line"/>
      <point x="600" y="42" type="line"/>
      <point x="560" y="19"/>
      <point x="469" y="-8"/>
      <point x="418" y="-8" type="qcurve"/>
      <point x="337" y="-8"/>
      <point x="205" y="48"/>
      <point x="112" y="145"/>
      <point x="61" y="275"/>
      <point x="61" y="349" type="qcurve"/>
      <point x="61" y="423"/>
      <point x="117" y="554"/>
      <point x="214" y="651"/>
      <point x="344" y="708"/>
      <point x="418" y="708" type="qcurve"/>
      <point x="469" y="708"/>
      <point x="560" y="682"/>
      <point x="601" y="658" type="qcurve"/>
      <point x="601" y="582" type="line"/>
    </contour>
    <contour>
      <point x="395" y="757" type="qcurve"/>
      <point x="395" y="765"/>
      <point x="407" y="777"/>
      <point x="415" y="777" type="qcurve"/>
      <point x="423" y="777"/>
      <point x="435" y="765"/>
      <point x="435" y="757" type="qcurve"/>
      <point x="435" y="749"/>
      <point x="423" y="737"/>
      <point x="415" y="737" type="qcurve"/>
      <point x="407" y="737"/>
      <point x="395" y="749"/>
    </contour>
  </outline>
</glyph>
<glyph name="Hbar" format="1">
  <advance width="779"/>
  <unicode hex="0126"/>
  <outline>
    <contour>
      <point x="241" y="700" type="line"/>
      <point x="241" y="686" type="line"/>
      <point x="158" y="686" type="line"/>
      <point x="158" y="506" type="line"/>
      <point x="622" y="506" type="line"/>
      <point x="622" y="686" type="line"/>
      <point x="539" y="686" type="line"/>
      <point x="539" y="700" type="line"/>
      <point x="713" y="700" type="line"/>
      <point x="713" y="686" type="line"/>
      <point x="636" y="686" type="line"/>
      <point x="636" y="506" type="line"/>
      <point x="716" y="506" type="line"/>
      <point x="716" y="492" type="line"/>
      <point x="636" y="492" type="line"/>
      <point x="636" y="14" type="line"/>
      <point x="713" y="14" type="line"/>
      <point x="713" y="0" type="line"/>
      <point x="539" y="0" type="line"/>
      <point x="539" y="14" type="line"/>
      <point x="622" y="14" type="line"/>
      <point x="622" y="346" type="line"/>
      <point x="158" y="346" type="line"/>
      <point x="158" y="14" type="line"/>
      <point x="241" y="14" type="line"/>
      <point x="241" y="0" type="line"/>
      <point x="67" y="0" type="line"/>
      <point x="67" y="14" type="line"/>
      <point x="144" y="14" type="line"/>
      <point x="144" y="492" type="line"/>
      <point x="66" y="492" type="line"/>
      <point x="66" y="506" type="line"/>
      <point x="144" y="506" type="line"/>
      <point x="144" y="686" type="line"/>
      <point x="67" y="686" type="line"/>
      <point x="67" y="700" type="line"/>
    </contour>
    <contour>
      <point x="622" y="360" type="line"/>
      <point x="622" y="492" type="line"/>
      <point x="158" y="492" type="line"/>
      <point x="158" y="360" type="line"/>
    </contour>
  </outline>
</glyph>
<glyph name="hbar" format="1">
  <advance width="480"/>
  <unicode hex="0127"/>
  <outline>
    <contour>
      <point x="17" y="750" type="line"/>
      <point x="107" y="750" type="line"/>
      <point x="107" y="585" type="line"/>
      <point x="237" y="585" type="line"/>
      <point x="237" y="571" type="line"/>
      <point x="107" y="571" type="line"/>
      <point x="107" y="277" type="line"/>
      <point x="127" y="324"/>
      <point x="215" y="382"/>
      <point x="272" y="382" type="qcurve"/>
      <point x="325" y="382"/>
      <point x="386" y="320"/>
      <point x="388" y="270" type="qcurve"/>
      <point x="388" y="14" type="line"/>
      <point x="468" y="14" type="line"/>
      <point x="468" y="0" type="line"/>
      <point x="295" y="0" type="line"/>
      <point x="295" y="14" type="line"/>
      <point x="374" y="14" type="line"/>
      <point x="374" y="277" type="line"/>
      <point x="372" y="313"/>
      <point x="323" y="366"/>
      <point x="279" y="368" type="qcurve"/>
      <point x="245" y="368"/>
      <point x="184" y="346"/>
      <point x="137" y="307"/>
      <point x="110" y="252"/>
      <point x="110" y="220" type="qcurve"/>
      <point x="110" y="14" type="line"/>
      <point x="191" y="14" type="line"/>
      <point x="191" y="0" type="line"/>
      <point x="16" y="0" type="line"/>
      <point x="16" y="14" type="line"/>
      <point x="96" y="14" type="line"/>
      <point x="96" y="571" type="line"/>
      <point x="7" y="571" type="line"/>
      <point x="7" y="585" type="line"/>
      <point x="96" y="585" type="line"/>
      <point x="96" y="736" type="line"/>
      <point x="17" y="736" type="line"/>
    </contour>
  </outline>
</glyph>
<glyph name="Itilde" format="1">
  <advance width="294"/>
  <unicode hex="0128"/>
  <outline>
    <contour>
      <point x="237" y="700" type="line"/>
      <point x="237" y="686" type="line"/>
      <point x="154" y="686" type="line"/>
      <point x="154" y="14" type="line"/>
      <point x="237" y="14" type="line"/>
      <point x="237" y="0" type="line"/>
      <point x="63" y="0" type="line"/>
      <point x="63" y="14" type="line"/>
      <point x="140" y="14" type="line"/>
      <point x="140" y="686" type="line"/>
      <point x="63" y="686" type="line"/>
      <point x="63" y="700" type="line"/>
    </contour>
    <contour>
      <point x="139" y="776" type="qcurve"/>
      <point x="123" y="794"/>
      <point x="99" y="806"/>
      <point x="85" y="806" type="qcurve"/>
      <point x="77" y="806"/>
      <point x="56" y="801"/>
      <point x="36" y="789"/>
      <point x="21" y="768"/>
      <point x="19" y="751" type="qcurve"/>
      <point x="6" y="753" type="line"/>
      <point x="7" y="771"/>
      <point x="23" y="797"/>
      <point x="46" y="813"/>
      <point x="74" y="820"/>
      <point x="88" y="820" type="qcurve"/>
      <point x="108" y="820"/>
      <point x="141" y="799"/>
      <point x="157" y="782" type="qcurve"/>
      <point x="173" y="764"/>
      <point x="197" y="752"/>
      <point x="211" y="752" type="qcurve"/>
      <point x="219" y="752"/>
      <point x="240" y="757"/>
      <point x="260" y="769"/>
      <point x="275" y="790"/>
      <point x="277" y="807" type="qcurve"/>
      <point x="290" y="805" type="line"/>
      <point x="289" y="787"/>
      <point x="273" y="761"/>
      <point x="250" y="745"/>
      <point x="222" y="738"/>
      <point x="208" y="738" type="qcurve"/>
      <point x="188" y="738"/>
      <point x="155" y="759"/>
    </contour>
  </outline>
</glyph>
<glyph name="imacron" format="1">
  <advance width="217"/>
  <unicode hex="012B"/>
  <outline>
    <contour>
      <point x="119" y="375" type="line"/>
      <point x="119" y="14" type="line"/>
      <point x="200" y="14" type="line"/>
      <point x="200" y="0" type="line"/>
      <point x="25" y="0" type="line"/>
      <point x="25" y="14" type="line"/>
      <point x="105" y="14" type="line"/>
      <point x="105" y="361" type="line"/>
      <point x="25" y="361" type="line"/>
      <point x="25" y="375" type="line"/>
    </contour>
    <contour>
      <point x="-3" y="492" type="line"/>
      <point x="-3" y="506" type="line"/>
      <point x="227" y="506" type="line"/>
      <point x="227" y="492" type="line"/>
    </contour>
  </outline>
</glyph>
<glyph name="iogonek" format="1">
  <advance width="215"/>
  <unicode hex="012F"/>
  <outline>
    <contour>
      <point x="200" y="0" type="line"/>
      <point x="25" y="0" type="line"/>
      <point x="25" y="14" type="line"/>
      <point x="105" y="14" type="line"/>
      <point x="105" y="361" type="line"/>
      <point x="25" y="361" type="line"/>
      <point x="25" y="375" type="line"/>
      <point x="119" y="375" type="line"/>
      <point x="119" y="14" type="line"/>
      <point x="200" y="14" type="line"/>
    </contour>
    <contour>
      <point x="119" y="0" type="line"/>
      <point x="105" y="0" type="line"/>
      <point x="105" y="-6" type="line"/>
      <point x="105" y="-32"/>
      <point x="77" y="-53"/>
      <point x="64" y="-61" type="qcurve"/>
      <point x="41" y="-76"/>
      <point x="22" y="-113"/>
      <point x="22" y="-127" type="qcurve"/>
      <point x="22" y="-178"/>
      <point x="73" y="-223"/>
      <point x="106" y="-223" type="qcurve"/>
      <point x="132" y="-223"/>
      <point x="177" y="-194"/>
      <point x="187" y="-165" type="qcurve"/>
      <point x="172" y="-161" type="line"/>
      <point x="166" y="-182"/>
      <point x="131" y="-209"/>
      <point x="106" y="-209" type="qcurve"/>
      <point x="75" y="-209"/>
      <point x="36" y="-168"/>
      <point x="36" y="-137" type="qcurve"/>
      <point x="36" y="-109"/>
      <point x="62" y="-79"/>
      <point x="93" y="-58"/>
      <point x="119" y="-36"/>
      <point x="119" y="-16" type="qcurve"/>
    </contour>
    <contour>
      <point x="92" y="500" type="qcurve"/>
      <point x="92" y="508"/>
      <point x="104" y="520"/>
      <point x="112" y="520" type="qcurve"/>
      <point x="120" y="520"/>
      <point x="132" y="508"/>
      <point x="132" y="500" type="qcurve"/>
      <point x="132" y="492"/>
      <point x="120" y="480"/>
      <point x="112" y="480" type="qcurve"/>
      <point x="104" y="480"/>
      <point x="92" y="492"/>
    </contour>
  </outline>
</glyph>
<glyph name="dotlessi" format="1">
  <advance width="217"/>
  <unicode hex="0131"/>
  <outline>
    <contour>
      <point x="200" y="0" type="line"/>
      <point x="25" y="0" type="line"/>
      <point x="25" y="14" type="line"/>
      <point x="105" y="14" type="line"/>
      <point x="105" y="361" type="line"/>
      <point x="25" y="361" type="line"/>
      <point x="25" y="375" type="line"/>
      <point x="119" y="375" type="line"/>
      <point x="119" y="14" type="line"/>
      <point x="200" y="14" type="line"/>
    </contour>
  </outline>
</glyph>
<glyph name="Jcircumflex" format="1">
  <advance width="294"/>
  <unicode hex="0134"/>
  <outline>
    <contour>
      <point x="-10" y="-142" type="qcurve"/>
      <point x="-10" y="-128" type="line"/>
      <point x="27" y="-126"/>
      <point x="89" y="-95"/>
      <point x="135" y="-38"/>
      <point x="161" y="42"/>
      <point x="161" y="93" type="qcurve"/>
      <point x="161" y="686" type="line"/>
      <point x="63" y="686" type="line"/>
      <point x="63" y="700" type="line"/>
      <point x="175" y="700" type="line"/>
      <point x="175" y="90" type="line"/>
      <point x="175" y="34"/>
      <point x="146" y="-51"/>
      <point x="95" y="-109"/>
      <point x="28" y="-141"/>
    </contour>
    <contour>
      <point x="143" y="853" type="line"/>
      <point x="263" y="732" type="line"/>
      <point x="247" y="732" type="line"/>
      <point x="143" y="826" type="line"/>
      <point x="39" y="732" type="line"/>
      <point x="23" y="732" type="line"/>
    </contour>
  </outline>
</glyph>
<glyph name="jcircumflex" format="1">
  <advance width="177"/>
  <unicode hex="0135"/>
  <outline>
    <contour>
      <point x="35" y="-180" type="qcurve"/>
      <point x="23" y="-171" type="line"/>
      <point x="48" y="-143"/>
      <point x="78" y="-62"/>
      <point x="78" y="-11" type="qcurve"/>
      <point x="78" y="361" type="line"/>
      <point x="-2" y="361" type="line"/>
      <point x="-2" y="375" type="line"/>
      <point x="92" y="375" type="line"/>
      <point x="92" y="-7" type="line"/>
      <point x="92" y="-64"/>
      <point x="61" y="-151"/>
    </contour>
    <contour>
      <point x="77" y="659" type="line"/>
      <point x="197" y="478" type="line"/>
      <point x="181" y="478" type="line"/>
      <point x="77" y="632" type="line"/>
      <point x="-27" y="478" type="line"/>
      <point x="-43" y="478" type="line"/>
    </contour>
  </outline>
</glyph>
<glyph name="lacute" format="1">
  <advance width="210"/>
  <unicode hex="013A"/>
  <outline>
    <contour>
      <point x="193" y="0" type="line"/>
      <point x="18" y="0" type="line"/>
      <point x="18" y="14" type="line"/>
      <point x="98" y="14" type="line"/>
      <point x="98" y="736" type="line"/>
      <point x="18" y="736" type="line"/>
      <point x="18" y="750" type="line"/>
      <point x="112" y="750" type="line"/>
      <point x="112" y="14" type="line"/>
      <point x="193" y="14" type="line"/>
    </contour>
    <contour>
      <point x="76" y="770" type="line"/>
      <point x="166" y="903" type="line"/>
      <point x="182" y="903" type="line"/>
      <point x="92" y="770" type="line"/>
    </contour>
  </outline>
</glyph>
<glyph name="Lcaron" format="1">
  <advance width="592"/>
  <unicode hex="013D"/>
  <outline>
    <contour>
      <point x="237" y="700" type="line"/>
      <point x="237" y="686" type="line"/>
      <point x="153" y="686" type="line"/>
      <point x="153" y="14" type="line"/>
      <point x="554" y="14" type="line"/>
      <point x="554" y="89" type="line"/>
      <point x="568" y="89" type="line"/>
      <point x="568" y="0" type="line"/>
      <point x="63" y="0" type="line"/>
      <point x="63" y="14" type="line"/>
      <point x="139" y="14" type="line"/>
      <point x="139" y="686" type="line"/>
      <point x="63" y="686" type="line"/>
      <point x="63" y="700" type="line"/>
    </contour>
    <contour>
      <point x="249" y="572" type="qcurve"/>
      <point x="243" y="590" type="line"/>
      <point x="264" y="610"/>
      <point x="283" y="669"/>
      <point x="276" y="704" type="qcurve"/>
      <point x="295" y="711" type="line"/>
      <point x="303" y="671"/>
      <point x="278" y="598"/>
    </contour>
  </outline>
</glyph>
<glyph name="lcaron" format="1">
  <advance width="210"/>
  <unicode hex="013E"/>
  <outline>
    <contour>
      <point x="112" y="750" type="line"/>
      <point x="112" y="14" type="line"/>
      <point x="193" y="14" type="line"/>
      <point x="193" y="0" type="line"/>
      <point x="18" y="0" type="line"/>
      <point x="18" y="14" type="line"/>
      <point x="98" y="14" type="line"/>
      <point x="98" y="736" type="line"/>
      <point x="18" y="736" type="line"/>
      <point x="18" y="750" type="line"/>
    </contour>
    <contour>
      <point x="178" y="572" type="qcurve"/>
      <point x="172" y="590" type="line"/>
      <point x="193" y="610"/>
      <point x="212" y="669"/>
      <point x="205" y="704" type="qcurve"/>
      <point x="224" y="711" type="line"/>
      <point x="232" y="671"/>
      <point x="207" y="598"/>
    </contour>
  </outline>
</glyph>
<glyph name="Lslash" format="1">
  <advance width="597"/>
  <unicode hex="0141"/>
  <outline>
    <contour>
      <point x="242" y="700" type="line"/>
      <point x="242" y="686" type="line"/>
      <point x="158" y="686" type="line"/>
      <point x="158" y="340" type="line"/>
      <point x="342" y="408" type="line"/>
      <point x="342" y="394" type="line"/>
      <point x="158" y="326" type="line"/>
      <point x="158" y="14" type="line"/>
      <point x="559" y="14" type="line"/>
      <point x="559" y="89" type="line"/>
      <point x="573" y="89" type="line"/>
      <point x="573" y="0" type="line"/>
      <point x="68" y="0" type="line"/>
      <point x="68" y="14" type="line"/>
      <point x="144" y="14" type="line"/>
      <point x="144" y="321" type="line"/>
      <point x="68" y="293" type="line"/>
      <point x="68" y="307" type="line"/>
      <point x="144" y="335" type="line"/>
      <point x="144" y="686" type="line"/>
      <point x="68" y="686" type="line"/>
      <point x="68" y="700" type="line"/>
    </contour>
  </outline>
</glyph>
<glyph name="lslash" format="1">
  <advance width="212"/>
  <unicode hex="0142"/>
  <outline>
    <contour>
      <point x="195" y="0" type="line"/>
      <point x="20" y="0" type="line"/>
      <point x="20" y="14" type="line"/>
      <point x="100" y="14" type="line"/>
      <point x="100" y="303" type="line"/>
      <point x="19" y="273" type="line"/>
      <point x="19" y="287" type="line"/>
      <point x="100" y="317" type="line"/>
      <point x="100" y="736" type="line"/>
      <point x="20" y="736" type="line"/>
      <point x="20" y="750" type="line"/>
      <point x="114" y="750" type="line"/>
      <point x="114" y="322" type="line"/>
      <point x="170" y="343" type="line"/>
      <point x="170" y="329" type="line"/>
      <point x="114" y="308" type="line"/>
      <point x="114" y="14" type="line"/>
      <point x="195" y="14" type="line"/>
    </contour>
  </outline>
</glyph>
<glyph name="Nacute" format="1">
  <advance width="837"/>
  <unicode hex="0143"/>
  <outline>
    <contour>
      <point x="235" y="14" type="line"/>
      <point x="235" y="0" type="line"/>
      <point x="61" y="0" type="line"/>
      <point x="61" y="14" type="line"/>
      <point x="138" y="14" type="line"/>
      <point x="138" y="686" type="line"/>
      <point x="61" y="686" type="line"/>
      <point x="61" y="700" type="line"/>
      <point x="163" y="700" type="line"/>
      <point x="235" y="609"/>
      <point x="363" y="442"/>
      <point x="486" y="279"/>
      <point x="610" y="116"/>
      <point x="679" y="28" type="qcurve"/>
      <point x="698" y="2" type="line"/>
      <point x="695" y="34" type="line"/>
      <point x="695" y="687" type="line"/>
      <point x="610" y="687" type="line"/>
      <point x="610" y="701" type="line"/>
      <point x="784" y="701" type="line"/>
      <point x="784" y="687" type="line"/>
      <point x="709" y="687" type="line"/>
      <point x="709" y="-32" type="line"/>
      <point x="566" y="147"/>
      <point x="299" y="496"/>
      <point x="168" y="670" type="qcurve"/>
      <point x="149" y="696" type="line"/>
      <point x="152" y="664" type="line"/>
      <point x="152" y="14" type="line"/>
    </contour>
    <contour>
      <point x="390" y="750" type="line"/>
      <point x="480" y="883" type="line"/>
      <point x="496" y="883" type="line"/>
      <point x="406" y="750" type="line"/>
    </contour>
  </outline>
</glyph>
<glyph name="uni0145" format="1">
  <advance width="838"/>
  <unicode hex="0145"/>
  <outline>
    <contour>
      <point x="235" y="14" type="line"/>
      <point x="235" y="0" type="line"/>
      <point x="61" y="0" type="line"/>
      <point x="61" y="14" type="line"/>
      <point x="138" y="14" type="line"/>
      <point x="138" y="686" type="line"/>
      <point x="61" y="686" type="line"/>
      <point x="61" y="700" type="line"/>
      <point x="163" y="700" type="line"/>
      <point x="235" y="609"/>
      <point x="363" y="442"/>
      <point x="486" y="279"/>
      <point x="610" y="116"/>
      <point x="679" y="28" type="qcurve"/>
      <point x="698" y="2" type="line"/>
      <point x="695" y="34" type="line"/>
      <point x="695" y="687" type="line"/>
      <point x="610" y="687" type="line"/>
      <point x="610" y="701" type="line"/>
      <point x="784" y="701" type="line"/>
      <point x="784" y="687" type="line"/>
      <point x="709" y="687" type="line"/>
      <point x="709" y="-32" type="line"/>
      <point x="566" y="147"/>
      <point x="299" y="496"/>
      <point x="168" y="670" type="qcurve"/>
      <point x="149" y="696" type="line"/>
      <point x="152" y="664" type="line"/>
      <point x="152" y="14" type="line"/>
    </contour>
    <contour>
      <point x="442" y="-21" type="line"/>
      <point x="431" y="-47"/>
      <point x="417" y="-78"/>
      <point x="405" y="-106"/>
      <point x="392" y="-137"/>
      <point x="381" y="-163" type="qcurve"/>
      <point x="367" y="-163" type="line"/>
      <point x="377" y="-137"/>
      <point x="388" y="-106"/>
      <point x="398" y="-78"/>
      <point x="409" y="-47"/>
      <point x="419" y="-21" type="qcurve"/>
    </contour>
  </outline>
</glyph>
<glyph name="uni0146" format="1">
  <advance width="489"/>
  <unicode hex="0146"/>
  <outline>
    <contour>
      <point x="397" y="270" type="qcurve"/>
      <point x="397" y="14" type="line"/>
      <point x="477" y="14" type="line"/>
      <point x="477" y="0" type="line"/>
      <point x="304" y="0" type="line"/>
      <point x="304" y="14" type="line"/>
      <point x="383" y="14" type="line"/>
      <point x="383" y="277" type="line"/>
      <point x="381" y="313"/>
      <point x="332" y="366"/>
      <point x="288" y="368" type="qcurve"/>
      <point x="254" y="368"/>
      <point x="193" y="346"/>
      <point x="146" y="307"/>
      <point x="119" y="252"/>
      <point x="119" y="220" type="qcurve"/>
      <point x="119" y="14" type="line"/>
      <point x="200" y="14" type="line"/>
      <point x="200" y="0" type="line"/>
      <point x="25" y="0" type="line"/>
      <point x="25" y="14" type="line"/>
      <point x="105" y="14" type="line"/>
      <point x="105" y="361" type="line"/>
      <point x="25" y="361" type="line"/>
      <point x="25" y="375" type="line"/>
      <point x="114" y="375" type="line"/>
      <point x="116" y="277" type="line"/>
      <point x="136" y="324"/>
      <point x="224" y="382"/>
      <point x="281" y="382" type="qcurve"/>
      <point x="334" y="382"/>
      <point x="395" y="320"/>
    </contour>
    <contour>
      <point x="267" y="-21" type="line"/>
      <point x="256" y="-47"/>
      <point x="242" y="-78"/>
      <point x="230" y="-106"/>
      <point x="217" y="-137"/>
      <point x="206" y="-163" type="qcurve"/>
      <point x="192" y="-163" type="line"/>
      <point x="202" y="-137"/>
      <point x="213" y="-106"/>
      <point x="223" y="-78"/>
      <point x="234" y="-47"/>
      <point x="244" y="-21" type="qcurve"/>
    </contour>
  </outline>
</glyph>
<glyph name="uni0157" format="1">
  <advance width="294"/>
  <unicode hex="0157"/>
  <outline>
    <contour>
      <point x="119" y="220" type="qcurve"/>
      <point x="119" y="14" type="line"/>
      <point x="200" y="14" type="line"/>
      <point x="200" y="0" type="line"/>
      <point x="25" y="0" type="line"/>
      <point x="25" y="14" type="line"/>
      <point x="105" y="14" type="line"/>
      <point x="105" y="361" type="line"/>
      <point x="25" y="361" type="line"/>
      <point x="25" y="375" type="line"/>
      <point x="115" y="375" type="line"/>
      <point x="116" y="277" type="line"/>
      <point x="137" y="325"/>
      <point x="225" y="380"/>
      <point x="282" y="382" type="qcurve"/>
      <point x="282" y="368" type="line"/>
      <point x="249" y="367"/>
      <point x="190" y="344"/>
      <point x="145" y="305"/>
      <point x="119" y="251"/>
    </contour>
    <contour>
      <point x="149" y="-21" type="line"/>
      <point x="138" y="-47"/>
      <point x="124" y="-78"/>
      <point x="112" y="-106"/>
      <point x="99" y="-137"/>
      <point x="88" y="-163" type="qcurve"/>
      <point x="74" y="-163" type="line"/>
      <point x="84" y="-137"/>
      <point x="95" y="-106"/>
      <point x="105" y="-78"/>
      <point x="116" y="-47"/>
      <point x="126" y="-21" type="qcurve"/>
    </contour>
  </outline>
</glyph>
<glyph name="sacute" format="1">
  <advance width="324"/>
  <unicode hex="015B"/>
  <outline>
    <contour>
      <point x="60" y="87" type="line"/>
      <point x="60" y="45" type="line"/>
      <point x="67" y="36"/>
      <point x="92" y="22"/>
      <point x="121" y="12"/>
      <point x="151" y="6"/>
      <point x="162" y="6" type="qcurve"/>
      <point x="174" y="6"/>
      <point x="209" y="15"/>
      <point x="240" y="36"/>
      <point x="262" y="70"/>
      <point x="262" y="96" type="qcurve"/>
      <point x="262" y="126"/>
      <point x="232" y="160"/>
      <point x="188" y="181"/>
      <point x="135" y="197"/>
      <point x="91" y="219"/>
      <point x="61" y="255"/>
      <point x="61" y="286" type="qcurve"/>
      <point x="61" y="310"/>
      <point x="78" y="345"/>
      <point x="107" y="368"/>
      <point x="143" y="379"/>
      <point x="161" y="379" type="qcurve"/>
      <point x="183" y="379"/>
      <point x="240" y="360"/>
      <point x="261" y="336" type="qcurve"/>
      <point x="261" y="288" type="line"/>
      <point x="248" y="288" type="line"/>
      <point x="248" y="329" type="line"/>
      <point x="231" y="348"/>
      <point x="181" y="365"/>
      <point x="161" y="365" type="qcurve"/>
      <point x="148" y="365"/>
      <point x="118" y="356"/>
      <point x="92" y="338"/>
      <point x="75" y="308"/>
      <point x="75" y="287" type="qcurve"/>
      <point x="75" y="259"/>
      <point x="105" y="227"/>
      <point x="149" y="206"/>
      <point x="202" y="190"/>
      <point x="246" y="167"/>
      <point x="276" y="131"/>
      <point x="276" y="100" type="qcurve"/>
      <point x="276" y="79"/>
      <point x="261" y="40"/>
      <point x="232" y="10"/>
      <point x="189" y="-8"/>
      <point x="161" y="-8" type="qcurve"/>
      <point x="134" y="-8"/>
      <point x="68" y="13"/>
      <point x="47" y="39" type="qcurve"/>
      <point x="47" y="87" type="line"/>
    </contour>
    <contour>
      <point x="146" y="479" type="line"/>
      <point x="236" y="612" type="line"/>
      <point x="252" y="612" type="line"/>
      <point x="162" y="479" type="line"/>
    </contour>
  </outline>
</glyph>
<glyph name="scedilla" format="1">
  <advance width="324"/>
  <unicode hex="015F"/>
  <outline>
    <contour>
      <point x="60" y="87" type="line"/>
      <point x="60" y="45" type="line"/>
      <point x="67" y="36"/>
      <point x="92" y="22"/>
      <point x="121" y="12"/>
      <point x="151" y="6"/>
      <point x="162" y="6" type="qcurve"/>
      <point x="174" y="6"/>
      <point x="209" y="15"/>
      <point x="240" y="36"/>
      <point x="262" y="70"/>
      <point x="262" y="96" type="qcurve"/>
      <point x="262" y="126"/>
      <point x="232" y="160"/>
      <point x="188" y="181"/>
      <point x="135" y="197"/>
      <point x="91" y="219"/>
      <point x="61" y="255"/>
      <point x="61" y="286" type="qcurve"/>
      <point x="61" y="310"/>
      <point x="78" y="345"/>
      <point x="107" y="368"/>
      <point x="143" y="379"/>
      <point x="161" y="379" type="qcurve"/>
      <point x="183" y="379"/>
      <point x="240" y="360"/>
      <point x="261" y="336" type="qcurve"/>
      <point x="261" y="288" type="line"/>
      <point x="248" y="288" type="line"/>
      <point x="248" y="329" type="line"/>
      <point x="231" y="348"/>
      <point x="181" y="365"/>
      <point x="161" y="365" type="qcurve"/>
      <point x="148" y="365"/>
      <point x="118" y="356"/>
      <point x="92" y="338"/>
      <point x="75" y="308"/>
      <point x="75" y="287" type="qcurve"/>
      <point x="75" y="259"/>
      <point x="105" y="227"/>
      <point x="149" y="206"/>
      <point x="202" y="190"/>
      <point x="246" y="167"/>
      <point x="276" y="131"/>
      <point x="276" y="100" type="qcurve"/>
      <point x="276" y="79"/>
      <point x="261" y="40"/>
      <point x="232" y="10"/>
      <point x="189" y="-8"/>
      <point x="161" y="-8" type="qcurve"/>
      <point x="162" y="-33"/>
      <point x="189" y="-53"/>
      <point x="202" y="-61" type="qcurve"/>
      <point x="225" y="-76"/>
      <point x="244" y="-113"/>
      <point x="244" y="-127" type="qcurve"/>
      <point x="244" y="-178"/>
      <point x="193" y="-223"/>
      <point x="160" y="-223" type="qcurve"/>
      <point x="134" y="-223"/>
      <point x="89" y="-194"/>
      <point x="79" y="-165" type="qcurve"/>
      <point x="94" y="-161" type="line"/>
      <point x="100" y="-182"/>
      <point x="135" y="-209"/>
      <point x="160" y="-209" type="qcurve"/>
      <point x="191" y="-209"/>
      <point x="230" y="-168"/>
      <point x="230" y="-137" type="qcurve"/>
      <point x="230" y="-109"/>
      <point x="204" y="-79"/>
      <point x="173" y="-58"/>
      <point x="147" y="-36"/>
      <point x="147" y="-16" type="qcurve"/>
      <point x="147" y="-7" type="line"/>
      <point x="121" y="-5"/>
      <point x="65" y="16"/>
      <point x="47" y="39" type="qcurve"/>
      <point x="47" y="87" type="line"/>
    </contour>
  </outline>
</glyph>
<glyph name="Scaron" format="1">
  <advance width="544"/>
  <unicode hex="0160"/>
  <outline>
    <contour>
      <point x="59" y="63" type="qcurve"/>
      <point x="59" y="148" type="line"/>
      <point x="73" y="148" type="line"/>
      <point x="73" y="72" type="line"/>
      <point x="88" y="61"/>
      <point x="132" y="38"/>
      <point x="183" y="18"/>
      <point x="240" y="6"/>
      <point x="270" y="6" type="qcurve"/>
      <point x="307" y="6"/>
      <point x="379" y="28"/>
      <point x="435" y="73"/>
      <point x="470" y="141"/>
      <point x="470" y="187" type="qcurve"/>
      <point x="470" y="246"/>
      <point x="414" y="318"/>
      <point x="329" y="364"/>
      <point x="231" y="396"/>
      <point x="146" y="435"/>
      <point x="90" y="494"/>
      <point x="90" y="543" type="qcurve"/>
      <point x="90" y="577"/>
      <point x="119" y="636"/>
      <point x="169" y="680"/>
      <point x="237" y="704"/>
      <point x="276" y="704" type="qcurve"/>
      <point x="294" y="704"/>
      <point x="339" y="699"/>
      <point x="385" y="689"/>
      <point x="430" y="675"/>
      <point x="448" y="667" type="qcurve"/>
      <point x="448" y="582" type="line"/>
      <point x="434" y="582" type="line"/>
      <point x="434" y="659" type="line"/>
      <point x="406" y="670"/>
      <point x="323" y="691"/>
      <point x="282" y="691" type="qcurve"/>
      <point x="241" y="691"/>
      <point x="175" y="668"/>
      <point x="129" y="628"/>
      <point x="104" y="575"/>
      <point x="104" y="546" type="qcurve"/>
      <point x="104" y="499"/>
      <point x="160" y="445"/>
      <point x="245" y="407"/>
      <point x="343" y="374"/>
      <point x="428" y="326"/>
      <point x="484" y="250"/>
      <point x="484" y="188" type="qcurve"/>
      <point x="484" y="142"/>
      <point x="451" y="70"/>
      <point x="393" y="19"/>
      <point x="314" y="-8"/>
      <point x="267" y="-8" type="qcurve"/>
      <point x="226" y="-8"/>
      <point x="157" y="10"/>
      <point x="104" y="34"/>
      <point x="68" y="58"/>
    </contour>
    <contour>
      <point x="152" y="850" type="line"/>
      <point x="168" y="850" type="line"/>
      <point x="272" y="756" type="line"/>
      <point x="376" y="850" type="line"/>
      <point x="392" y="850" type="line"/>
      <point x="272" y="729" type="line"/>
    </contour>
  </outline>
</glyph>
<glyph name="uni0163" format="1">
  <advance width="244"/>
  <unicode hex="0163"/>
  <outline>
    <contour>
      <point x="114" y="353" type="line"/>
      <point x="114" y="14" type="line"/>
      <point x="205" y="14" type="line"/>
      <point x="205" y="0" type="line"/>
      <point x="100" y="0" type="line"/>
      <point x="100" y="353" type="line"/>
      <point x="11" y="353" type="line"/>
      <point x="11" y="367" type="line"/>
      <point x="100" y="367" type="line"/>
      <point x="100" y="539" type="line"/>
      <point x="114" y="539" type="line"/>
      <point x="114" y="367" type="line"/>
      <point x="241" y="367" type="line"/>
      <point x="241" y="353" type="line"/>
    </contour>
    <contour>
      <point x="123" y="-21" type="line"/>
      <point x="112" y="-47"/>
      <point x="98" y="-78"/>
      <point x="86" y="-106"/>
      <point x="73" y="-137"/>
      <point x="62" y="-163" type="qcurve"/>
      <point x="48" y="-163" type="line"/>
      <point x="58" y="-137"/>
      <point x="69" y="-106"/>
      <point x="79" y="-78"/>
      <point x="90" y="-47"/>
      <point x="100" y="-21" type="qcurve"/>
    </contour>
  </outline>
</glyph>
<glyph name="Tbar" format="1">
  <advance width="516"/>
  <unicode hex="0166"/>
  <outline>
    <contour>
      <point x="143" y="508" type="line"/>
      <point x="143" y="522" type="line"/>
      <point x="251" y="522" type="line"/>
      <point x="251" y="686" type="line"/>
      <point x="65" y="686" type="line"/>
      <point x="65" y="582" type="line"/>
      <point x="51" y="582" type="line"/>
      <point x="51" y="700" type="line"/>
      <point x="465" y="700" type="line"/>
      <point x="465" y="582" type="line"/>
      <point x="451" y="582" type="line"/>
      <point x="451" y="686" type="line"/>
      <point x="265" y="686" type="line"/>
      <point x="265" y="522" type="line"/>
      <point x="373" y="522" type="line"/>
      <point x="373" y="508" type="line"/>
      <point x="265" y="508" type="line"/>
      <point x="265" y="0" type="line"/>
      <point x="251" y="0" type="line"/>
      <point x="251" y="508" type="line"/>
    </contour>
  </outline>
</glyph>
<glyph name="tbar" format="1">
  <advance width="244"/>
  <unicode hex="0167"/>
  <outline>
    <contour>
      <point x="13" y="424" type="line"/>
      <point x="13" y="438" type="line"/>
      <point x="100" y="438" type="line"/>
      <point x="100" y="539" type="line"/>
      <point x="114" y="539" type="line"/>
      <point x="114" y="438" type="line"/>
      <point x="243" y="438" type="line"/>
      <point x="243" y="424" type="line"/>
      <point x="114" y="424" type="line"/>
      <point x="114" y="367" type="line"/>
      <point x="241" y="367" type="line"/>
      <point x="241" y="353" type="line"/>
      <point x="114" y="353" type="line"/>
      <point x="114" y="14" type="line"/>
      <point x="205" y="14" type="line"/>
      <point x="205" y="0" type="line"/>
      <point x="100" y="0" type="line"/>
      <point x="100" y="353" type="line"/>
      <point x="11" y="353" type="line"/>
      <point x="11" y="367" type="line"/>
      <point x="100" y="367" type="line"/>
      <point x="100" y="424" type="line"/>
    </contour>
  </outline>
</glyph>
<glyph name="utilde" format="1">
  <advance width="480"/>
  <unicode hex="0169"/>
  <outline>
    <contour>
      <point x="373" y="98" type="line"/>
      <point x="353" y="50"/>
      <point x="264" y="-7"/>
      <point x="208" y="-7" type="qcurve"/>
      <point x="155" y="-7"/>
      <point x="94" y="55"/>
      <point x="92" y="105" type="qcurve"/>
      <point x="92" y="361" type="line"/>
      <point x="12" y="361" type="line"/>
      <point x="12" y="375" type="line"/>
      <point x="106" y="375" type="line"/>
      <point x="106" y="98" type="line"/>
      <point x="108" y="62"/>
      <point x="157" y="9"/>
      <point x="201" y="7" type="qcurve"/>
      <point x="235" y="7"/>
      <point x="296" y="29"/>
      <point x="342" y="68"/>
      <point x="370" y="123"/>
      <point x="370" y="155" type="qcurve"/>
      <point x="370" y="361" type="line"/>
      <point x="289" y="361" type="line"/>
      <point x="289" y="375" type="line"/>
      <point x="384" y="375" type="line"/>
      <point x="384" y="14" type="line"/>
      <point x="464" y="14" type="line"/>
      <point x="464" y="0" type="line"/>
      <point x="374" y="0" type="line"/>
    </contour>
    <contour>
      <point x="234" y="485" type="qcurve"/>
      <point x="218" y="503"/>
      <point x="194" y="515"/>
      <point x="180" y="515" type="qcurve"/>
      <point x="172" y="515"/>
      <point x="151" y="510"/>
      <point x="131" y="498"/>
      <point x="116" y="477"/>
      <point x="114" y="460" type="qcurve"/>
      <point x="101" y="462" type="line"/>
      <point x="102" y="480"/>
      <point x="118" y="506"/>
      <point x="141" y="522"/>
      <point x="169" y="529"/>
      <point x="183" y="529" type="qcurve"/>
      <point x="203" y="529"/>
      <point x="236" y="508"/>
      <point x="252" y="491" type="qcurve"/>
      <point x="268" y="473"/>
      <point x="292" y="461"/>
      <point x="306" y="461" type="qcurve"/>
      <point x="314" y="461"/>
      <point x="335" y="466"/>
      <point x="355" y="478"/>
      <point x="370" y="499"/>
      <point x="372" y="516" type="qcurve"/>
      <point x="385" y="514" type="line"/>
      <point x="384" y="496"/>
      <point x="368" y="470"/>
      <point x="345" y="454"/>
      <point x="317" y="447"/>
      <point x="303" y="447" type="qcurve"/>
      <point x="283" y="447"/>
      <point x="250" y="468"/>
    </contour>
  </outline>
</glyph>
<glyph name="Ubreve" format="1">
  <advance width="698"/>
  <unicode hex="016C"/>
  <outline>
    <contour>
      <point x="221" y="700" type="line"/>
      <point x="221" y="686" type="line"/>
      <point x="138" y="686" type="line"/>
      <point x="138" y="229" type="line"/>
      <point x="138" y="175"/>
      <point x="169" y="92"/>
      <point x="225" y="35"/>
      <point x="303" y="6"/>
      <point x="349" y="6" type="qcurve"/>
      <point x="394" y="6"/>
      <point x="472" y="35"/>
      <point x="528" y="92"/>
      <point x="560" y="175"/>
      <point x="560" y="229" type="qcurve"/>
      <point x="560" y="700" type="line"/>
      <point x="653" y="700" type="line"/>
      <point x="653" y="686" type="line"/>
      <point x="574" y="686" type="line"/>
      <point x="574" y="226" type="line"/>
      <point x="574" y="169"/>
      <point x="539" y="81"/>
      <point x="479" y="22"/>
      <point x="397" y="-8"/>
      <point x="349" y="-8" type="qcurve"/>
      <point x="301" y="-8"/>
      <point x="218" y="22"/>
      <point x="158" y="81"/>
      <point x="124" y="169"/>
      <point x="124" y="226" type="qcurve"/>
      <point x="124" y="686" type="line"/>
      <point x="47" y="686" type="line"/>
      <point x="47" y="700" type="line"/>
    </contour>
    <contour>
      <point x="359" y="749" type="qcurve"/>
      <point x="326" y="749"/>
      <point x="267" y="773"/>
      <point x="223" y="815"/>
      <point x="197" y="873"/>
      <point x="196" y="906" type="qcurve"/>
      <point x="211" y="906" type="line"/>
      <point x="212" y="877"/>
      <point x="235" y="826"/>
      <point x="274" y="786"/>
      <point x="327" y="763"/>
      <point x="359" y="763" type="qcurve"/>
      <point x="391" y="763"/>
      <point x="444" y="786"/>
      <point x="482" y="826"/>
      <point x="503" y="877"/>
      <point x="504" y="906" type="qcurve"/>
      <point x="520" y="906" type="line"/>
      <point x="520" y="873"/>
      <point x="494" y="815"/>
      <point x="450" y="773"/>
      <point x="392" y="749"/>
    </contour>
  </outline>
</glyph>
<glyph name="Uring" format="1">
  <advance width="698"/>
  <unicode hex="016E"/>
  <outline>
    <contour>
      <point x="221" y="700" type="line"/>
      <point x="221" y="686" type="line"/>
      <point x="138" y="686" type="line"/>
      <point x="138" y="229" type="line"/>
      <point x="138" y="175"/>
      <point x="169" y="92"/>
      <point x="225" y="35"/>
      <point x="303" y="6"/>
      <point x="349" y="6" type="qcurve"/>
      <point x="394" y="6"/>
      <point x="472" y="35"/>
      <point x="528" y="92"/>
      <point x="560" y="175"/>
      <point x="560" y="229" type="qcurve"/>
      <point x="560" y="700" type="line"/>
      <point x="653" y="700" type="line"/>
      <point x="653" y="686" type="line"/>
      <point x="574" y="686" type="line"/>
      <point x="574" y="226" type="line"/>
      <point x="574" y="169"/>
      <point x="539" y="81"/>
      <point x="479" y="22"/>
      <point x="397" y="-8"/>
      <point x="349" y="-8" type="qcurve"/>
      <point x="301" y="-8"/>
      <point x="218" y="22"/>
      <point x="158" y="81"/>
      <point x="124" y="169"/>
      <point x="124" y="226" type="qcurve"/>
      <point x="124" y="686" type="line"/>
      <point x="47" y="686" type="line"/>
      <point x="47" y="700" type="line"/>
    </contour>
    <contour>
      <point x="282" y="798" type="qcurve"/>
      <point x="282" y="825"/>
      <point x="318" y="861"/>
      <point x="345" y="861" type="qcurve"/>
      <point x="372" y="861"/>
      <point x="408" y="825"/>
      <point x="408" y="798" type="qcurve"/>
      <point x="408" y="771"/>
      <point x="372" y="735"/>
      <point x="345" y="735" type="qcurve"/>
      <point x="318" y="735"/>
      <point x="282" y="771"/>
    </contour>
    <contour>
      <point x="296" y="798" type="qcurve"/>
      <point x="296" y="778"/>
      <point x="325" y="749"/>
      <point x="345" y="749" type="qcurve"/>
      <point x="365" y="749"/>
      <point x="394" y="778"/>
      <point x="394" y="798" type="qcurve"/>
      <point x="394" y="818"/>
      <point x="365" y="847"/>
      <point x="345" y="847" type="qcurve"/>
      <point x="325" y="847"/>
      <point x="296" y="818"/>
    </contour>
  </outline>
</glyph>
<glyph name="uring" format="1">
  <advance width="480"/>
  <unicode hex="016F"/>
  <outline>
    <contour>
      <point x="370" y="155" type="qcurve"/>
      <point x="370" y="361" type="line"/>
      <point x="289" y="361" type="line"/>
      <point x="289" y="375" type="line"/>
      <point x="384" y="375" type="line"/>
      <point x="384" y="14" type="line"/>
      <point x="464" y="14" type="line"/>
      <point x="464" y="0" type="line"/>
      <point x="374" y="0" type="line"/>
      <point x="373" y="98" type="line"/>
      <point x="353" y="50"/>
      <point x="264" y="-7"/>
      <point x="208" y="-7" type="qcurve"/>
      <point x="155" y="-7"/>
      <point x="94" y="55"/>
      <point x="92" y="105" type="qcurve"/>
      <point x="92" y="361" type="line"/>
      <point x="12" y="361" type="line"/>
      <point x="12" y="375" type="line"/>
      <point x="106" y="375" type="line"/>
      <point x="106" y="98" type="line"/>
      <point x="108" y="62"/>
      <point x="157" y="9"/>
      <point x="201" y="7" type="qcurve"/>
      <point x="235" y="7"/>
      <point x="296" y="29"/>
      <point x="342" y="68"/>
      <point x="370" y="123"/>
    </contour>
    <contour>
      <point x="159" y="502" type="qcurve"/>
      <point x="159" y="529"/>
      <point x="195" y="565"/>
      <point x="222" y="565" type="qcurve"/>
      <point x="249" y="565"/>
      <point x="285" y="529"/>
      <point x="285" y="502" type="qcurve"/>
      <point x="285" y="475"/>
      <point x="249" y="439"/>
      <point x="222" y="439" type="qcurve"/>
      <point x="195" y="439"/>
      <point x="159" y="475"/>
    </contour>
    <contour>
      <point x="173" y="502" type="qcurve"/>
      <point x="173" y="482"/>
      <point x="202" y="453"/>
      <point x="222" y="453" type="qcurve"/>
      <point x="242" y="453"/>
      <point x="271" y="482"/>
      <point x="271" y="502" type="qcurve"/>
      <point x="271" y="522"/>
      <point x="242" y="551"/>
      <point x="222" y="551" type="qcurve"/>
      <point x="202" y="551"/>
      <point x="173" y="522"/>
    </contour>
  </outline>
</glyph>
<glyph name="uhungarumlaut" format="1">
  <advance width="480"/>
  <unicode hex="0171"/>
  <outline>
    <contour>
      <point x="373" y="98" type="line"/>
      <point x="353" y="50"/>
      <point x="264" y="-7"/>
      <point x="208" y="-7" type="qcurve"/>
      <point x="155" y="-7"/>
      <point x="94" y="55"/>
      <point x="92" y="105" type="qcurve"/>
      <point x="92" y="361" type="line"/>
      <point x="12" y="361" type="line"/>
      <point x="12" y="375" type="line"/>
      <point x="106" y="375" type="line"/>
      <point x="106" y="98" type="line"/>
      <point x="108" y="62"/>
      <point x="157" y="9"/>
      <point x="201" y="7" type="qcurve"/>
      <point x="235" y="7"/>
      <point x="296" y="29"/>
      <point x="342" y="68"/>
      <point x="370" y="123"/>
      <point x="370" y="155" type="qcurve"/>
      <point x="370" y="361" type="line"/>
      <point x="289" y="361" type="line"/>
      <point x="289" y="375" type="line"/>
      <point x="384" y="375" type="line"/>
      <point x="384" y="14" type="line"/>
      <point x="464" y="14" type="line"/>
      <point x="464" y="0" type="line"/>
      <point x="374" y="0" type="line"/>
    </contour>
    <contour>
      <point x="98" y="479" type="line"/>
      <point x="188" y="612" type="line"/>
      <point x="204" y="612" type="line"/>
      <point x="114" y="479" type="line"/>
    </contour>
    <contour>
      <point x="316" y="479" type="line"/>
      <point x="406" y="612" type="line"/>
      <point x="422" y="612" type="line"/>
      <point x="332" y="479" type="line"/>
    </contour>
  </outline>
</glyph>
<glyph name="Ydieresis" format="1">
  <advance width="662"/>
  <unicode hex="0178"/>
  <outline>
    <contour>
      <point x="419" y="14" type="line"/>
      <point x="419" y="0" type="line"/>
      <point x="245" y="0" type="line"/>
      <point x="245" y="14" type="line"/>
      <point x="325" y="14" type="line"/>
      <point x="325" y="262" type="line"/>
      <point x="70" y="686" type="line"/>
      <point x="5" y="686" type="line"/>
      <point x="5" y="700" type="line"/>
      <point x="179" y="700" type="line"/>
      <point x="179" y="686" type="line"/>
      <point x="87" y="686" type="line"/>
      <point x="146" y="588"/>
      <point x="263" y="396"/>
      <point x="320" y="298" type="qcurve"/>
      <point x="333" y="272" type="line"/>
      <point x="344" y="298" type="line"/>
      <point x="575" y="686" type="line"/>
      <point x="484" y="686" type="line"/>
      <point x="484" y="700" type="line"/>
      <point x="664" y="700" type="line"/>
      <point x="664" y="686" type="line"/>
      <point x="592" y="686" type="line"/>
      <point x="339" y="262" type="line"/>
      <point x="339" y="14" type="line"/>
    </contour>
    <contour>
      <point x="395" y="790" type="qcurve"/>
      <point x="395" y="798"/>
      <point x="407" y="810"/>
      <point x="415" y="810" type="qcurve"/>
      <point x="423" y="810"/>
      <point x="435" y="798"/>
      <point x="435" y="790" type="qcurve"/>
      <point x="435" y="782"/>
      <point x="423" y="770"/>
      <point x="415" y="770" type="qcurve"/>
      <point x="407" y="770"/>
      <point x="395" y="782"/>
    </contour>
    <contour>
      <point x="230" y="790" type="qcurve"/>
      <point x="230" y="798"/>
      <point x="242" y="810"/>
      <point x="250" y="810" type="qcurve"/>
      <point x="258" y="810"/>
      <point x="270" y="798"/>
      <point x="270" y="790" type="qcurve"/>
      <point x="270" y="782"/>
      <point x="258" y="770"/>
      <point x="250" y="770" type="qcurve"/>
      <point x="242" y="770"/>
      <point x="230" y="782"/>
    </contour>
  </outline>
</glyph>
<glyph name="Zacute" format="1">
  <advance width="646"/>
  <unicode hex="0179"/>
  <outline>
    <contour>
      <point x="91" y="700" type="qcurve"/>
      <point x="566" y="700" type="line"/>
      <point x="48" y="14" type="line"/>
      <point x="585" y="14" type="line"/>
      <point x="585" y="148" type="line"/>
      <point x="599" y="148" type="line"/>
      <point x="599" y="0" type="line"/>
      <point x="23" y="0" type="line"/>
      <point x="151" y="180"/>
      <point x="410" y="517"/>
      <point x="538" y="686" type="qcurve"/>
      <point x="105" y="686" type="line"/>
      <point x="74" y="686"/>
      <point x="45" y="702"/>
      <point x="45" y="731" type="qcurve"/>
      <point x="45" y="735" type="line"/>
      <point x="61" y="735" type="line"/>
      <point x="61" y="723" type="line"/>
      <point x="61" y="714"/>
      <point x="74" y="700"/>
    </contour>
    <contour>
      <point x="315" y="736" type="line"/>
      <point x="405" y="869" type="line"/>
      <point x="421" y="869" type="line"/>
      <point x="331" y="736" type="line"/>
    </contour>
  </outline>
</glyph>
<glyph name="Zdotaccent" format="1">
  <advance width="646"/>
  <unicode hex="017B"/>
  <outline>
    <contour>
      <point x="91" y="700" type="qcurve"/>
      <point x="566" y="700" type="line"/>
      <point x="48" y="14" type="line"/>
      <point x="585" y="14" type="line"/>
      <point x="585" y="148" type="line"/>
      <point x="599" y="148" type="line"/>
      <point x="599" y="0" type="line"/>
      <point x="23" y="0" type="line"/>
      <point x="151" y="180"/>
      <point x="410" y="517"/>
      <point x="538" y="686" type="qcurve"/>
      <point x="105" y="686" type="line"/>
      <point x="74" y="686"/>
      <point x="45" y="702"/>
      <point x="45" y="731" type="qcurve"/>
      <point x="45" y="735" type="line"/>
      <point x="61" y="735" type="line"/>
      <point x="61" y="723" type="line"/>
      <point x="61" y="714"/>
      <point x="74" y="700"/>
    </contour>
    <contour>
      <point x="299" y="757" type="qcurve"/>
      <point x="299" y="765"/>
      <point x="311" y="777"/>
      <point x="319" y="777" type="qcurve"/>
      <point x="327" y="777"/>
      <point x="339" y="765"/>
      <point x="339" y="757" type="qcurve"/>
      <point x="339" y="749"/>
      <point x="327" y="737"/>
      <point x="319" y="737" type="qcurve"/>
      <point x="311" y="737"/>
      <point x="299" y="749"/>
    </contour>
  </outline>
</glyph>
<glyph name="Zcaron" format="1">
  <advance width="646"/>
  <unicode hex="017D"/>
  <outline>
    <contour>
      <point x="91" y="700" type="qcurve"/>
      <point x="566" y="700" type="line"/>
      <point x="48" y="14" type="line"/>
      <point x="585" y="14" type="line"/>
      <point x="585" y="148" type="line"/>
      <point x="599" y="148" type="line"/>
      <point x="599" y="0" type="line"/>
      <point x="23" y="0" type="line"/>
      <point x="151" y="180"/>
      <point x="410" y="517"/>
      <point x="538" y="686" type="qcurve"/>
      <point x="105" y="686" type="line"/>
      <point x="74" y="686"/>
      <point x="45" y="702"/>
      <point x="45" y="731" type="qcurve"/>
      <point x="45" y="735" type="line"/>
      <point x="61" y="735" type="line"/>
      <point x="61" y="723" type="line"/>
      <point x="61" y="714"/>
      <point x="74" y="700"/>
    </contour>
    <contour>
      <point x="195" y="850" type="line"/>
      <point x="211" y="850" type="line"/>
      <point x="315" y="756" type="line"/>
      <point x="419" y="850" type="line"/>
      <point x="435" y="850" type="line"/>
      <point x="315" y="729" type="line"/>
    </contour>
  </outline>
</glyph>
<glyph name="circumflex" format="1">
  <advance width="450"/>
  <unicode hex="02C6"/>
  <outline>
    <contour>
      <point x="232" y="600" type="line"/>
      <point x="352" y="479" type="line"/>
      <point x="336" y="479" type="line"/>
      <point x="232" y="573" type="line"/>
      <point x="128" y="479" type="line"/>
      <point x="112" y="479" type="line"/>
    </contour>
  </outline>
</glyph>
<glyph name="breve" format="1">
  <advance width="509"/>
  <unicode hex="02D8"/>
  <outline>
    <contour>
      <point x="263" y="500" type="qcurve"/>
      <point x="230" y="500"/>
      <point x="171" y="524"/>
      <point x="127" y="566"/>
      <point x="101" y="624"/>
      <point x="100" y="657" type="qcurve"/>
      <point x="115" y="657" type="line"/>
      <point x="116" y="628"/>
      <point x="139" y="577"/>
      <point x="178" y="537"/>
      <point x="231" y="514"/>
      <point x="263" y="514" type="qcurve"/>
      <point x="295" y="514"/>
      <point x="348" y="537"/>
      <point x="386" y="577"/>
      <point x="407" y="628"/>
      <point x="408" y="657" type="qcurve"/>
      <point x="424" y="657" type="line"/>
      <point x="424" y="624"/>
      <point x="398" y="566"/>
      <point x="354" y="524"/>
      <point x="296" y="500"/>
    </contour>
  </outline>
</glyph>
<glyph name="ring" format="1">
  <advance width="423"/>
  <unicode hex="02DA"/>
  <outline>
    <contour>
      <point x="182" y="469" type="qcurve"/>
      <point x="182" y="449"/>
      <point x="211" y="420"/>
      <point x="231" y="420" type="qcurve"/>
      <point x="251" y="420"/>
      <point x="280" y="449"/>
      <point x="280" y="469" type="qcurve"/>
      <point x="280" y="489"/>
      <point x="251" y="518"/>
      <point x="231" y="518" type="qcurve"/>
      <point x="211" y="518"/>
      <point x="182" y="489"/>
    </contour>
    <contour>
      <point x="168" y="469" type="qcurve"/>
      <point x="168" y="496"/>
      <point x="204" y="532"/>
      <point x="231" y="532" type="qcurve"/>
      <point x="258" y="532"/>
      <point x="294" y="496"/>
      <point x="294" y="469" type="qcurve"/>
      <point x="294" y="442"/>
      <point x="258" y="406"/>
      <point x="231" y="406" type="qcurve"/>
      <point x="204" y="406"/>
      <point x="168" y="442"/>
    </contour>
  </outline>
</glyph>
<glyph name="ogonek" format="1">
  <advance width="833"/>
  <unicode hex="02DB"/>
  <outline>
    <contour>
      <point x="222" y="-16" type="line"/>
      <point x="222" y="-36"/>
      <point x="196" y="-58"/>
      <point x="165" y="-79"/>
      <point x="139" y="-109"/>
      <point x="139" y="-137" type="qcurve"/>
      <point x="139" y="-168"/>
      <point x="178" y="-209"/>
      <point x="209" y="-209" type="qcurve"/>
      <point x="234" y="-209"/>
      <point x="269" y="-182"/>
      <point x="275" y="-161" type="qcurve"/>
      <point x="290" y="-165" type="line"/>
      <point x="280" y="-194"/>
      <point x="235" y="-223"/>
      <point x="209" y="-223" type="qcurve"/>
      <point x="176" y="-223"/>
      <point x="125" y="-178"/>
      <point x="125" y="-127" type="qcurve"/>
      <point x="125" y="-113"/>
      <point x="144" y="-76"/>
      <point x="167" y="-61" type="qcurve"/>
      <point x="180" y="-53"/>
      <point x="208" y="-32"/>
      <point x="208" y="-6" type="qcurve"/>
      <point x="208" y="0" type="line"/>
      <point x="222" y="0" type="line"/>
    </contour>
  </outline>
</glyph>
<glyph name="tilde" format="1">
  <advance width="593"/>
  <unicode hex="02DC"/>
  <outline>
    <contour>
      <point x="304" y="485" type="qcurve"/>
      <point x="288" y="503"/>
      <point x="264" y="515"/>
      <point x="250" y="515" type="qcurve"/>
      <point x="242" y="515"/>
      <point x="221" y="510"/>
      <point x="201" y="498"/>
      <point x="186" y="477"/>
      <point x="184" y="460" type="qcurve"/>
      <point x="171" y="462" type="line"/>
      <point x="172" y="480"/>
      <point x="188" y="506"/>
      <point x="211" y="522"/>
      <point x="239" y="529"/>
      <point x="253" y="529" type="qcurve"/>
      <point x="273" y="529"/>
      <point x="306" y="508"/>
      <point x="322" y="491" type="qcurve"/>
      <point x="338" y="473"/>
      <point x="362" y="461"/>
      <point x="376" y="461" type="qcurve"/>
      <point x="384" y="461"/>
      <point x="405" y="466"/>
      <point x="425" y="478"/>
      <point x="440" y="499"/>
      <point x="442" y="516" type="qcurve"/>
      <point x="455" y="514" type="line"/>
      <point x="454" y="496"/>
      <point x="438" y="470"/>
      <point x="415" y="454"/>
      <point x="387" y="447"/>
      <point x="373" y="447" type="qcurve"/>
      <point x="353" y="447"/>
      <point x="320" y="468"/>
    </contour>
  </outline>
</glyph>
<glyph name="Etilde" format="1">
  <advance width="626"/>
  <unicode hex="1EBC"/>
  <outline>
    <contour>
      <point x="540" y="612" type="line"/>
      <point x="540" y="686" type="line"/>
      <point x="153" y="686" type="line"/>
      <point x="153" y="360" type="line"/>
      <point x="515" y="360" type="line"/>
      <point x="515" y="346" type="line"/>
      <point x="153" y="346" type="line"/>
      <point x="153" y="14" type="line"/>
      <point x="554" y="14" type="line"/>
      <point x="554" y="89" type="line"/>
      <point x="568" y="89" type="line"/>
      <point x="568" y="0" type="line"/>
      <point x="63" y="0" type="line"/>
      <point x="63" y="14" type="line"/>
      <point x="139" y="14" type="line"/>
      <point x="139" y="686" type="line"/>
      <point x="63" y="686" type="line"/>
      <point x="63" y="700" type="line"/>
      <point x="540" y="700" type="line"/>
      <point x="540" y="701" type="line"/>
      <point x="554" y="701" type="line"/>
      <point x="554" y="612" type="line"/>
    </contour>
    <contour>
      <point x="348" y="776" type="qcurve"/>
      <point x="332" y="794"/>
      <point x="308" y="806"/>
      <point x="294" y="806" type="qcurve"/>
      <point x="286" y="806"/>
      <point x="265" y="801"/>
      <point x="245" y="789"/>
      <point x="230" y="768"/>
      <point x="228" y="751" type="qcurve"/>
      <point x="215" y="753" type="line"/>
      <point x="216" y="771"/>
      <point x="232" y="797"/>
      <point x="255" y="813"/>
      <point x="283" y="820"/>
      <point x="297" y="820" type="qcurve"/>
      <point x="317" y="820"/>
      <point x="350" y="799"/>
      <point x="366" y="782" type="qcurve"/>
      <point x="382" y="764"/>
      <point x="406" y="752"/>
      <point x="420" y="752" type="qcurve"/>
      <point x="428" y="752"/>
      <point x="449" y="757"/>
      <point x="469" y="769"/>
      <point x="484" y="790"/>
      <point x="486" y="807" type="qcurve"/>
      <point x="499" y="805" type="line"/>
      <point x="498" y="787"/>
      <point x="482" y="761"/>
      <point x="459" y="745"/>
      <point x="431" y="738"/>
      <point x="417" y="738" type="qcurve"/>
      <point x="397" y="738"/>
      <point x="364" y="759"/>
    </contour>
  </outline>
</glyph>
<glyph name="endash" format="1">
  <advance width="435"/>
  <unicode hex="2013"/>
  <outline>
    <contour>
      <point x="67" y="179" type="line"/>
      <point x="67" y="193" type="line"/>
      <point x="368" y="193" type="line"/>
      <point x="368" y="179" type="line"/>
    </contour>
  </outline>
</glyph>
<glyph name="quoteleft" format="1">
  <advance width="185"/>
  <unicode hex="2018"/>
  <outline>
    <contour>
      <point x="119" y="590" type="qcurve"/>
      <point x="113" y="572" type="line"/>
      <point x="84" y="598"/>
      <point x="59" y="671"/>
      <point x="67" y="711" type="qcurve"/>
      <point x="86" y="704" type="line"/>
      <point x="79" y="669"/>
      <point x="98" y="610"/>
    </contour>
  </outline>
</glyph>
<glyph name="quoteright" format="1">
  <advance width="184"/>
  <unicode hex="2019"/>
  <outline>
    <contour>
      <point x="72" y="572" type="qcurve"/>
      <point x="66" y="590" type="line"/>
      <point x="87" y="610"/>
      <point x="106" y="669"/>
      <point x="99" y="704" type="qcurve"/>
      <point x="118" y="711" type="line"/>
      <point x="126" y="671"/>
      <point x="101" y="598"/>
    </contour>
  </outline>
</glyph>
<glyph name="quotedblleft" format="1">
  <advance width="289"/>
  <unicode hex="201C"/>
  <outline>
    <contour>
      <point x="222" y="590" type="qcurve"/>
      <point x="216" y="572" type="line"/>
      <point x="187" y="598"/>
      <point x="162" y="671"/>
      <point x="170" y="711" type="qcurve"/>
      <point x="189" y="704" type="line"/>
      <point x="182" y="669"/>
      <point x="201" y="610"/>
    </contour>
    <contour>
      <point x="118" y="590" type="qcurve"/>
      <point x="112" y="572" type="line"/>
      <point x="83" y="598"/>
      <point x="58" y="671"/>
      <point x="66" y="711" type="qcurve"/>
      <point x="85" y="704" type="line"/>
      <point x="78" y="669"/>
      <point x="97" y="610"/>
    </contour>
  </outline>
</glyph>
<glyph name="quotedblbase" format="1">
  <advance width="319"/>
  <unicode hex="201E"/>
  <outline>
    <contour>
      <point x="74" y="-47" type="qcurve"/>
      <point x="68" y="-29" type="line"/>
      <point x="89" y="-9"/>
      <point x="108" y="50"/>
      <point x="101" y="85" type="qcurve"/>
      <point x="120" y="92" type="line"/>
      <point x="128" y="52"/>
      <point x="103" y="-21"/>
    </contour>
    <contour>
      <point x="178" y="-47" type="qcurve"/>
      <point x="172" y="-29" type="line"/>
      <point x="193" y="-9"/>
      <point x="212" y="50"/>
      <point x="205" y="85" type="qcurve"/>
      <point x="224" y="92" type="line"/>
      <point x="232" y="52"/>
      <point x="207" y="-21"/>
    </contour>
  </outline>
</glyph>
<glyph name="daggerdbl" format="1">
  <advance width="413"/>
  <unicode hex="2021"/>
  <outline>
    <contour>
      <point x="199" y="73" type="line"/>
      <point x="199" y="280" type="line"/>
      <point x="56" y="280" type="line"/>
      <point x="56" y="294" type="line"/>
      <point x="199" y="294" type="line"/>
      <point x="199" y="424" type="line"/>
      <point x="114" y="424" type="line"/>
      <point x="114" y="438" type="line"/>
      <point x="199" y="438" type="line"/>
      <point x="199" y="571" type="line"/>
      <point x="213" y="571" type="line"/>
      <point x="213" y="438" type="line"/>
      <point x="298" y="438" type="line"/>
      <point x="298" y="424" type="line"/>
      <point x="213" y="424" type="line"/>
      <point x="213" y="294" type="line"/>
      <point x="357" y="294" type="line"/>
      <point x="357" y="280" type="line"/>
      <point x="213" y="280" type="line"/>
      <point x="213" y="73" type="line"/>
    </contour>
  </outline>
</glyph>
<glyph name="ellipsis" format="1">
  <advance width="511"/>
  <unicode hex="2026"/>
  <outline>
    <contour>
      <point x="72" y="20" type="qcurve"/>
      <point x="72" y="28"/>
      <point x="84" y="40"/>
      <point x="92" y="40" type="qcurve"/>
      <point x="100" y="40"/>
      <point x="112" y="28"/>
      <point x="112" y="20" type="qcurve"/>
      <point x="112" y="12"/>
      <point x="100" y="0"/>
      <point x="92" y="0" type="qcurve"/>
      <point x="84" y="0"/>
      <point x="72" y="12"/>
    </contour>
    <contour>
      <point x="235" y="20" type="qcurve"/>
      <point x="235" y="28"/>
      <point x="247" y="40"/>
      <point x="255" y="40" type="qcurve"/>
      <point x="263" y="40"/>
      <point x="275" y="28"/>
      <point x="275" y="20" type="qcurve"/>
      <point x="275" y="12"/>
      <point x="263" y="0"/>
      <point x="255" y="0" type="qcurve"/>
      <point x="247" y="0"/>
      <point x="235" y="12"/>
    </contour>
    <contour>
      <point x="398" y="20" type="qcurve"/>
      <point x="398" y="28"/>
      <point x="410" y="40"/>
      <point x="418" y="40" type="qcurve"/>
      <point x="426" y="40"/>
      <point x="438" y="28"/>
      <point x="438" y="20" type="qcurve"/>
      <point x="438" y="12"/>
      <point x="426" y="0"/>
      <point x="418" y="0" type="qcurve"/>
      <point x="410" y="0"/>
      <point x="398" y="12"/>
    </contour>
  </outline>
</glyph>
<glyph name="guilsinglleft" format="1">
  <advance width="286"/>
  <unicode hex="2039"/>
  <outline>
    <contour>
      <point x="221" y="77" type="line"/>
      <point x="50" y="239" type="line"/>
      <point x="221" y="400" type="line"/>
      <point x="221" y="383" type="line"/>
      <point x="79" y="239" type="line"/>
      <point x="221" y="93" type="line"/>
    </contour>
  </outline>
</glyph>
<glyph name="product" format="1">
  <advance width="419"/>
  <unicode hex="220F"/>
  <outline>
    <contour>
      <point x="135" y="-50" type="line"/>
      <point x="121" y="-50" type="line"/>
      <point x="121" y="750" type="line"/>
      <point x="298" y="750" type="line"/>
      <point x="298" y="-50" type="line"/>
      <point x="284" y="-50" type="line"/>
      <point x="284" y="736" type="line"/>
      <point x="135" y="736" type="line"/>
    </contour>
  </outline>
</glyph>
<glyph name="summation" format="1">
  <advance width="447"/>
  <unicode hex="2211"/>
  <outline>
    <contour>
      <point x="94" y="-42" type="line"/>
      <point x="388" y="-42" type="line"/>
      <point x="402" y="-56" type="line"/>
      <point x="75" y="-56" type="line"/>
      <point x="189" y="347" type="line"/>
      <point x="75" y="750" type="line"/>
      <point x="402" y="750" type="line"/>
      <point x="388" y="736" type="line"/>
      <point x="94" y="736" type="line"/>
      <point x="203" y="347" type="line"/>
    </contour>
  </outline>
</glyph>
<glyph name="integral" format="1">
  <advance width="290"/>
  <unicode hex="222B"/>
  <outline>
    <contour>
      <point x="138" y="628" type="line"/>
      <point x="138" y="673"/>
      <point x="153" y="722"/>
      <point x="177" y="743"/>
      <point x="208" y="746"/>
      <point x="224" y="746" type="qcurve"/>
      <point x="261" y="746" type="line"/>
      <point x="261" y="732" type="line"/>
      <point x="204" y="732" type="line"/>
      <point x="173" y="732"/>
      <point x="152" y="680"/>
      <point x="152" y="620" type="qcurve"/>
      <point x="152" y="6" type="line"/>
      <point x="152" y="-53"/>
      <point x="140" y="-116"/>
      <point x="118" y="-144"/>
      <point x="86" y="-148"/>
      <point x="66" y="-148" type="qcurve"/>
      <point x="29" y="-148" type="line"/>
      <point x="29" y="-134" type="line"/>
      <point x="86" y="-134" type="line"/>
      <point x="117" y="-134"/>
      <point x="138" y="-82"/>
      <point x="138" y="-22" type="qcurve"/>
    </contour>
  </outline>
</glyph>
<glyph name="approxequal" format="1">
  <advance width="451"/>
  <unicode hex="2248"/>
  <outline>
    <contour>
      <point x="217" y="207" type="qcurve"/>
      <point x="201" y="225"/>
      <point x="177" y="237"/>
      <point x="163" y="237" type="qcurve"/>
      <point x="155" y="237"/>
      <point x="134" y="232"/>
      <point x="114" y="220"/>
      <point x="99" y="199"/>
      <point x="97" y="182" type="qcurve"/>
      <point x="84" y="184" type="line"/>
      <point x="85" y="202"/>
      <point x="101" y="228"/>
      <point x="124" y="244"/>
      <point x="152" y="251"/>
      <point x="166" y="251" type="qcurve"/>
      <point x="186" y="251"/>
      <point x="219" y="230"/>
      <point x="235" y="213" type="qcurve"/>
      <point x="251" y="195"/>
      <point x="275" y="183"/>
      <point x="289" y="183" type="qcurve"/>
      <point x="297" y="183"/>
      <point x="318" y="188"/>
      <point x="338" y="200"/>
      <point x="353" y="221"/>
      <point x="355" y="238" type="qcurve"/>
      <point x="368" y="236" type="line"/>
      <point x="367" y="218"/>
      <point x="351" y="192"/>
      <point x="328" y="176"/>
      <point x="300" y="169"/>
      <point x="286" y="169" type="qcurve"/>
      <point x="266" y="169"/>
      <point x="233" y="190"/>
    </contour>
    <contour>
      <point x="218" y="357" type="qcurve"/>
      <point x="202" y="375"/>
      <point x="178" y="387"/>
      <point x="164" y="387" type="qcurve"/>
      <point x="156" y="387"/>
      <point x="135" y="382"/>
      <point x="115" y="370"/>
      <point x="100" y="349"/>
      <point x="98" y="332" type="qcurve"/>
      <point x="85" y="334" type="line"/>
      <point x="86" y="352"/>
      <point x="102" y="378"/>
      <point x="125" y="394"/>
      <point x="153" y="401"/>
      <point x="167" y="401" type="qcurve"/>
      <point x="187" y="401"/>
      <point x="220" y="380"/>
      <point x="236" y="363" type="qcurve"/>
      <point x="252" y="345"/>
      <point x="276" y="333"/>
      <point x="290" y="333" type="qcurve"/>
      <point x="298" y="333"/>
      <point x="319" y="338"/>
      <point x="339" y="350"/>
      <point x="354" y="371"/>
      <point x="356" y="388" type="qcurve"/>
      <point x="369" y="386" type="line"/>
      <point x="368" y="368"/>
      <point x="352" y="342"/>
      <point x="329" y="326"/>
      <point x="301" y="319"/>
      <point x="287" y="319" type="qcurve"/>
      <point x="267" y="319"/>
      <point x="234" y="340"/>
    </contour>
  </outline>
</glyph>
<glyph name="lessequal" format="1">
  <advance width="585"/>
  <unicode hex="2264"/>
  <outline>
    <contour>
      <point x="504" y="236" type="line"/>
      <point x="504" y="220" type="line"/>
      <point x="66" y="473" type="line"/>
      <point x="504" y="726" type="line"/>
      <point x="504" y="710" type="line"/>
      <point x="92" y="473" type="line"/>
    </contour>
    <contour>
      <point x="465" y="96" type="line"/>
      <point x="105" y="96" type="line"/>
      <point x="105" y="110" type="line"/>
      <point x="465" y="110" type="line"/>
    </contour>
  </outline>
</glyph>
<glyph name="greaterequal" format="1">
  <advance width="580"/>
  <unicode hex="2265"/>
  <outline>
    <contour>
      <point x="91" y="236" type="line"/>
      <point x="503" y="473" type="line"/>
      <point x="91" y="710" type="line"/>
      <point x="91" y="726" type="line"/>
      <point x="529" y="473" type="line"/>
      <point x="91" y="220" type="line"/>
    </contour>
    <contour>
      <point x="90" y="110" type="line"/>
      <point x="450" y="110" type="line"/>
      <point x="450" y="96" type="line"/>
      <point x="90" y="96" type="line"/>
    </contour>
  </outline>
</glyph>
